<svg width="1322" height="250" viewBox="0 0 1322 250" fill="none" xmlns="http://www.w3.org/2000/svg">
<path d="M2.19 15V5.312H4.136L6.88 13.502L9.624 5.312H11.57V15H10.492V6.46H10.296L7.482 14.65H6.278L3.464 6.46H3.268V15H2.19ZM18.4575 14.132L18.8635 14.09L18.8915 14.916C17.8275 15.0653 16.9175 15.14 16.1615 15.14C15.1535 15.14 14.4395 14.8507 14.0195 14.272C13.5995 13.684 13.3895 12.774 13.3895 11.542C13.3895 9.08733 14.3648 7.86 16.3155 7.86C17.2581 7.86 17.9628 8.126 18.4295 8.658C18.8961 9.18067 19.1295 10.0067 19.1295 11.136L19.0735 11.934H14.4535C14.4535 12.7087 14.5935 13.2827 14.8735 13.656C15.1535 14.0293 15.6388 14.216 16.3295 14.216C17.0295 14.216 17.7388 14.188 18.4575 14.132ZM18.0795 11.094C18.0795 10.2353 17.9395 9.62867 17.6595 9.274C17.3888 8.91933 16.9408 8.742 16.3155 8.742C15.6995 8.742 15.2328 8.92867 14.9155 9.302C14.6075 9.67533 14.4488 10.2727 14.4395 11.094H18.0795ZM21.8158 15H20.7658V8H21.8018V8.49C22.5578 8.07 23.2811 7.86 23.9718 7.86C24.9051 7.86 25.5305 8.112 25.8478 8.616C26.1745 9.12 26.3378 10.016 26.3378 11.304V15H25.3018V11.332C25.3018 10.3613 25.2038 9.69867 25.0078 9.344C24.8211 8.98 24.4151 8.798 23.7898 8.798C23.4911 8.798 23.1738 8.84467 22.8378 8.938C22.5111 9.022 22.2591 9.106 22.0818 9.19L21.8158 9.316V15ZM32.6533 8H33.7033V15H32.6533V14.51C31.9533 14.93 31.2627 15.14 30.5813 15.14C29.6293 15.14 28.9947 14.8927 28.6773 14.398C28.3693 13.9033 28.2153 12.9887 28.2153 11.654V8H29.2653V11.64C29.2653 12.6573 29.354 13.3387 29.5313 13.684C29.7087 14.0293 30.11 14.202 30.7353 14.202C31.0433 14.202 31.356 14.16 31.6733 14.076C31.9907 13.9827 32.2333 13.894 32.4013 13.81L32.6533 13.684V8ZM29.2373 4.64L32.2613 6.012L31.9673 6.726L28.8733 5.536L29.2373 4.64ZM39.849 15H38.799V8H39.835V8.49C40.591 8.07 41.3143 7.86 42.005 7.86C42.9383 7.86 43.5637 8.112 43.881 8.616C44.2077 9.12 44.371 10.016 44.371 11.304V15H43.335V11.332C43.335 10.3613 43.237 9.69867 43.041 9.344C42.8543 8.98 42.4483 8.798 41.823 8.798C41.5243 8.798 41.207 8.84467 40.871 8.938C40.5443 9.022 40.2923 9.106 40.115 9.19L39.849 9.316V15ZM51.0785 14.132L51.4845 14.09L51.5125 14.916C50.4485 15.0653 49.5385 15.14 48.7825 15.14C47.7745 15.14 47.0605 14.8507 46.6405 14.272C46.2205 13.684 46.0105 12.774 46.0105 11.542C46.0105 9.08733 46.9859 7.86 48.9365 7.86C49.8792 7.86 50.5839 8.126 51.0505 8.658C51.5172 9.18067 51.7505 10.0067 51.7505 11.136L51.6945 11.934H47.0745C47.0745 12.7087 47.2145 13.2827 47.4945 13.656C47.7745 14.0293 48.2599 14.216 48.9505 14.216C49.6505 14.216 50.3599 14.188 51.0785 14.132ZM50.7005 11.094C50.7005 10.2353 50.5605 9.62867 50.2805 9.274C50.0099 8.91933 49.5619 8.742 48.9365 8.742C48.3205 8.742 47.8539 8.92867 47.5365 9.302C47.2285 9.67533 47.0699 10.2727 47.0605 11.094H50.7005ZM53.4709 15V4.948H54.5209V15H53.4709ZM56.7111 15V4.948H57.7611V15H56.7111ZM64.8094 10.114V13.698C64.8374 14.0433 65.108 14.2487 65.6214 14.314L65.5794 15.14C64.842 15.14 64.2867 14.9533 63.9134 14.58C63.0734 14.9533 62.2334 15.14 61.3934 15.14C60.7494 15.14 60.2594 14.958 59.9234 14.594C59.5874 14.23 59.4194 13.7073 59.4194 13.026C59.4194 12.3447 59.592 11.8453 59.9374 11.528C60.2827 11.2013 60.824 11.0007 61.5614 10.926L63.7594 10.716V10.114C63.7594 9.638 63.6567 9.29733 63.4514 9.092C63.246 8.88667 62.966 8.784 62.6114 8.784C61.8647 8.784 61.09 8.83067 60.2874 8.924L59.8534 8.966L59.8114 8.168C60.838 7.96267 61.748 7.86 62.5414 7.86C63.3347 7.86 63.9087 8.042 64.2634 8.406C64.6274 8.77 64.8094 9.33933 64.8094 10.114ZM60.4974 12.97C60.4974 13.8287 60.852 14.258 61.5614 14.258C62.196 14.258 62.8214 14.1507 63.4374 13.936L63.7594 13.824V11.514L61.6874 11.71C61.2674 11.7473 60.964 11.8687 60.7774 12.074C60.5907 12.2793 60.4974 12.578 60.4974 12.97ZM72.1552 8.798C71.1379 8.798 70.6292 9.15267 70.6292 9.862C70.6292 10.1887 70.7459 10.422 70.9792 10.562C71.2126 10.6927 71.7446 10.8327 72.5752 10.982C73.4059 11.122 73.9939 11.3227 74.3392 11.584C74.6846 11.8453 74.8572 12.3353 74.8572 13.054C74.8572 13.7727 74.6239 14.3 74.1572 14.636C73.6999 14.972 73.0279 15.14 72.1412 15.14C71.5626 15.14 70.8812 15.0747 70.0972 14.944L69.6772 14.874L69.7332 13.964C70.7972 14.1227 71.5999 14.202 72.1412 14.202C72.6826 14.202 73.0932 14.118 73.3732 13.95C73.6626 13.7727 73.8072 13.4833 73.8072 13.082C73.8072 12.6713 73.6859 12.396 73.4432 12.256C73.2006 12.1067 72.6686 11.9667 71.8472 11.836C71.0259 11.7053 70.4426 11.514 70.0972 11.262C69.7519 11.01 69.5792 10.5433 69.5792 9.862C69.5792 9.18067 69.8172 8.67667 70.2932 8.35C70.7786 8.02333 71.3806 7.86 72.0992 7.86C72.6686 7.86 73.3826 7.92533 74.2412 8.056L74.6332 8.126L74.6052 9.022C73.5692 8.87267 72.7526 8.798 72.1552 8.798ZM80.833 8H81.883V15H80.833V14.51C80.133 14.93 79.4424 15.14 78.761 15.14C77.809 15.14 77.1744 14.8927 76.857 14.398C76.549 13.9033 76.395 12.9887 76.395 11.654V8H77.445V11.64C77.445 12.6573 77.5337 13.3387 77.711 13.684C77.8884 14.0293 78.2897 14.202 78.915 14.202C79.223 14.202 79.5357 14.16 79.853 14.076C80.1704 13.9827 80.413 13.894 80.581 13.81L80.833 13.684V8ZM88.8445 10.114V13.698C88.8725 14.0433 89.1432 14.2487 89.6565 14.314L89.6145 15.14C88.8772 15.14 88.3219 14.9533 87.9485 14.58C87.1085 14.9533 86.2685 15.14 85.4285 15.14C84.7845 15.14 84.2945 14.958 83.9585 14.594C83.6225 14.23 83.4545 13.7073 83.4545 13.026C83.4545 12.3447 83.6272 11.8453 83.9725 11.528C84.3179 11.2013 84.8592 11.0007 85.5965 10.926L87.7945 10.716V10.114C87.7945 9.638 87.6919 9.29733 87.4865 9.092C87.2812 8.88667 87.0012 8.784 86.6465 8.784C85.8999 8.784 85.1252 8.83067 84.3225 8.924L83.8885 8.966L83.8465 8.168C84.8732 7.96267 85.7832 7.86 86.5765 7.86C87.3699 7.86 87.9439 8.042 88.2985 8.406C88.6625 8.77 88.8445 9.33933 88.8445 10.114ZM84.5325 12.97C84.5325 13.8287 84.8872 14.258 85.5965 14.258C86.2312 14.258 86.8565 14.1507 87.4725 13.936L87.7945 13.824V11.514L85.7225 11.71C85.3025 11.7473 84.9992 11.8687 84.8125 12.074C84.6259 12.2793 84.5325 12.578 84.5325 12.97ZM93.3344 8H94.4544L96.0924 14.09H96.6104L98.3044 8H99.3824L97.4084 15H95.3084L93.3344 8ZM105.37 14.132L105.776 14.09L105.804 14.916C104.74 15.0653 103.83 15.14 103.074 15.14C102.066 15.14 101.352 14.8507 100.932 14.272C100.512 13.684 100.302 12.774 100.302 11.542C100.302 9.08733 101.277 7.86 103.228 7.86C104.17 7.86 104.875 8.126 105.342 8.658C105.808 9.18067 106.042 10.0067 106.042 11.136L105.986 11.934H101.366C101.366 12.7087 101.506 13.2827 101.786 13.656C102.066 14.0293 102.551 14.216 103.242 14.216C103.942 14.216 104.651 14.188 105.37 14.132ZM104.992 11.094C104.992 10.2353 104.852 9.62867 104.572 9.274C104.301 8.91933 103.853 8.742 103.228 8.742C102.612 8.742 102.145 8.92867 101.828 9.302C101.52 9.67533 101.361 10.2727 101.352 11.094H104.992ZM107.678 15V8H108.714V8.952C109.526 8.392 110.38 8.02333 111.276 7.846V8.91C110.884 8.98467 110.473 9.10133 110.044 9.26C109.624 9.41867 109.302 9.55867 109.078 9.68L108.728 9.862V15H107.678ZM114.716 8.798C113.698 8.798 113.19 9.15267 113.19 9.862C113.19 10.1887 113.306 10.422 113.54 10.562C113.773 10.6927 114.305 10.8327 115.136 10.982C115.966 11.122 116.554 11.3227 116.9 11.584C117.245 11.8453 117.418 12.3353 117.418 13.054C117.418 13.7727 117.184 14.3 116.718 14.636C116.26 14.972 115.588 15.14 114.702 15.14C114.123 15.14 113.442 15.0747 112.658 14.944L112.238 14.874L112.294 13.964C113.358 14.1227 114.16 14.202 114.702 14.202C115.243 14.202 115.654 14.118 115.934 13.95C116.223 13.7727 116.368 13.4833 116.368 13.082C116.368 12.6713 116.246 12.396 116.004 12.256C115.761 12.1067 115.229 11.9667 114.408 11.836C113.586 11.7053 113.003 11.514 112.658 11.262C112.312 11.01 112.14 10.5433 112.14 9.862C112.14 9.18067 112.378 8.67667 112.854 8.35C113.339 8.02333 113.941 7.86 114.66 7.86C115.229 7.86 115.943 7.92533 116.802 8.056L117.194 8.126L117.166 9.022C116.13 8.87267 115.313 8.798 114.716 8.798ZM119.026 15V8H120.076V15H119.026ZM119.026 6.418V5.2H120.076V6.418H119.026ZM121.78 11.486C121.78 10.2073 122.009 9.28333 122.466 8.714C122.923 8.14467 123.693 7.86 124.776 7.86C125.868 7.86 126.638 8.14467 127.086 8.714C127.543 9.28333 127.772 10.2073 127.772 11.486C127.772 12.7647 127.557 13.6933 127.128 14.272C126.699 14.8507 125.915 15.14 124.776 15.14C123.637 15.14 122.853 14.8507 122.424 14.272C121.995 13.6933 121.78 12.7647 121.78 11.486ZM122.858 11.472C122.858 12.4893 122.979 13.2033 123.222 13.614C123.474 14.0247 123.992 14.23 124.776 14.23C125.569 14.23 126.087 14.0293 126.33 13.628C126.573 13.2173 126.694 12.4987 126.694 11.472C126.694 10.4453 126.559 9.74067 126.288 9.358C126.017 8.966 125.513 8.77 124.776 8.77C124.048 8.77 123.544 8.966 123.264 9.358C122.993 9.74067 122.858 10.4453 122.858 11.472ZM130.535 15H129.485V8H130.521V8.49C131.277 8.07 132 7.86 132.691 7.86C133.624 7.86 134.249 8.112 134.567 8.616C134.893 9.12 135.057 10.016 135.057 11.304V15H134.021V11.332C134.021 10.3613 133.923 9.69867 133.727 9.344C133.54 8.98 133.134 8.798 132.509 8.798C132.21 8.798 131.893 8.84467 131.557 8.938C131.23 9.022 130.978 9.106 130.801 9.19L130.535 9.316V15ZM141.764 14.132L142.17 14.09L142.198 14.916C141.134 15.0653 140.224 15.14 139.468 15.14C138.46 15.14 137.746 14.8507 137.326 14.272C136.906 13.684 136.696 12.774 136.696 11.542C136.696 9.08733 137.671 7.86 139.622 7.86C140.565 7.86 141.269 8.126 141.736 8.658C142.203 9.18067 142.436 10.0067 142.436 11.136L142.38 11.934H137.76C137.76 12.7087 137.9 13.2827 138.18 13.656C138.46 14.0293 138.945 14.216 139.636 14.216C140.336 14.216 141.045 14.188 141.764 14.132ZM141.386 11.094C141.386 10.2353 141.246 9.62867 140.966 9.274C140.695 8.91933 140.247 8.742 139.622 8.742C139.006 8.742 138.539 8.92867 138.222 9.302C137.914 9.67533 137.755 10.2727 137.746 11.094H141.386ZM149.767 7.86C150.075 7.86 150.597 7.916 151.335 8.028L151.671 8.07L151.629 8.924C150.882 8.84 150.331 8.798 149.977 8.798C149.183 8.798 148.642 8.98933 148.353 9.372C148.073 9.74533 147.933 10.4453 147.933 11.472C147.933 12.4893 148.063 13.1987 148.325 13.6C148.595 14.0013 149.151 14.202 149.991 14.202L151.643 14.076L151.685 14.944C150.817 15.0747 150.168 15.14 149.739 15.14C148.647 15.14 147.891 14.86 147.471 14.3C147.06 13.74 146.855 12.7973 146.855 11.472C146.855 10.1373 147.079 9.204 147.527 8.672C147.975 8.13067 148.721 7.86 149.767 7.86ZM153.33 15V4.948H154.38V15H153.33ZM161.429 10.114V13.698C161.457 14.0433 161.727 14.2487 162.241 14.314L162.199 15.14C161.461 15.14 160.906 14.9533 160.533 14.58C159.693 14.9533 158.853 15.14 158.013 15.14C157.369 15.14 156.879 14.958 156.543 14.594C156.207 14.23 156.039 13.7073 156.039 13.026C156.039 12.3447 156.211 11.8453 156.557 11.528C156.902 11.2013 157.443 11.0007 158.181 10.926L160.379 10.716V10.114C160.379 9.638 160.276 9.29733 160.071 9.092C159.865 8.88667 159.585 8.784 159.231 8.784C158.484 8.784 157.709 8.83067 156.907 8.924L156.473 8.966L156.431 8.168C157.457 7.96267 158.367 7.86 159.161 7.86C159.954 7.86 160.528 8.042 160.883 8.406C161.247 8.77 161.429 9.33933 161.429 10.114ZM157.117 12.97C157.117 13.8287 157.471 14.258 158.181 14.258C158.815 14.258 159.441 14.1507 160.057 13.936L160.379 13.824V11.514L158.307 11.71C157.887 11.7473 157.583 11.8687 157.397 12.074C157.21 12.2793 157.117 12.578 157.117 12.97ZM165.698 8.798C164.681 8.798 164.172 9.15267 164.172 9.862C164.172 10.1887 164.289 10.422 164.522 10.562C164.756 10.6927 165.288 10.8327 166.118 10.982C166.949 11.122 167.537 11.3227 167.882 11.584C168.228 11.8453 168.4 12.3353 168.4 13.054C168.4 13.7727 168.167 14.3 167.7 14.636C167.243 14.972 166.571 15.14 165.684 15.14C165.106 15.14 164.424 15.0747 163.64 14.944L163.22 14.874L163.276 13.964C164.34 14.1227 165.143 14.202 165.684 14.202C166.226 14.202 166.636 14.118 166.916 13.95C167.206 13.7727 167.35 13.4833 167.35 13.082C167.35 12.6713 167.229 12.396 166.986 12.256C166.744 12.1067 166.212 11.9667 165.39 11.836C164.569 11.7053 163.986 11.514 163.64 11.262C163.295 11.01 163.122 10.5433 163.122 9.862C163.122 9.18067 163.36 8.67667 163.836 8.35C164.322 8.02333 164.924 7.86 165.642 7.86C166.212 7.86 166.926 7.92533 167.784 8.056L168.176 8.126L168.148 9.022C167.112 8.87267 166.296 8.798 165.698 8.798ZM172.206 8.798C171.189 8.798 170.68 9.15267 170.68 9.862C170.68 10.1887 170.797 10.422 171.03 10.562C171.263 10.6927 171.795 10.8327 172.626 10.982C173.457 11.122 174.045 11.3227 174.39 11.584C174.735 11.8453 174.908 12.3353 174.908 13.054C174.908 13.7727 174.675 14.3 174.208 14.636C173.751 14.972 173.079 15.14 172.192 15.14C171.613 15.14 170.932 15.0747 170.148 14.944L169.728 14.874L169.784 13.964C170.848 14.1227 171.651 14.202 172.192 14.202C172.733 14.202 173.144 14.118 173.424 13.95C173.713 13.7727 173.858 13.4833 173.858 13.082C173.858 12.6713 173.737 12.396 173.494 12.256C173.251 12.1067 172.719 11.9667 171.898 11.836C171.077 11.7053 170.493 11.514 170.148 11.262C169.803 11.01 169.63 10.5433 169.63 9.862C169.63 9.18067 169.868 8.67667 170.344 8.35C170.829 8.02333 171.431 7.86 172.15 7.86C172.719 7.86 173.433 7.92533 174.292 8.056L174.684 8.126L174.656 9.022C173.62 8.87267 172.803 8.798 172.206 8.798ZM176.516 15V8H177.566V15H176.516ZM176.516 6.418V5.2H177.566V6.418H176.516ZM182.196 7.86C182.504 7.86 183.027 7.916 183.764 8.028L184.1 8.07L184.058 8.924C183.312 8.84 182.761 8.798 182.406 8.798C181.613 8.798 181.072 8.98933 180.782 9.372C180.502 9.74533 180.362 10.4453 180.362 11.472C180.362 12.4893 180.493 13.1987 180.754 13.6C181.025 14.0013 181.58 14.202 182.42 14.202L184.072 14.076L184.114 14.944C183.246 15.0747 182.598 15.14 182.168 15.14C181.076 15.14 180.32 14.86 179.9 14.3C179.49 13.74 179.284 12.7973 179.284 11.472C179.284 10.1373 179.508 9.204 179.956 8.672C180.404 8.13067 181.151 7.86 182.196 7.86ZM190.618 10.114V13.698C190.646 14.0433 190.917 14.2487 191.43 14.314L191.388 15.14C190.651 15.14 190.095 14.9533 189.722 14.58C188.882 14.9533 188.042 15.14 187.202 15.14C186.558 15.14 186.068 14.958 185.732 14.594C185.396 14.23 185.228 13.7073 185.228 13.026C185.228 12.3447 185.401 11.8453 185.746 11.528C186.091 11.2013 186.633 11.0007 187.37 10.926L189.568 10.716V10.114C189.568 9.638 189.465 9.29733 189.26 9.092C189.055 8.88667 188.775 8.784 188.42 8.784C187.673 8.784 186.899 8.83067 186.096 8.924L185.662 8.966L185.62 8.168C186.647 7.96267 187.557 7.86 188.35 7.86C189.143 7.86 189.717 8.042 190.072 8.406C190.436 8.77 190.618 9.33933 190.618 10.114ZM186.306 12.97C186.306 13.8287 186.661 14.258 187.37 14.258C188.005 14.258 188.63 14.1507 189.246 13.936L189.568 13.824V11.514L187.496 11.71C187.076 11.7473 186.773 11.8687 186.586 12.074C186.399 12.2793 186.306 12.578 186.306 12.97Z" fill="#071122"/>
<rect x="0.5" y="35.5" width="1321" height="214" fill="#0066CC" fill-opacity="0.14"/>
<rect x="0.5" y="35.5" width="1321" height="214" stroke="#CBD5E1"/>
<rect x="0.5" y="35.5" width="1321" height="214" stroke="black" stroke-opacity="0.2"/>
<rect width="1320" height="44" transform="translate(1 36)" fill="#DCEDFF"/>
<path d="M68.408 64H62.264V53.04H64.04V62.416H68.408V64ZM75.5698 58.464V62.112C75.5804 62.3467 75.6391 62.5227 75.7458 62.64C75.8631 62.7467 76.0391 62.816 76.2738 62.848L76.2258 64.176C75.3084 64.176 74.5991 63.9787 74.0978 63.584C73.2444 63.9787 72.3858 64.176 71.5218 64.176C69.9324 64.176 69.1378 63.328 69.1378 61.632C69.1378 60.8213 69.3511 60.2347 69.7778 59.872C70.2151 59.5093 70.8818 59.2907 71.7778 59.216L73.8418 59.04V58.464C73.8418 58.0373 73.7458 57.7387 73.5538 57.568C73.3724 57.3973 73.1004 57.312 72.7378 57.312C72.0551 57.312 71.2018 57.3547 70.1778 57.44L69.6658 57.472L69.6018 56.24C70.7644 55.9627 71.8311 55.824 72.8018 55.824C73.7831 55.824 74.4871 56.0373 74.9138 56.464C75.3511 56.88 75.5698 57.5467 75.5698 58.464ZM71.9858 60.448C71.2498 60.512 70.8818 60.912 70.8818 61.648C70.8818 62.384 71.2071 62.752 71.8578 62.752C72.3911 62.752 72.9564 62.6667 73.5538 62.496L73.8418 62.4V60.272L71.9858 60.448ZM81.4871 55.824C82.5858 55.824 83.3751 56.1333 83.8551 56.752C84.3458 57.36 84.5911 58.4427 84.5911 60C84.5911 61.5573 84.3031 62.6453 83.7271 63.264C83.1511 63.872 82.1378 64.176 80.6871 64.176C80.1858 64.176 79.3911 64.128 78.3031 64.032L77.7591 63.984V52.672H79.4871V56.304C80.2231 55.984 80.8898 55.824 81.4871 55.824ZM80.6871 62.624C81.5405 62.624 82.1058 62.4267 82.3831 62.032C82.6711 61.6267 82.8151 60.944 82.8151 59.984C82.8151 59.024 82.6925 58.352 82.4471 57.968C82.2125 57.5733 81.8231 57.376 81.2791 57.376C80.7671 57.376 80.2551 57.456 79.7431 57.616L79.4871 57.696V62.56C80.0738 62.6027 80.4738 62.624 80.6871 62.624ZM92.0333 62.56L92.4813 62.512L92.5133 63.808C91.2973 64.0533 90.2199 64.176 89.2812 64.176C88.0973 64.176 87.2439 63.8507 86.7213 63.2C86.2093 62.5493 85.9533 61.5093 85.9533 60.08C85.9533 57.2427 87.1106 55.824 89.4253 55.824C91.6653 55.824 92.7853 57.0453 92.7853 59.488L92.6733 60.736H87.7133C87.7239 61.3973 87.8679 61.8827 88.1453 62.192C88.4226 62.5013 88.9399 62.656 89.6973 62.656C90.4546 62.656 91.2333 62.624 92.0333 62.56ZM91.0733 59.392C91.0733 58.6027 90.9453 58.0533 90.6893 57.744C90.4439 57.424 90.0226 57.264 89.4253 57.264C88.8279 57.264 88.3906 57.4293 88.1133 57.76C87.8466 58.0907 87.7079 58.6347 87.6973 59.392H91.0733ZM94.5583 64V52.672H96.3023V64H94.5583ZM106.329 57.488H104.121V61.008C104.121 61.6587 104.169 62.0907 104.265 62.304C104.361 62.5173 104.606 62.624 105.001 62.624L106.313 62.576L106.393 63.968C105.678 64.1067 105.134 64.176 104.761 64.176C103.854 64.176 103.23 63.968 102.889 63.552C102.558 63.136 102.393 62.352 102.393 61.2V57.488H101.369V56H102.393V53.68H104.121V56H106.329V57.488ZM113.455 62.56L113.903 62.512L113.935 63.808C112.719 64.0533 111.642 64.176 110.703 64.176C109.519 64.176 108.666 63.8507 108.143 63.2C107.631 62.5493 107.375 61.5093 107.375 60.08C107.375 57.2427 108.532 55.824 110.847 55.824C113.087 55.824 114.207 57.0453 114.207 59.488L114.095 60.736H109.135C109.146 61.3973 109.29 61.8827 109.567 62.192C109.844 62.5013 110.362 62.656 111.119 62.656C111.876 62.656 112.655 62.624 113.455 62.56ZM112.495 59.392C112.495 58.6027 112.367 58.0533 112.111 57.744C111.866 57.424 111.444 57.264 110.847 57.264C110.25 57.264 109.812 57.4293 109.535 57.76C109.268 58.0907 109.13 58.6347 109.119 59.392H112.495ZM115.116 56H116.972L118.54 58.768L120.124 56H121.98L119.596 59.936L121.98 64H120.124L118.54 61.264L116.972 64H115.116L117.436 59.984L115.116 56ZM127.61 57.488H125.402V61.008C125.402 61.6587 125.45 62.0907 125.546 62.304C125.642 62.5173 125.887 62.624 126.282 62.624L127.594 62.576L127.674 63.968C126.959 64.1067 126.415 64.176 126.042 64.176C125.135 64.176 124.511 63.968 124.17 63.552C123.839 63.136 123.674 62.352 123.674 61.2V57.488H122.65V56H123.674V53.68H125.402V56H127.61V57.488Z" fill="#0066CC"/>
<path d="M61 65.76H127.978V66.24H61V65.76Z" fill="#0066CC"/>
<path d="M159.408 64H153.264V53.04H155.04V62.416H159.408V64ZM166.57 58.464V62.112C166.58 62.3467 166.639 62.5227 166.746 62.64C166.863 62.7467 167.039 62.816 167.274 62.848L167.226 64.176C166.308 64.176 165.599 63.9787 165.098 63.584C164.244 63.9787 163.386 64.176 162.522 64.176C160.932 64.176 160.138 63.328 160.138 61.632C160.138 60.8213 160.351 60.2347 160.778 59.872C161.215 59.5093 161.882 59.2907 162.778 59.216L164.842 59.04V58.464C164.842 58.0373 164.746 57.7387 164.554 57.568C164.372 57.3973 164.1 57.312 163.738 57.312C163.055 57.312 162.202 57.3547 161.178 57.44L160.666 57.472L160.602 56.24C161.764 55.9627 162.831 55.824 163.802 55.824C164.783 55.824 165.487 56.0373 165.914 56.464C166.351 56.88 166.57 57.5467 166.57 58.464ZM162.986 60.448C162.25 60.512 161.882 60.912 161.882 61.648C161.882 62.384 162.207 62.752 162.858 62.752C163.391 62.752 163.956 62.6667 164.554 62.496L164.842 62.4V60.272L162.986 60.448ZM172.487 55.824C173.586 55.824 174.375 56.1333 174.855 56.752C175.346 57.36 175.591 58.4427 175.591 60C175.591 61.5573 175.303 62.6453 174.727 63.264C174.151 63.872 173.138 64.176 171.687 64.176C171.186 64.176 170.391 64.128 169.303 64.032L168.759 63.984V52.672H170.487V56.304C171.223 55.984 171.89 55.824 172.487 55.824ZM171.687 62.624C172.54 62.624 173.106 62.4267 173.383 62.032C173.671 61.6267 173.815 60.944 173.815 59.984C173.815 59.024 173.692 58.352 173.447 57.968C173.212 57.5733 172.823 57.376 172.279 57.376C171.767 57.376 171.255 57.456 170.743 57.616L170.487 57.696V62.56C171.074 62.6027 171.474 62.624 171.687 62.624ZM183.033 62.56L183.481 62.512L183.513 63.808C182.297 64.0533 181.22 64.176 180.281 64.176C179.097 64.176 178.244 63.8507 177.721 63.2C177.209 62.5493 176.953 61.5093 176.953 60.08C176.953 57.2427 178.111 55.824 180.425 55.824C182.665 55.824 183.785 57.0453 183.785 59.488L183.673 60.736H178.713C178.724 61.3973 178.868 61.8827 179.145 62.192C179.423 62.5013 179.94 62.656 180.697 62.656C181.455 62.656 182.233 62.624 183.033 62.56ZM182.073 59.392C182.073 58.6027 181.945 58.0533 181.689 57.744C181.444 57.424 181.023 57.264 180.425 57.264C179.828 57.264 179.391 57.4293 179.113 57.76C178.847 58.0907 178.708 58.6347 178.697 59.392H182.073ZM185.558 64V52.672H187.302V64H185.558ZM197.329 57.488H195.121V61.008C195.121 61.6587 195.169 62.0907 195.265 62.304C195.361 62.5173 195.606 62.624 196.001 62.624L197.313 62.576L197.393 63.968C196.678 64.1067 196.134 64.176 195.761 64.176C194.854 64.176 194.23 63.968 193.889 63.552C193.558 63.136 193.393 62.352 193.393 61.2V57.488H192.369V56H193.393V53.68H195.121V56H197.329V57.488ZM204.455 62.56L204.903 62.512L204.935 63.808C203.719 64.0533 202.642 64.176 201.703 64.176C200.519 64.176 199.666 63.8507 199.143 63.2C198.631 62.5493 198.375 61.5093 198.375 60.08C198.375 57.2427 199.532 55.824 201.847 55.824C204.087 55.824 205.207 57.0453 205.207 59.488L205.095 60.736H200.135C200.146 61.3973 200.29 61.8827 200.567 62.192C200.844 62.5013 201.362 62.656 202.119 62.656C202.876 62.656 203.655 62.624 204.455 62.56ZM203.495 59.392C203.495 58.6027 203.367 58.0533 203.111 57.744C202.866 57.424 202.444 57.264 201.847 57.264C201.25 57.264 200.812 57.4293 200.535 57.76C200.268 58.0907 200.13 58.6347 200.119 59.392H203.495ZM206.116 56H207.972L209.54 58.768L211.124 56H212.98L210.596 59.936L212.98 64H211.124L209.54 61.264L207.972 64H206.116L208.436 59.984L206.116 56ZM218.61 57.488H216.402V61.008C216.402 61.6587 216.45 62.0907 216.546 62.304C216.642 62.5173 216.887 62.624 217.282 62.624L218.594 62.576L218.674 63.968C217.959 64.1067 217.415 64.176 217.042 64.176C216.135 64.176 215.511 63.968 215.17 63.552C214.839 63.136 214.674 62.352 214.674 61.2V57.488H213.65V56H214.674V53.68H216.402V56H218.61V57.488Z" fill="#0066CC"/>
<path d="M152 65.76H218.978V66.24H152V65.76Z" fill="#0066CC"/>
<path d="M250.408 64H244.264V53.04H246.04V62.416H250.408V64ZM257.57 58.464V62.112C257.58 62.3467 257.639 62.5227 257.746 62.64C257.863 62.7467 258.039 62.816 258.274 62.848L258.226 64.176C257.308 64.176 256.599 63.9787 256.098 63.584C255.244 63.9787 254.386 64.176 253.522 64.176C251.932 64.176 251.138 63.328 251.138 61.632C251.138 60.8213 251.351 60.2347 251.778 59.872C252.215 59.5093 252.882 59.2907 253.778 59.216L255.842 59.04V58.464C255.842 58.0373 255.746 57.7387 255.554 57.568C255.372 57.3973 255.1 57.312 254.738 57.312C254.055 57.312 253.202 57.3547 252.178 57.44L251.666 57.472L251.602 56.24C252.764 55.9627 253.831 55.824 254.802 55.824C255.783 55.824 256.487 56.0373 256.914 56.464C257.351 56.88 257.57 57.5467 257.57 58.464ZM253.986 60.448C253.25 60.512 252.882 60.912 252.882 61.648C252.882 62.384 253.207 62.752 253.858 62.752C254.391 62.752 254.956 62.6667 255.554 62.496L255.842 62.4V60.272L253.986 60.448ZM263.487 55.824C264.586 55.824 265.375 56.1333 265.855 56.752C266.346 57.36 266.591 58.4427 266.591 60C266.591 61.5573 266.303 62.6453 265.727 63.264C265.151 63.872 264.138 64.176 262.687 64.176C262.186 64.176 261.391 64.128 260.303 64.032L259.759 63.984V52.672H261.487V56.304C262.223 55.984 262.89 55.824 263.487 55.824ZM262.687 62.624C263.54 62.624 264.106 62.4267 264.383 62.032C264.671 61.6267 264.815 60.944 264.815 59.984C264.815 59.024 264.692 58.352 264.447 57.968C264.212 57.5733 263.823 57.376 263.279 57.376C262.767 57.376 262.255 57.456 261.743 57.616L261.487 57.696V62.56C262.074 62.6027 262.474 62.624 262.687 62.624ZM274.033 62.56L274.481 62.512L274.513 63.808C273.297 64.0533 272.22 64.176 271.281 64.176C270.097 64.176 269.244 63.8507 268.721 63.2C268.209 62.5493 267.953 61.5093 267.953 60.08C267.953 57.2427 269.111 55.824 271.425 55.824C273.665 55.824 274.785 57.0453 274.785 59.488L274.673 60.736H269.713C269.724 61.3973 269.868 61.8827 270.145 62.192C270.423 62.5013 270.94 62.656 271.697 62.656C272.455 62.656 273.233 62.624 274.033 62.56ZM273.073 59.392C273.073 58.6027 272.945 58.0533 272.689 57.744C272.444 57.424 272.023 57.264 271.425 57.264C270.828 57.264 270.391 57.4293 270.113 57.76C269.847 58.0907 269.708 58.6347 269.697 59.392H273.073ZM276.558 64V52.672H278.302V64H276.558ZM288.329 57.488H286.121V61.008C286.121 61.6587 286.169 62.0907 286.265 62.304C286.361 62.5173 286.606 62.624 287.001 62.624L288.313 62.576L288.393 63.968C287.678 64.1067 287.134 64.176 286.761 64.176C285.854 64.176 285.23 63.968 284.889 63.552C284.558 63.136 284.393 62.352 284.393 61.2V57.488H283.369V56H284.393V53.68H286.121V56H288.329V57.488ZM295.455 62.56L295.903 62.512L295.935 63.808C294.719 64.0533 293.642 64.176 292.703 64.176C291.519 64.176 290.666 63.8507 290.143 63.2C289.631 62.5493 289.375 61.5093 289.375 60.08C289.375 57.2427 290.532 55.824 292.847 55.824C295.087 55.824 296.207 57.0453 296.207 59.488L296.095 60.736H291.135C291.146 61.3973 291.29 61.8827 291.567 62.192C291.844 62.5013 292.362 62.656 293.119 62.656C293.876 62.656 294.655 62.624 295.455 62.56ZM294.495 59.392C294.495 58.6027 294.367 58.0533 294.111 57.744C293.866 57.424 293.444 57.264 292.847 57.264C292.25 57.264 291.812 57.4293 291.535 57.76C291.268 58.0907 291.13 58.6347 291.119 59.392H294.495ZM297.116 56H298.972L300.54 58.768L302.124 56H303.98L301.596 59.936L303.98 64H302.124L300.54 61.264L298.972 64H297.116L299.436 59.984L297.116 56ZM309.61 57.488H307.402V61.008C307.402 61.6587 307.45 62.0907 307.546 62.304C307.642 62.5173 307.887 62.624 308.282 62.624L309.594 62.576L309.674 63.968C308.959 64.1067 308.415 64.176 308.042 64.176C307.135 64.176 306.511 63.968 306.17 63.552C305.839 63.136 305.674 62.352 305.674 61.2V57.488H304.65V56H305.674V53.68H307.402V56H309.61V57.488Z" fill="#0066CC"/>
<path d="M243 65.76H309.978V66.24H243V65.76Z" fill="#0066CC"/>
<path d="M341.408 64H335.264V53.04H337.04V62.416H341.408V64ZM348.57 58.464V62.112C348.58 62.3467 348.639 62.5227 348.746 62.64C348.863 62.7467 349.039 62.816 349.274 62.848L349.226 64.176C348.308 64.176 347.599 63.9787 347.098 63.584C346.244 63.9787 345.386 64.176 344.522 64.176C342.932 64.176 342.138 63.328 342.138 61.632C342.138 60.8213 342.351 60.2347 342.778 59.872C343.215 59.5093 343.882 59.2907 344.778 59.216L346.842 59.04V58.464C346.842 58.0373 346.746 57.7387 346.554 57.568C346.372 57.3973 346.1 57.312 345.738 57.312C345.055 57.312 344.202 57.3547 343.178 57.44L342.666 57.472L342.602 56.24C343.764 55.9627 344.831 55.824 345.802 55.824C346.783 55.824 347.487 56.0373 347.914 56.464C348.351 56.88 348.57 57.5467 348.57 58.464ZM344.986 60.448C344.25 60.512 343.882 60.912 343.882 61.648C343.882 62.384 344.207 62.752 344.858 62.752C345.391 62.752 345.956 62.6667 346.554 62.496L346.842 62.4V60.272L344.986 60.448ZM354.487 55.824C355.586 55.824 356.375 56.1333 356.855 56.752C357.346 57.36 357.591 58.4427 357.591 60C357.591 61.5573 357.303 62.6453 356.727 63.264C356.151 63.872 355.138 64.176 353.687 64.176C353.186 64.176 352.391 64.128 351.303 64.032L350.759 63.984V52.672H352.487V56.304C353.223 55.984 353.89 55.824 354.487 55.824ZM353.687 62.624C354.54 62.624 355.106 62.4267 355.383 62.032C355.671 61.6267 355.815 60.944 355.815 59.984C355.815 59.024 355.692 58.352 355.447 57.968C355.212 57.5733 354.823 57.376 354.279 57.376C353.767 57.376 353.255 57.456 352.743 57.616L352.487 57.696V62.56C353.074 62.6027 353.474 62.624 353.687 62.624ZM365.033 62.56L365.481 62.512L365.513 63.808C364.297 64.0533 363.22 64.176 362.281 64.176C361.097 64.176 360.244 63.8507 359.721 63.2C359.209 62.5493 358.953 61.5093 358.953 60.08C358.953 57.2427 360.111 55.824 362.425 55.824C364.665 55.824 365.785 57.0453 365.785 59.488L365.673 60.736H360.713C360.724 61.3973 360.868 61.8827 361.145 62.192C361.423 62.5013 361.94 62.656 362.697 62.656C363.455 62.656 364.233 62.624 365.033 62.56ZM364.073 59.392C364.073 58.6027 363.945 58.0533 363.689 57.744C363.444 57.424 363.023 57.264 362.425 57.264C361.828 57.264 361.391 57.4293 361.113 57.76C360.847 58.0907 360.708 58.6347 360.697 59.392H364.073ZM367.558 64V52.672H369.302V64H367.558ZM379.329 57.488H377.121V61.008C377.121 61.6587 377.169 62.0907 377.265 62.304C377.361 62.5173 377.606 62.624 378.001 62.624L379.313 62.576L379.393 63.968C378.678 64.1067 378.134 64.176 377.761 64.176C376.854 64.176 376.23 63.968 375.889 63.552C375.558 63.136 375.393 62.352 375.393 61.2V57.488H374.369V56H375.393V53.68H377.121V56H379.329V57.488ZM386.455 62.56L386.903 62.512L386.935 63.808C385.719 64.0533 384.642 64.176 383.703 64.176C382.519 64.176 381.666 63.8507 381.143 63.2C380.631 62.5493 380.375 61.5093 380.375 60.08C380.375 57.2427 381.532 55.824 383.847 55.824C386.087 55.824 387.207 57.0453 387.207 59.488L387.095 60.736H382.135C382.146 61.3973 382.29 61.8827 382.567 62.192C382.844 62.5013 383.362 62.656 384.119 62.656C384.876 62.656 385.655 62.624 386.455 62.56ZM385.495 59.392C385.495 58.6027 385.367 58.0533 385.111 57.744C384.866 57.424 384.444 57.264 383.847 57.264C383.25 57.264 382.812 57.4293 382.535 57.76C382.268 58.0907 382.13 58.6347 382.119 59.392H385.495ZM388.116 56H389.972L391.54 58.768L393.124 56H394.98L392.596 59.936L394.98 64H393.124L391.54 61.264L389.972 64H388.116L390.436 59.984L388.116 56ZM400.61 57.488H398.402V61.008C398.402 61.6587 398.45 62.0907 398.546 62.304C398.642 62.5173 398.887 62.624 399.282 62.624L400.594 62.576L400.674 63.968C399.959 64.1067 399.415 64.176 399.042 64.176C398.135 64.176 397.511 63.968 397.17 63.552C396.839 63.136 396.674 62.352 396.674 61.2V57.488H395.65V56H396.674V53.68H398.402V56H400.61V57.488Z" fill="#0066CC"/>
<path d="M334 65.76H400.978V66.24H334V65.76Z" fill="#0066CC"/>
<path d="M432.408 64H426.264V53.04H428.04V62.416H432.408V64ZM439.57 58.464V62.112C439.58 62.3467 439.639 62.5227 439.746 62.64C439.863 62.7467 440.039 62.816 440.274 62.848L440.226 64.176C439.308 64.176 438.599 63.9787 438.098 63.584C437.244 63.9787 436.386 64.176 435.522 64.176C433.932 64.176 433.138 63.328 433.138 61.632C433.138 60.8213 433.351 60.2347 433.778 59.872C434.215 59.5093 434.882 59.2907 435.778 59.216L437.842 59.04V58.464C437.842 58.0373 437.746 57.7387 437.554 57.568C437.372 57.3973 437.1 57.312 436.738 57.312C436.055 57.312 435.202 57.3547 434.178 57.44L433.666 57.472L433.602 56.24C434.764 55.9627 435.831 55.824 436.802 55.824C437.783 55.824 438.487 56.0373 438.914 56.464C439.351 56.88 439.57 57.5467 439.57 58.464ZM435.986 60.448C435.25 60.512 434.882 60.912 434.882 61.648C434.882 62.384 435.207 62.752 435.858 62.752C436.391 62.752 436.956 62.6667 437.554 62.496L437.842 62.4V60.272L435.986 60.448ZM445.487 55.824C446.586 55.824 447.375 56.1333 447.855 56.752C448.346 57.36 448.591 58.4427 448.591 60C448.591 61.5573 448.303 62.6453 447.727 63.264C447.151 63.872 446.138 64.176 444.687 64.176C444.186 64.176 443.391 64.128 442.303 64.032L441.759 63.984V52.672H443.487V56.304C444.223 55.984 444.89 55.824 445.487 55.824ZM444.687 62.624C445.54 62.624 446.106 62.4267 446.383 62.032C446.671 61.6267 446.815 60.944 446.815 59.984C446.815 59.024 446.692 58.352 446.447 57.968C446.212 57.5733 445.823 57.376 445.279 57.376C444.767 57.376 444.255 57.456 443.743 57.616L443.487 57.696V62.56C444.074 62.6027 444.474 62.624 444.687 62.624ZM456.033 62.56L456.481 62.512L456.513 63.808C455.297 64.0533 454.22 64.176 453.281 64.176C452.097 64.176 451.244 63.8507 450.721 63.2C450.209 62.5493 449.953 61.5093 449.953 60.08C449.953 57.2427 451.111 55.824 453.425 55.824C455.665 55.824 456.785 57.0453 456.785 59.488L456.673 60.736H451.713C451.724 61.3973 451.868 61.8827 452.145 62.192C452.423 62.5013 452.94 62.656 453.697 62.656C454.455 62.656 455.233 62.624 456.033 62.56ZM455.073 59.392C455.073 58.6027 454.945 58.0533 454.689 57.744C454.444 57.424 454.023 57.264 453.425 57.264C452.828 57.264 452.391 57.4293 452.113 57.76C451.847 58.0907 451.708 58.6347 451.697 59.392H455.073ZM458.558 64V52.672H460.302V64H458.558ZM470.329 57.488H468.121V61.008C468.121 61.6587 468.169 62.0907 468.265 62.304C468.361 62.5173 468.606 62.624 469.001 62.624L470.313 62.576L470.393 63.968C469.678 64.1067 469.134 64.176 468.761 64.176C467.854 64.176 467.23 63.968 466.889 63.552C466.558 63.136 466.393 62.352 466.393 61.2V57.488H465.369V56H466.393V53.68H468.121V56H470.329V57.488ZM477.455 62.56L477.903 62.512L477.935 63.808C476.719 64.0533 475.642 64.176 474.703 64.176C473.519 64.176 472.666 63.8507 472.143 63.2C471.631 62.5493 471.375 61.5093 471.375 60.08C471.375 57.2427 472.532 55.824 474.847 55.824C477.087 55.824 478.207 57.0453 478.207 59.488L478.095 60.736H473.135C473.146 61.3973 473.29 61.8827 473.567 62.192C473.844 62.5013 474.362 62.656 475.119 62.656C475.876 62.656 476.655 62.624 477.455 62.56ZM476.495 59.392C476.495 58.6027 476.367 58.0533 476.111 57.744C475.866 57.424 475.444 57.264 474.847 57.264C474.25 57.264 473.812 57.4293 473.535 57.76C473.268 58.0907 473.13 58.6347 473.119 59.392H476.495ZM479.116 56H480.972L482.54 58.768L484.124 56H485.98L483.596 59.936L485.98 64H484.124L482.54 61.264L480.972 64H479.116L481.436 59.984L479.116 56ZM491.61 57.488H489.402V61.008C489.402 61.6587 489.45 62.0907 489.546 62.304C489.642 62.5173 489.887 62.624 490.282 62.624L491.594 62.576L491.674 63.968C490.959 64.1067 490.415 64.176 490.042 64.176C489.135 64.176 488.511 63.968 488.17 63.552C487.839 63.136 487.674 62.352 487.674 61.2V57.488H486.65V56H487.674V53.68H489.402V56H491.61V57.488Z" fill="#0066CC"/>
<path d="M425 65.76H491.978V66.24H425V65.76Z" fill="#0066CC"/>
<path d="M523.408 64H517.264V53.04H519.04V62.416H523.408V64ZM530.57 58.464V62.112C530.58 62.3467 530.639 62.5227 530.746 62.64C530.863 62.7467 531.039 62.816 531.274 62.848L531.226 64.176C530.308 64.176 529.599 63.9787 529.098 63.584C528.244 63.9787 527.386 64.176 526.522 64.176C524.932 64.176 524.138 63.328 524.138 61.632C524.138 60.8213 524.351 60.2347 524.778 59.872C525.215 59.5093 525.882 59.2907 526.778 59.216L528.842 59.04V58.464C528.842 58.0373 528.746 57.7387 528.554 57.568C528.372 57.3973 528.1 57.312 527.738 57.312C527.055 57.312 526.202 57.3547 525.178 57.44L524.666 57.472L524.602 56.24C525.764 55.9627 526.831 55.824 527.802 55.824C528.783 55.824 529.487 56.0373 529.914 56.464C530.351 56.88 530.57 57.5467 530.57 58.464ZM526.986 60.448C526.25 60.512 525.882 60.912 525.882 61.648C525.882 62.384 526.207 62.752 526.858 62.752C527.391 62.752 527.956 62.6667 528.554 62.496L528.842 62.4V60.272L526.986 60.448ZM536.487 55.824C537.586 55.824 538.375 56.1333 538.855 56.752C539.346 57.36 539.591 58.4427 539.591 60C539.591 61.5573 539.303 62.6453 538.727 63.264C538.151 63.872 537.138 64.176 535.687 64.176C535.186 64.176 534.391 64.128 533.303 64.032L532.759 63.984V52.672H534.487V56.304C535.223 55.984 535.89 55.824 536.487 55.824ZM535.687 62.624C536.54 62.624 537.106 62.4267 537.383 62.032C537.671 61.6267 537.815 60.944 537.815 59.984C537.815 59.024 537.692 58.352 537.447 57.968C537.212 57.5733 536.823 57.376 536.279 57.376C535.767 57.376 535.255 57.456 534.743 57.616L534.487 57.696V62.56C535.074 62.6027 535.474 62.624 535.687 62.624ZM547.033 62.56L547.481 62.512L547.513 63.808C546.297 64.0533 545.22 64.176 544.281 64.176C543.097 64.176 542.244 63.8507 541.721 63.2C541.209 62.5493 540.953 61.5093 540.953 60.08C540.953 57.2427 542.111 55.824 544.425 55.824C546.665 55.824 547.785 57.0453 547.785 59.488L547.673 60.736H542.713C542.724 61.3973 542.868 61.8827 543.145 62.192C543.423 62.5013 543.94 62.656 544.697 62.656C545.455 62.656 546.233 62.624 547.033 62.56ZM546.073 59.392C546.073 58.6027 545.945 58.0533 545.689 57.744C545.444 57.424 545.023 57.264 544.425 57.264C543.828 57.264 543.391 57.4293 543.113 57.76C542.847 58.0907 542.708 58.6347 542.697 59.392H546.073ZM549.558 64V52.672H551.302V64H549.558ZM561.329 57.488H559.121V61.008C559.121 61.6587 559.169 62.0907 559.265 62.304C559.361 62.5173 559.606 62.624 560.001 62.624L561.313 62.576L561.393 63.968C560.678 64.1067 560.134 64.176 559.761 64.176C558.854 64.176 558.23 63.968 557.889 63.552C557.558 63.136 557.393 62.352 557.393 61.2V57.488H556.369V56H557.393V53.68H559.121V56H561.329V57.488ZM568.455 62.56L568.903 62.512L568.935 63.808C567.719 64.0533 566.642 64.176 565.703 64.176C564.519 64.176 563.666 63.8507 563.143 63.2C562.631 62.5493 562.375 61.5093 562.375 60.08C562.375 57.2427 563.532 55.824 565.847 55.824C568.087 55.824 569.207 57.0453 569.207 59.488L569.095 60.736H564.135C564.146 61.3973 564.29 61.8827 564.567 62.192C564.844 62.5013 565.362 62.656 566.119 62.656C566.876 62.656 567.655 62.624 568.455 62.56ZM567.495 59.392C567.495 58.6027 567.367 58.0533 567.111 57.744C566.866 57.424 566.444 57.264 565.847 57.264C565.25 57.264 564.812 57.4293 564.535 57.76C564.268 58.0907 564.13 58.6347 564.119 59.392H567.495ZM570.116 56H571.972L573.54 58.768L575.124 56H576.98L574.596 59.936L576.98 64H575.124L573.54 61.264L571.972 64H570.116L572.436 59.984L570.116 56ZM582.61 57.488H580.402V61.008C580.402 61.6587 580.45 62.0907 580.546 62.304C580.642 62.5173 580.887 62.624 581.282 62.624L582.594 62.576L582.674 63.968C581.959 64.1067 581.415 64.176 581.042 64.176C580.135 64.176 579.511 63.968 579.17 63.552C578.839 63.136 578.674 62.352 578.674 61.2V57.488H577.65V56H578.674V53.68H580.402V56H582.61V57.488Z" fill="#0066CC"/>
<path d="M516 65.76H582.978V66.24H516V65.76Z" fill="#0066CC"/>
<path d="M614.408 64H608.264V53.04H610.04V62.416H614.408V64ZM621.57 58.464V62.112C621.58 62.3467 621.639 62.5227 621.746 62.64C621.863 62.7467 622.039 62.816 622.274 62.848L622.226 64.176C621.308 64.176 620.599 63.9787 620.098 63.584C619.244 63.9787 618.386 64.176 617.522 64.176C615.932 64.176 615.138 63.328 615.138 61.632C615.138 60.8213 615.351 60.2347 615.778 59.872C616.215 59.5093 616.882 59.2907 617.778 59.216L619.842 59.04V58.464C619.842 58.0373 619.746 57.7387 619.554 57.568C619.372 57.3973 619.1 57.312 618.738 57.312C618.055 57.312 617.202 57.3547 616.178 57.44L615.666 57.472L615.602 56.24C616.764 55.9627 617.831 55.824 618.802 55.824C619.783 55.824 620.487 56.0373 620.914 56.464C621.351 56.88 621.57 57.5467 621.57 58.464ZM617.986 60.448C617.25 60.512 616.882 60.912 616.882 61.648C616.882 62.384 617.207 62.752 617.858 62.752C618.391 62.752 618.956 62.6667 619.554 62.496L619.842 62.4V60.272L617.986 60.448ZM627.487 55.824C628.586 55.824 629.375 56.1333 629.855 56.752C630.346 57.36 630.591 58.4427 630.591 60C630.591 61.5573 630.303 62.6453 629.727 63.264C629.151 63.872 628.138 64.176 626.687 64.176C626.186 64.176 625.391 64.128 624.303 64.032L623.759 63.984V52.672H625.487V56.304C626.223 55.984 626.89 55.824 627.487 55.824ZM626.687 62.624C627.54 62.624 628.106 62.4267 628.383 62.032C628.671 61.6267 628.815 60.944 628.815 59.984C628.815 59.024 628.692 58.352 628.447 57.968C628.212 57.5733 627.823 57.376 627.279 57.376C626.767 57.376 626.255 57.456 625.743 57.616L625.487 57.696V62.56C626.074 62.6027 626.474 62.624 626.687 62.624ZM638.033 62.56L638.481 62.512L638.513 63.808C637.297 64.0533 636.22 64.176 635.281 64.176C634.097 64.176 633.244 63.8507 632.721 63.2C632.209 62.5493 631.953 61.5093 631.953 60.08C631.953 57.2427 633.111 55.824 635.425 55.824C637.665 55.824 638.785 57.0453 638.785 59.488L638.673 60.736H633.713C633.724 61.3973 633.868 61.8827 634.145 62.192C634.423 62.5013 634.94 62.656 635.697 62.656C636.455 62.656 637.233 62.624 638.033 62.56ZM637.073 59.392C637.073 58.6027 636.945 58.0533 636.689 57.744C636.444 57.424 636.023 57.264 635.425 57.264C634.828 57.264 634.391 57.4293 634.113 57.76C633.847 58.0907 633.708 58.6347 633.697 59.392H637.073ZM640.558 64V52.672H642.302V64H640.558ZM652.329 57.488H650.121V61.008C650.121 61.6587 650.169 62.0907 650.265 62.304C650.361 62.5173 650.606 62.624 651.001 62.624L652.313 62.576L652.393 63.968C651.678 64.1067 651.134 64.176 650.761 64.176C649.854 64.176 649.23 63.968 648.889 63.552C648.558 63.136 648.393 62.352 648.393 61.2V57.488H647.369V56H648.393V53.68H650.121V56H652.329V57.488ZM659.455 62.56L659.903 62.512L659.935 63.808C658.719 64.0533 657.642 64.176 656.703 64.176C655.519 64.176 654.666 63.8507 654.143 63.2C653.631 62.5493 653.375 61.5093 653.375 60.08C653.375 57.2427 654.532 55.824 656.847 55.824C659.087 55.824 660.207 57.0453 660.207 59.488L660.095 60.736H655.135C655.146 61.3973 655.29 61.8827 655.567 62.192C655.844 62.5013 656.362 62.656 657.119 62.656C657.876 62.656 658.655 62.624 659.455 62.56ZM658.495 59.392C658.495 58.6027 658.367 58.0533 658.111 57.744C657.866 57.424 657.444 57.264 656.847 57.264C656.25 57.264 655.812 57.4293 655.535 57.76C655.268 58.0907 655.13 58.6347 655.119 59.392H658.495ZM661.116 56H662.972L664.54 58.768L666.124 56H667.98L665.596 59.936L667.98 64H666.124L664.54 61.264L662.972 64H661.116L663.436 59.984L661.116 56ZM673.61 57.488H671.402V61.008C671.402 61.6587 671.45 62.0907 671.546 62.304C671.642 62.5173 671.887 62.624 672.282 62.624L673.594 62.576L673.674 63.968C672.959 64.1067 672.415 64.176 672.042 64.176C671.135 64.176 670.511 63.968 670.17 63.552C669.839 63.136 669.674 62.352 669.674 61.2V57.488H668.65V56H669.674V53.68H671.402V56H673.61V57.488Z" fill="#0066CC"/>
<path d="M607 65.76H673.978V66.24H607V65.76Z" fill="#0066CC"/>
<path d="M705.408 64H699.264V53.04H701.04V62.416H705.408V64ZM712.57 58.464V62.112C712.58 62.3467 712.639 62.5227 712.746 62.64C712.863 62.7467 713.039 62.816 713.274 62.848L713.226 64.176C712.308 64.176 711.599 63.9787 711.098 63.584C710.244 63.9787 709.386 64.176 708.522 64.176C706.932 64.176 706.138 63.328 706.138 61.632C706.138 60.8213 706.351 60.2347 706.778 59.872C707.215 59.5093 707.882 59.2907 708.778 59.216L710.842 59.04V58.464C710.842 58.0373 710.746 57.7387 710.554 57.568C710.372 57.3973 710.1 57.312 709.738 57.312C709.055 57.312 708.202 57.3547 707.178 57.44L706.666 57.472L706.602 56.24C707.764 55.9627 708.831 55.824 709.802 55.824C710.783 55.824 711.487 56.0373 711.914 56.464C712.351 56.88 712.57 57.5467 712.57 58.464ZM708.986 60.448C708.25 60.512 707.882 60.912 707.882 61.648C707.882 62.384 708.207 62.752 708.858 62.752C709.391 62.752 709.956 62.6667 710.554 62.496L710.842 62.4V60.272L708.986 60.448ZM718.487 55.824C719.586 55.824 720.375 56.1333 720.855 56.752C721.346 57.36 721.591 58.4427 721.591 60C721.591 61.5573 721.303 62.6453 720.727 63.264C720.151 63.872 719.138 64.176 717.687 64.176C717.186 64.176 716.391 64.128 715.303 64.032L714.759 63.984V52.672H716.487V56.304C717.223 55.984 717.89 55.824 718.487 55.824ZM717.687 62.624C718.54 62.624 719.106 62.4267 719.383 62.032C719.671 61.6267 719.815 60.944 719.815 59.984C719.815 59.024 719.692 58.352 719.447 57.968C719.212 57.5733 718.823 57.376 718.279 57.376C717.767 57.376 717.255 57.456 716.743 57.616L716.487 57.696V62.56C717.074 62.6027 717.474 62.624 717.687 62.624ZM729.033 62.56L729.481 62.512L729.513 63.808C728.297 64.0533 727.22 64.176 726.281 64.176C725.097 64.176 724.244 63.8507 723.721 63.2C723.209 62.5493 722.953 61.5093 722.953 60.08C722.953 57.2427 724.111 55.824 726.425 55.824C728.665 55.824 729.785 57.0453 729.785 59.488L729.673 60.736H724.713C724.724 61.3973 724.868 61.8827 725.145 62.192C725.423 62.5013 725.94 62.656 726.697 62.656C727.455 62.656 728.233 62.624 729.033 62.56ZM728.073 59.392C728.073 58.6027 727.945 58.0533 727.689 57.744C727.444 57.424 727.023 57.264 726.425 57.264C725.828 57.264 725.391 57.4293 725.113 57.76C724.847 58.0907 724.708 58.6347 724.697 59.392H728.073ZM731.558 64V52.672H733.302V64H731.558ZM743.329 57.488H741.121V61.008C741.121 61.6587 741.169 62.0907 741.265 62.304C741.361 62.5173 741.606 62.624 742.001 62.624L743.313 62.576L743.393 63.968C742.678 64.1067 742.134 64.176 741.761 64.176C740.854 64.176 740.23 63.968 739.889 63.552C739.558 63.136 739.393 62.352 739.393 61.2V57.488H738.369V56H739.393V53.68H741.121V56H743.329V57.488ZM750.455 62.56L750.903 62.512L750.935 63.808C749.719 64.0533 748.642 64.176 747.703 64.176C746.519 64.176 745.666 63.8507 745.143 63.2C744.631 62.5493 744.375 61.5093 744.375 60.08C744.375 57.2427 745.532 55.824 747.847 55.824C750.087 55.824 751.207 57.0453 751.207 59.488L751.095 60.736H746.135C746.146 61.3973 746.29 61.8827 746.567 62.192C746.844 62.5013 747.362 62.656 748.119 62.656C748.876 62.656 749.655 62.624 750.455 62.56ZM749.495 59.392C749.495 58.6027 749.367 58.0533 749.111 57.744C748.866 57.424 748.444 57.264 747.847 57.264C747.25 57.264 746.812 57.4293 746.535 57.76C746.268 58.0907 746.13 58.6347 746.119 59.392H749.495ZM752.116 56H753.972L755.54 58.768L757.124 56H758.98L756.596 59.936L758.98 64H757.124L755.54 61.264L753.972 64H752.116L754.436 59.984L752.116 56ZM764.61 57.488H762.402V61.008C762.402 61.6587 762.45 62.0907 762.546 62.304C762.642 62.5173 762.887 62.624 763.282 62.624L764.594 62.576L764.674 63.968C763.959 64.1067 763.415 64.176 763.042 64.176C762.135 64.176 761.511 63.968 761.17 63.552C760.839 63.136 760.674 62.352 760.674 61.2V57.488H759.65V56H760.674V53.68H762.402V56H764.61V57.488Z" fill="#0066CC"/>
<path d="M698 65.76H764.978V66.24H698V65.76Z" fill="#0066CC"/>
<rect width="1320" height="96" transform="translate(1 80)" fill="white"/>
<path d="M61 108C61 105.791 62.7909 104 65 104H237C239.209 104 241 105.791 241 108V148C241 150.209 239.209 152 237 152H65C62.7909 152 61 150.209 61 148V108Z" fill="#F1F5F9"/>
<path d="M91.147 133H85.771V123.41H87.325V131.614H91.147V133ZM93.9175 130.97C94.2348 131.521 94.8415 131.796 95.7375 131.796C96.6335 131.796 97.2355 131.525 97.5435 130.984C97.8608 130.443 98.0195 129.537 98.0195 128.268C98.0195 126.989 97.8562 126.061 97.5295 125.482C97.2122 124.903 96.6148 124.614 95.7375 124.614C94.8602 124.614 94.2582 124.903 93.9315 125.482C93.6048 126.061 93.4415 126.985 93.4415 128.254C93.4415 129.514 93.6002 130.419 93.9175 130.97ZM98.7615 131.978C98.1922 132.762 97.1842 133.154 95.7375 133.154C94.2908 133.154 93.2782 132.762 92.6995 131.978C92.1208 131.185 91.8315 129.943 91.8315 128.254C91.8315 126.565 92.1208 125.309 92.6995 124.488C93.2875 123.667 94.3002 123.256 95.7375 123.256C97.1748 123.256 98.1828 123.667 98.7615 124.488C99.3402 125.3 99.6295 126.555 99.6295 128.254C99.6295 129.953 99.3402 131.194 98.7615 131.978ZM105.345 129.332V127.96H108.075V132.832C107.823 132.897 107.31 132.967 106.535 133.042C105.77 133.117 105.214 133.154 104.869 133.154C103.413 133.154 102.41 132.753 101.859 131.95C101.308 131.147 101.033 129.892 101.033 128.184C101.033 126.467 101.313 125.216 101.873 124.432C102.442 123.648 103.422 123.256 104.813 123.256C105.634 123.256 106.558 123.349 107.585 123.536L108.075 123.634L108.019 124.866C106.89 124.717 105.877 124.642 104.981 124.642C104.085 124.642 103.469 124.894 103.133 125.398C102.806 125.902 102.643 126.835 102.643 128.198C102.643 129.561 102.797 130.503 103.105 131.026C103.422 131.539 104.057 131.796 105.009 131.796C105.69 131.796 106.199 131.754 106.535 131.67V129.332H105.345ZM111.691 130.97C112.008 131.521 112.615 131.796 113.511 131.796C114.407 131.796 115.009 131.525 115.317 130.984C115.634 130.443 115.793 129.537 115.793 128.268C115.793 126.989 115.63 126.061 115.303 125.482C114.986 124.903 114.388 124.614 113.511 124.614C112.634 124.614 112.032 124.903 111.705 125.482C111.378 126.061 111.215 126.985 111.215 128.254C111.215 129.514 111.374 130.419 111.691 130.97ZM116.535 131.978C115.966 132.762 114.958 133.154 113.511 133.154C112.064 133.154 111.052 132.762 110.473 131.978C109.894 131.185 109.605 129.943 109.605 128.254C109.605 126.565 109.894 125.309 110.473 124.488C111.061 123.667 112.074 123.256 113.511 123.256C114.948 123.256 115.956 123.667 116.535 124.488C117.114 125.3 117.403 126.555 117.403 128.254C117.403 129.953 117.114 131.194 116.535 131.978ZM121.463 133L123.829 123.41H126.923L129.303 133H127.735L127.217 130.942H123.535L123.017 133H121.463ZM125.033 124.712L123.843 129.57H126.909L125.733 124.712H125.033ZM132.223 129.584V133H130.669V123.41H134.309C136.475 123.41 137.557 124.427 137.557 126.462C137.557 127.825 137.035 128.749 135.989 129.234L137.571 133H135.863L134.477 129.584H132.223ZM135.961 126.476C135.961 125.328 135.411 124.754 134.309 124.754H132.223V128.24H134.337C134.897 128.24 135.308 128.081 135.569 127.764C135.831 127.437 135.961 127.008 135.961 126.476ZM139.324 133V123.41H145.372V124.768H140.878V127.484H144.532V128.828H140.878V131.628H145.372V133H139.324ZM146.236 133L148.602 123.41H151.696L154.076 133H152.508L151.99 130.942H148.308L147.79 133H146.236ZM149.806 124.712L148.616 129.57H151.682L150.506 124.712H149.806ZM162.033 130.018H160.073V133H158.519V123.41H162.033C164.208 123.41 165.295 124.483 165.295 126.63C165.295 127.731 165.02 128.571 164.469 129.15C163.928 129.729 163.116 130.018 162.033 130.018ZM160.073 128.674H162.019C163.139 128.674 163.699 127.993 163.699 126.63C163.699 125.977 163.564 125.501 163.293 125.202C163.022 124.903 162.598 124.754 162.019 124.754H160.073V128.674ZM168.275 129.934C168.275 131.175 168.928 131.796 170.235 131.796C171.541 131.796 172.195 131.175 172.195 129.934V123.41H173.763V129.906C173.763 131.035 173.464 131.861 172.867 132.384C172.279 132.897 171.397 133.154 170.221 133.154C169.054 133.154 168.177 132.897 167.589 132.384C167.001 131.861 166.707 131.035 166.707 129.906V123.41H168.275V129.934ZM175.896 123.41H179.536C180.516 123.41 181.249 123.611 181.734 124.012C182.219 124.404 182.462 125.034 182.462 125.902C182.462 126.471 182.369 126.919 182.182 127.246C182.005 127.573 181.72 127.843 181.328 128.058C182.243 128.413 182.7 129.155 182.7 130.284C182.7 132.095 181.683 133 179.648 133H175.896V123.41ZM179.536 128.814H177.45V131.656H179.564C180.077 131.656 180.46 131.549 180.712 131.334C180.973 131.119 181.104 130.751 181.104 130.228C181.104 129.705 180.955 129.341 180.656 129.136C180.357 128.921 179.984 128.814 179.536 128.814ZM179.452 124.754H177.45V127.498H179.508C180.423 127.498 180.88 127.027 180.88 126.084C180.88 125.197 180.404 124.754 179.452 124.754ZM184.468 123.41H188.108C189.088 123.41 189.821 123.611 190.306 124.012C190.792 124.404 191.034 125.034 191.034 125.902C191.034 126.471 190.941 126.919 190.754 127.246C190.577 127.573 190.292 127.843 189.9 128.058C190.815 128.413 191.272 129.155 191.272 130.284C191.272 132.095 190.255 133 188.22 133H184.468V123.41ZM188.108 128.814H186.022V131.656H188.136C188.65 131.656 189.032 131.549 189.284 131.334C189.546 131.119 189.676 130.751 189.676 130.228C189.676 129.705 189.527 129.341 189.228 129.136C188.93 128.921 188.556 128.814 188.108 128.814ZM188.024 124.754H186.022V127.498H188.08C188.995 127.498 189.452 127.027 189.452 126.084C189.452 125.197 188.976 124.754 188.024 124.754ZM198.417 133H193.041V123.41H194.595V131.614H198.417V133ZM199.685 133V123.41H201.239V133H199.685ZM206.665 133.154C205.265 133.154 204.313 132.767 203.809 131.992C203.314 131.217 203.067 129.943 203.067 128.17C203.067 126.397 203.319 125.137 203.823 124.39C204.327 123.634 205.274 123.256 206.665 123.256C207.496 123.256 208.41 123.373 209.409 123.606L209.353 124.866C208.513 124.717 207.673 124.642 206.833 124.642C205.993 124.642 205.424 124.894 205.125 125.398C204.826 125.893 204.677 126.831 204.677 128.212C204.677 129.584 204.822 130.522 205.111 131.026C205.4 131.521 205.965 131.768 206.805 131.768C207.645 131.768 208.494 131.698 209.353 131.558L209.395 132.846C208.434 133.051 207.524 133.154 206.665 133.154ZM210.234 133L212.6 123.41H215.694L218.074 133H216.506L215.988 130.942H212.306L211.788 133H210.234ZM213.804 124.712L212.614 129.57H215.68L214.504 124.712H213.804Z" fill="#0066CC"/>
<path d="M912.5 108C912.5 106.067 914.067 104.5 916 104.5H1079C1080.93 104.5 1082.5 106.067 1082.5 108V148C1082.5 149.933 1080.93 151.5 1079 151.5H916C914.067 151.5 912.5 149.933 912.5 148V108Z" stroke="#0066CC"/>
<path d="M924.349 124.624V123.04H932.349V124.624H929.261V134H927.469V124.624H924.349ZM938.049 132.56L938.497 132.512L938.529 133.808C937.313 134.053 936.236 134.176 935.297 134.176C934.113 134.176 933.26 133.851 932.737 133.2C932.225 132.549 931.969 131.509 931.969 130.08C931.969 127.243 933.126 125.824 935.441 125.824C937.681 125.824 938.801 127.045 938.801 129.488L938.689 130.736H933.729C933.74 131.397 933.884 131.883 934.161 132.192C934.438 132.501 934.956 132.656 935.713 132.656C936.47 132.656 937.249 132.624 938.049 132.56ZM937.089 129.392C937.089 128.603 936.961 128.053 936.705 127.744C936.46 127.424 936.038 127.264 935.441 127.264C934.844 127.264 934.406 127.429 934.129 127.76C933.862 128.091 933.724 128.635 933.713 129.392H937.089ZM946.03 127.648C944.771 127.477 943.859 127.392 943.294 127.392C942.729 127.392 942.334 127.461 942.11 127.6C941.897 127.728 941.79 127.936 941.79 128.224C941.79 128.512 941.907 128.715 942.142 128.832C942.387 128.949 942.953 129.088 943.838 129.248C944.734 129.397 945.369 129.637 945.742 129.968C946.115 130.299 946.302 130.885 946.302 131.728C946.302 132.571 946.03 133.189 945.486 133.584C944.953 133.979 944.169 134.176 943.134 134.176C942.483 134.176 941.662 134.085 940.67 133.904L940.174 133.824L940.238 132.368C941.518 132.539 942.441 132.624 943.006 132.624C943.571 132.624 943.971 132.555 944.206 132.416C944.451 132.277 944.574 132.048 944.574 131.728C944.574 131.408 944.457 131.189 944.222 131.072C943.998 130.944 943.449 130.811 942.574 130.672C941.71 130.523 941.075 130.293 940.67 129.984C940.265 129.675 940.062 129.109 940.062 128.288C940.062 127.467 940.339 126.853 940.894 126.448C941.459 126.043 942.179 125.84 943.054 125.84C943.737 125.84 944.574 125.925 945.566 126.096L946.062 126.192L946.03 127.648ZM952.282 127.488H950.074V131.008C950.074 131.659 950.122 132.091 950.218 132.304C950.314 132.517 950.559 132.624 950.954 132.624L952.266 132.576L952.346 133.968C951.631 134.107 951.087 134.176 950.714 134.176C949.807 134.176 949.183 133.968 948.842 133.552C948.511 133.136 948.346 132.352 948.346 131.2V127.488H947.322V126H948.346V123.68H950.074V126H952.282V127.488ZM954.144 126.864C954.699 126.171 955.616 125.824 956.896 125.824C958.176 125.824 959.088 126.171 959.632 126.864C960.187 127.557 960.464 128.597 960.464 129.984C960.464 131.371 960.198 132.416 959.664 133.12C959.131 133.824 958.208 134.176 956.896 134.176C955.584 134.176 954.662 133.824 954.128 133.12C953.595 132.416 953.328 131.371 953.328 129.984C953.328 128.597 953.6 127.557 954.144 126.864ZM955.456 132.064C955.702 132.491 956.182 132.704 956.896 132.704C957.611 132.704 958.091 132.491 958.336 132.064C958.582 131.637 958.704 130.939 958.704 129.968C958.704 128.997 958.571 128.309 958.304 127.904C958.048 127.499 957.579 127.296 956.896 127.296C956.214 127.296 955.739 127.499 955.472 127.904C955.216 128.309 955.088 128.997 955.088 129.968C955.088 130.939 955.211 131.637 955.456 132.064ZM972.24 122.672V134H970.512V133.584C969.734 133.979 969.019 134.176 968.368 134.176C967.323 134.176 966.555 133.861 966.064 133.232C965.584 132.603 965.344 131.547 965.344 130.064C965.344 128.581 965.611 127.504 966.144 126.832C966.688 126.16 967.531 125.824 968.672 125.824C969.056 125.824 969.664 125.893 970.496 126.032V122.672H972.24ZM970.224 132.336L970.496 132.224V127.488C969.856 127.381 969.264 127.328 968.72 127.328C967.643 127.328 967.104 128.224 967.104 130.016C967.104 130.997 967.227 131.68 967.472 132.064C967.728 132.437 968.128 132.624 968.672 132.624C969.216 132.624 969.734 132.528 970.224 132.336ZM980.049 132.56L980.497 132.512L980.529 133.808C979.313 134.053 978.236 134.176 977.297 134.176C976.113 134.176 975.26 133.851 974.737 133.2C974.225 132.549 973.969 131.509 973.969 130.08C973.969 127.243 975.126 125.824 977.441 125.824C979.681 125.824 980.801 127.045 980.801 129.488L980.689 130.736H975.729C975.74 131.397 975.884 131.883 976.161 132.192C976.438 132.501 976.956 132.656 977.713 132.656C978.47 132.656 979.249 132.624 980.049 132.56ZM979.089 129.392C979.089 128.603 978.961 128.053 978.705 127.744C978.46 127.424 978.038 127.264 977.441 127.264C976.844 127.264 976.406 127.429 976.129 127.76C975.862 128.091 975.724 128.635 975.713 129.392H979.089ZM982.574 134V122.672H984.318V134H982.574ZM993.768 125.824C994.867 125.824 995.656 126.133 996.136 126.752C996.627 127.36 996.872 128.443 996.872 130C996.872 131.557 996.584 132.645 996.008 133.264C995.432 133.872 994.419 134.176 992.968 134.176C992.467 134.176 991.672 134.128 990.584 134.032L990.04 133.984V122.672H991.768V126.304C992.504 125.984 993.171 125.824 993.768 125.824ZM992.968 132.624C993.822 132.624 994.387 132.427 994.664 132.032C994.952 131.627 995.096 130.944 995.096 129.984C995.096 129.024 994.974 128.352 994.728 127.968C994.494 127.573 994.104 127.376 993.56 127.376C993.048 127.376 992.536 127.456 992.024 127.616L991.768 127.696V132.56C992.355 132.603 992.755 132.624 992.968 132.624ZM999.051 126.864C999.605 126.171 1000.52 125.824 1001.8 125.824C1003.08 125.824 1003.99 126.171 1004.54 126.864C1005.09 127.557 1005.37 128.597 1005.37 129.984C1005.37 131.371 1005.1 132.416 1004.57 133.12C1004.04 133.824 1003.11 134.176 1001.8 134.176C1000.49 134.176 999.568 133.824 999.035 133.12C998.501 132.416 998.235 131.371 998.235 129.984C998.235 128.597 998.507 127.557 999.051 126.864ZM1000.36 132.064C1000.61 132.491 1001.09 132.704 1001.8 132.704C1002.52 132.704 1003 132.491 1003.24 132.064C1003.49 131.637 1003.61 130.939 1003.61 129.968C1003.61 128.997 1003.48 128.309 1003.21 127.904C1002.95 127.499 1002.49 127.296 1001.8 127.296C1001.12 127.296 1000.65 127.499 1000.38 127.904C1000.12 128.309 999.995 128.997 999.995 129.968C999.995 130.939 1000.12 131.637 1000.36 132.064ZM1011.41 127.488H1009.2V131.008C1009.2 131.659 1009.25 132.091 1009.34 132.304C1009.44 132.517 1009.68 132.624 1010.08 132.624L1011.39 132.576L1011.47 133.968C1010.76 134.107 1010.21 134.176 1009.84 134.176C1008.93 134.176 1008.31 133.968 1007.97 133.552C1007.64 133.136 1007.47 132.352 1007.47 131.2V127.488H1006.45V126H1007.47V123.68H1009.2V126H1011.41V127.488ZM1017.14 127.488H1014.93V131.008C1014.93 131.659 1014.98 132.091 1015.08 132.304C1015.17 132.517 1015.42 132.624 1015.81 132.624L1017.13 132.576L1017.21 133.968C1016.49 134.107 1015.95 134.176 1015.57 134.176C1014.67 134.176 1014.04 133.968 1013.7 133.552C1013.37 133.136 1013.21 132.352 1013.21 131.2V127.488H1012.18V126H1013.21V123.68H1014.93V126H1017.14V127.488ZM1019 126.864C1019.56 126.171 1020.48 125.824 1021.76 125.824C1023.04 125.824 1023.95 126.171 1024.49 126.864C1025.05 127.557 1025.32 128.597 1025.32 129.984C1025.32 131.371 1025.06 132.416 1024.52 133.12C1023.99 133.824 1023.07 134.176 1021.76 134.176C1020.44 134.176 1019.52 133.824 1018.99 133.12C1018.45 132.416 1018.19 131.371 1018.19 129.984C1018.19 128.597 1018.46 127.557 1019 126.864ZM1020.32 132.064C1020.56 132.491 1021.04 132.704 1021.76 132.704C1022.47 132.704 1022.95 132.491 1023.2 132.064C1023.44 131.637 1023.56 130.939 1023.56 129.968C1023.56 128.997 1023.43 128.309 1023.16 127.904C1022.91 127.499 1022.44 127.296 1021.76 127.296C1021.07 127.296 1020.6 127.499 1020.33 127.904C1020.08 128.309 1019.95 128.997 1019.95 129.968C1019.95 130.939 1020.07 131.637 1020.32 132.064ZM1028.8 134H1027.06V126H1028.78V126.496C1029.56 126.048 1030.3 125.824 1030.99 125.824C1032.06 125.824 1032.78 126.128 1033.17 126.736C1033.56 127.333 1033.76 128.325 1033.76 129.712V134H1032.03V129.76C1032.03 128.896 1031.94 128.283 1031.74 127.92C1031.56 127.557 1031.18 127.376 1030.61 127.376C1030.06 127.376 1029.54 127.483 1029.04 127.696L1028.8 127.792V134ZM1041.49 132.56L1041.93 132.512L1041.97 133.808C1040.75 134.053 1039.67 134.176 1038.73 134.176C1037.55 134.176 1036.7 133.851 1036.17 133.2C1035.66 132.549 1035.41 131.509 1035.41 130.08C1035.41 127.243 1036.56 125.824 1038.88 125.824C1041.12 125.824 1042.24 127.045 1042.24 129.488L1042.13 130.736H1037.17C1037.18 131.397 1037.32 131.883 1037.6 132.192C1037.88 132.501 1038.39 132.656 1039.15 132.656C1039.91 132.656 1040.69 132.624 1041.49 132.56ZM1040.53 129.392C1040.53 128.603 1040.4 128.053 1040.14 127.744C1039.9 127.424 1039.48 127.264 1038.88 127.264C1038.28 127.264 1037.84 127.429 1037.57 127.76C1037.3 128.091 1037.16 128.635 1037.15 129.392H1040.53Z" fill="#0066CC"/>
<path d="M1061.83 127.165L1068.67 120.332" stroke="#0066CC" stroke-width="1.5" stroke-linecap="round" stroke-linejoin="round"/>
<path d="M1069.33 123.668V119.668H1065.33" fill="#0066CC"/>
<path d="M1069.33 123.668V119.668H1065.33" stroke="#0066CC" stroke-width="1.5" stroke-linecap="round" stroke-linejoin="round"/>
<path d="M1060.17 119.668H1058.5C1054.33 119.668 1052.67 121.335 1052.67 125.501V130.501C1052.67 134.668 1054.33 136.335 1058.5 136.335H1063.5C1067.67 136.335 1069.33 134.668 1069.33 130.501V128.835" stroke="#0066CC" stroke-width="1.5" stroke-linecap="round" stroke-linejoin="round"/>
<rect x="1095" y="152" width="48" height="1" rx="0.5" transform="rotate(-90 1095 152)" fill="#CBD5E1"/>
<path d="M1108 108C1108 105.791 1109.79 104 1112 104H1201C1203.21 104 1205 105.791 1205 108V148C1205 150.209 1203.21 152 1201 152H1112C1109.79 152 1108 150.209 1108 148V108Z" fill="#0066CC"/>
<path d="M1130 128.001C1132.3 128.001 1134.17 126.136 1134.17 123.835C1134.17 121.533 1132.3 119.668 1130 119.668C1127.7 119.668 1125.83 121.533 1125.83 123.835C1125.83 126.136 1127.7 128.001 1130 128.001Z" fill="white"/>
<path d="M1130 130.082C1125.82 130.082 1122.42 132.882 1122.42 136.332C1122.42 136.565 1122.61 136.749 1122.84 136.749H1137.16C1137.39 136.749 1137.57 136.565 1137.57 136.332C1137.57 132.882 1134.17 130.082 1130 130.082Z" fill="white"/>
<path d="M1148.76 134L1151.46 123.04H1155L1157.72 134H1155.93L1155.33 131.648H1151.13L1150.53 134H1148.76ZM1152.84 124.528L1151.48 130.08H1154.98L1153.64 124.528H1152.84ZM1161.99 125.824C1162.55 125.824 1163.22 125.899 1163.99 126.048L1164.39 126.128L1164.32 127.504C1163.48 127.419 1162.85 127.376 1162.45 127.376C1161.64 127.376 1161.09 127.557 1160.82 127.92C1160.54 128.283 1160.4 128.965 1160.4 129.968C1160.4 130.971 1160.53 131.664 1160.8 132.048C1161.07 132.432 1161.62 132.624 1162.47 132.624L1164.34 132.496L1164.39 133.888C1163.31 134.08 1162.5 134.176 1161.95 134.176C1160.74 134.176 1159.88 133.851 1159.38 133.2C1158.89 132.539 1158.64 131.461 1158.64 129.968C1158.64 128.475 1158.9 127.413 1159.43 126.784C1159.95 126.144 1160.8 125.824 1161.99 125.824ZM1168.99 125.824C1169.55 125.824 1170.22 125.899 1170.99 126.048L1171.39 126.128L1171.32 127.504C1170.48 127.419 1169.85 127.376 1169.45 127.376C1168.64 127.376 1168.09 127.557 1167.82 127.92C1167.54 128.283 1167.4 128.965 1167.4 129.968C1167.4 130.971 1167.53 131.664 1167.8 132.048C1168.07 132.432 1168.62 132.624 1169.47 132.624L1171.34 132.496L1171.39 133.888C1170.31 134.08 1169.5 134.176 1168.95 134.176C1167.74 134.176 1166.88 133.851 1166.38 133.2C1165.89 132.539 1165.64 131.461 1165.64 129.968C1165.64 128.475 1165.9 127.413 1166.43 126.784C1166.95 126.144 1167.8 125.824 1168.99 125.824ZM1178.69 132.56L1179.14 132.512L1179.17 133.808C1177.95 134.053 1176.88 134.176 1175.94 134.176C1174.75 134.176 1173.9 133.851 1173.38 133.2C1172.87 132.549 1172.61 131.509 1172.61 130.08C1172.61 127.243 1173.77 125.824 1176.08 125.824C1178.32 125.824 1179.44 127.045 1179.44 129.488L1179.33 130.736H1174.37C1174.38 131.397 1174.52 131.883 1174.8 132.192C1175.08 132.501 1175.6 132.656 1176.35 132.656C1177.11 132.656 1177.89 132.624 1178.69 132.56ZM1177.73 129.392C1177.73 128.603 1177.6 128.053 1177.35 127.744C1177.1 127.424 1176.68 127.264 1176.08 127.264C1175.48 127.264 1175.05 127.429 1174.77 127.76C1174.5 128.091 1174.36 128.635 1174.35 129.392H1177.73ZM1187.65 122.672V134H1185.92V133.584C1185.14 133.979 1184.43 134.176 1183.77 134.176C1182.73 134.176 1181.96 133.861 1181.47 133.232C1180.99 132.603 1180.75 131.547 1180.75 130.064C1180.75 128.581 1181.02 127.504 1181.55 126.832C1182.09 126.16 1182.94 125.824 1184.08 125.824C1184.46 125.824 1185.07 125.893 1185.9 126.032V122.672H1187.65ZM1185.63 132.336L1185.9 132.224V127.488C1185.26 127.381 1184.67 127.328 1184.13 127.328C1183.05 127.328 1182.51 128.224 1182.51 130.016C1182.51 130.997 1182.63 131.68 1182.88 132.064C1183.13 132.437 1183.53 132.624 1184.08 132.624C1184.62 132.624 1185.14 132.528 1185.63 132.336ZM1189.76 134V126H1191.5V134H1189.76ZM1189.76 124.64V122.8H1191.5V124.64H1189.76Z" fill="white"/>
<path d="M1217.5 108C1217.5 106.067 1219.07 104.5 1221 104.5H1257C1258.93 104.5 1260.5 106.067 1260.5 108V148C1260.5 149.933 1258.93 151.5 1257 151.5H1221C1219.07 151.5 1217.5 149.933 1217.5 148V108Z" stroke="#0066CC"/>
<path d="M1233.17 126.332C1232.25 126.332 1231.5 127.082 1231.5 127.999C1231.5 128.915 1232.25 129.665 1233.17 129.665C1234.08 129.665 1234.83 128.915 1234.83 127.999C1234.83 127.082 1234.08 126.332 1233.17 126.332Z" fill="#0066CC" stroke="#0066CC" stroke-width="0.3"/>
<path d="M1244.83 126.332C1243.92 126.332 1243.17 127.082 1243.17 127.999C1243.17 128.915 1243.92 129.665 1244.83 129.665C1245.75 129.665 1246.5 128.915 1246.5 127.999C1246.5 127.082 1245.75 126.332 1244.83 126.332Z" fill="#0066CC" stroke="#0066CC" stroke-width="0.3"/>
<path d="M1239 126.332C1238.08 126.332 1237.33 127.082 1237.33 127.999C1237.33 128.915 1238.08 129.665 1239 129.665C1239.92 129.665 1240.67 128.915 1240.67 127.999C1240.67 127.082 1239.92 126.332 1239 126.332Z" fill="#0066CC" stroke="#0066CC" stroke-width="0.3"/>
<g filter="url(#filter0_b_888_42011)">
<mask id="path-28-inside-1_888_42011" fill="white">
<path d="M1 176H1321V249H1V176Z"/>
</mask>
<path d="M1 176H1321V249H1V176Z" fill="white"/>
<path d="M1321 248H1V250H1321V248Z" fill="#CBD5E1" mask="url(#path-28-inside-1_888_42011)"/>
<rect x="61" y="176" width="1200" height="1" rx="0.5" fill="#CBD5E1"/>
<path d="M61 193C61 190.791 62.7909 189 65 189H170C172.209 189 174 190.791 174 193V229C174 231.209 172.209 233 170 233H65C62.7909 233 61 231.209 61 229V193Z" fill="white"/>
<path d="M76.408 217H70.264V206.04H72.04V215.416H76.408V217ZM83.5698 211.464V215.112C83.5804 215.347 83.6391 215.523 83.7458 215.64C83.8631 215.747 84.0391 215.816 84.2738 215.848L84.2258 217.176C83.3084 217.176 82.5991 216.979 82.0978 216.584C81.2444 216.979 80.3858 217.176 79.5218 217.176C77.9324 217.176 77.1378 216.328 77.1378 214.632C77.1378 213.821 77.3511 213.235 77.7778 212.872C78.2151 212.509 78.8818 212.291 79.7778 212.216L81.8418 212.04V211.464C81.8418 211.037 81.7458 210.739 81.5538 210.568C81.3724 210.397 81.1004 210.312 80.7378 210.312C80.0551 210.312 79.2018 210.355 78.1778 210.44L77.6658 210.472L77.6018 209.24C78.7644 208.963 79.8311 208.824 80.8018 208.824C81.7831 208.824 82.4871 209.037 82.9138 209.464C83.3511 209.88 83.5698 210.547 83.5698 211.464ZM79.9858 213.448C79.2498 213.512 78.8818 213.912 78.8818 214.648C78.8818 215.384 79.2071 215.752 79.8578 215.752C80.3911 215.752 80.9564 215.667 81.5538 215.496L81.8418 215.4V213.272L79.9858 213.448ZM89.4871 208.824C90.5858 208.824 91.3751 209.133 91.8551 209.752C92.3458 210.36 92.5911 211.443 92.5911 213C92.5911 214.557 92.3031 215.645 91.7271 216.264C91.1511 216.872 90.1378 217.176 88.6871 217.176C88.1858 217.176 87.3911 217.128 86.3031 217.032L85.7591 216.984V205.672H87.4871V209.304C88.2231 208.984 88.8898 208.824 89.4871 208.824ZM88.6871 215.624C89.5405 215.624 90.1058 215.427 90.3831 215.032C90.6711 214.627 90.8151 213.944 90.8151 212.984C90.8151 212.024 90.6925 211.352 90.4471 210.968C90.2125 210.573 89.8231 210.376 89.2791 210.376C88.7671 210.376 88.2551 210.456 87.7431 210.616L87.4871 210.696V215.56C88.0738 215.603 88.4738 215.624 88.6871 215.624ZM100.033 215.56L100.481 215.512L100.513 216.808C99.2973 217.053 98.2199 217.176 97.2812 217.176C96.0973 217.176 95.2439 216.851 94.7213 216.2C94.2093 215.549 93.9533 214.509 93.9533 213.08C93.9533 210.243 95.1106 208.824 97.4253 208.824C99.6653 208.824 100.785 210.045 100.785 212.488L100.673 213.736H95.7133C95.7239 214.397 95.8679 214.883 96.1453 215.192C96.4226 215.501 96.9399 215.656 97.6973 215.656C98.4546 215.656 99.2333 215.624 100.033 215.56ZM99.0733 212.392C99.0733 211.603 98.9453 211.053 98.6893 210.744C98.4439 210.424 98.0226 210.264 97.4253 210.264C96.8279 210.264 96.3906 210.429 96.1133 210.76C95.8466 211.091 95.7079 211.635 95.6973 212.392H99.0733ZM102.558 217V205.672H104.302V217H102.558ZM114.329 210.488H112.121V214.008C112.121 214.659 112.169 215.091 112.265 215.304C112.361 215.517 112.606 215.624 113.001 215.624L114.313 215.576L114.393 216.968C113.678 217.107 113.134 217.176 112.761 217.176C111.854 217.176 111.23 216.968 110.889 216.552C110.558 216.136 110.393 215.352 110.393 214.2V210.488H109.369V209H110.393V206.68H112.121V209H114.329V210.488ZM121.455 215.56L121.903 215.512L121.935 216.808C120.719 217.053 119.642 217.176 118.703 217.176C117.519 217.176 116.666 216.851 116.143 216.2C115.631 215.549 115.375 214.509 115.375 213.08C115.375 210.243 116.532 208.824 118.847 208.824C121.087 208.824 122.207 210.045 122.207 212.488L122.095 213.736H117.135C117.146 214.397 117.29 214.883 117.567 215.192C117.844 215.501 118.362 215.656 119.119 215.656C119.876 215.656 120.655 215.624 121.455 215.56ZM120.495 212.392C120.495 211.603 120.367 211.053 120.111 210.744C119.866 210.424 119.444 210.264 118.847 210.264C118.25 210.264 117.812 210.429 117.535 210.76C117.268 211.091 117.13 211.635 117.119 212.392H120.495ZM123.116 209H124.972L126.54 211.768L128.124 209H129.98L127.596 212.936L129.98 217H128.124L126.54 214.264L124.972 217H123.116L125.436 212.984L123.116 209ZM135.61 210.488H133.402V214.008C133.402 214.659 133.45 215.091 133.546 215.304C133.642 215.517 133.887 215.624 134.282 215.624L135.594 215.576L135.674 216.968C134.959 217.107 134.415 217.176 134.042 217.176C133.135 217.176 132.511 216.968 132.17 216.552C131.839 216.136 131.674 215.352 131.674 214.2V210.488H130.65V209H131.674V206.68H133.402V209H135.61V210.488Z" fill="#003366"/>
<path d="M162.917 208.035L157.223 213.482C156.55 214.125 155.45 214.125 154.777 213.482L149.083 208.035" stroke="#003366" stroke-width="1.4823" stroke-miterlimit="10" stroke-linecap="round" stroke-linejoin="round"/>
<path d="M182 193C182 190.791 183.791 189 186 189H291C293.209 189 295 190.791 295 193V229C295 231.209 293.209 233 291 233H186C183.791 233 182 231.209 182 229V193Z" fill="white"/>
<path d="M197.408 217H191.264V206.04H193.04V215.416H197.408V217ZM204.57 211.464V215.112C204.58 215.347 204.639 215.523 204.746 215.64C204.863 215.747 205.039 215.816 205.274 215.848L205.226 217.176C204.308 217.176 203.599 216.979 203.098 216.584C202.244 216.979 201.386 217.176 200.522 217.176C198.932 217.176 198.138 216.328 198.138 214.632C198.138 213.821 198.351 213.235 198.778 212.872C199.215 212.509 199.882 212.291 200.778 212.216L202.842 212.04V211.464C202.842 211.037 202.746 210.739 202.554 210.568C202.372 210.397 202.1 210.312 201.738 210.312C201.055 210.312 200.202 210.355 199.178 210.44L198.666 210.472L198.602 209.24C199.764 208.963 200.831 208.824 201.802 208.824C202.783 208.824 203.487 209.037 203.914 209.464C204.351 209.88 204.57 210.547 204.57 211.464ZM200.986 213.448C200.25 213.512 199.882 213.912 199.882 214.648C199.882 215.384 200.207 215.752 200.858 215.752C201.391 215.752 201.956 215.667 202.554 215.496L202.842 215.4V213.272L200.986 213.448ZM210.487 208.824C211.586 208.824 212.375 209.133 212.855 209.752C213.346 210.36 213.591 211.443 213.591 213C213.591 214.557 213.303 215.645 212.727 216.264C212.151 216.872 211.138 217.176 209.687 217.176C209.186 217.176 208.391 217.128 207.303 217.032L206.759 216.984V205.672H208.487V209.304C209.223 208.984 209.89 208.824 210.487 208.824ZM209.687 215.624C210.54 215.624 211.106 215.427 211.383 215.032C211.671 214.627 211.815 213.944 211.815 212.984C211.815 212.024 211.692 211.352 211.447 210.968C211.212 210.573 210.823 210.376 210.279 210.376C209.767 210.376 209.255 210.456 208.743 210.616L208.487 210.696V215.56C209.074 215.603 209.474 215.624 209.687 215.624ZM221.033 215.56L221.481 215.512L221.513 216.808C220.297 217.053 219.22 217.176 218.281 217.176C217.097 217.176 216.244 216.851 215.721 216.2C215.209 215.549 214.953 214.509 214.953 213.08C214.953 210.243 216.111 208.824 218.425 208.824C220.665 208.824 221.785 210.045 221.785 212.488L221.673 213.736H216.713C216.724 214.397 216.868 214.883 217.145 215.192C217.423 215.501 217.94 215.656 218.697 215.656C219.455 215.656 220.233 215.624 221.033 215.56ZM220.073 212.392C220.073 211.603 219.945 211.053 219.689 210.744C219.444 210.424 219.023 210.264 218.425 210.264C217.828 210.264 217.391 210.429 217.113 210.76C216.847 211.091 216.708 211.635 216.697 212.392H220.073ZM223.558 217V205.672H225.302V217H223.558ZM235.329 210.488H233.121V214.008C233.121 214.659 233.169 215.091 233.265 215.304C233.361 215.517 233.606 215.624 234.001 215.624L235.313 215.576L235.393 216.968C234.678 217.107 234.134 217.176 233.761 217.176C232.854 217.176 232.23 216.968 231.889 216.552C231.558 216.136 231.393 215.352 231.393 214.2V210.488H230.369V209H231.393V206.68H233.121V209H235.329V210.488ZM242.455 215.56L242.903 215.512L242.935 216.808C241.719 217.053 240.642 217.176 239.703 217.176C238.519 217.176 237.666 216.851 237.143 216.2C236.631 215.549 236.375 214.509 236.375 213.08C236.375 210.243 237.532 208.824 239.847 208.824C242.087 208.824 243.207 210.045 243.207 212.488L243.095 213.736H238.135C238.146 214.397 238.29 214.883 238.567 215.192C238.844 215.501 239.362 215.656 240.119 215.656C240.876 215.656 241.655 215.624 242.455 215.56ZM241.495 212.392C241.495 211.603 241.367 211.053 241.111 210.744C240.866 210.424 240.444 210.264 239.847 210.264C239.25 210.264 238.812 210.429 238.535 210.76C238.268 211.091 238.13 211.635 238.119 212.392H241.495ZM244.116 209H245.972L247.54 211.768L249.124 209H250.98L248.596 212.936L250.98 217H249.124L247.54 214.264L245.972 217H244.116L246.436 212.984L244.116 209ZM256.61 210.488H254.402V214.008C254.402 214.659 254.45 215.091 254.546 215.304C254.642 215.517 254.887 215.624 255.282 215.624L256.594 215.576L256.674 216.968C255.959 217.107 255.415 217.176 255.042 217.176C254.135 217.176 253.511 216.968 253.17 216.552C252.839 216.136 252.674 215.352 252.674 214.2V210.488H251.65V209H252.674V206.68H254.402V209H256.61V210.488Z" fill="#003366"/>
<path d="M283.917 208.035L278.223 213.482C277.55 214.125 276.45 214.125 275.777 213.482L270.083 208.035" stroke="#003366" stroke-width="1.4823" stroke-miterlimit="10" stroke-linecap="round" stroke-linejoin="round"/>
<path d="M303 193C303 190.791 304.791 189 307 189H412C414.209 189 416 190.791 416 193V229C416 231.209 414.209 233 412 233H307C304.791 233 303 231.209 303 229V193Z" fill="white"/>
<path d="M318.408 217H312.264V206.04H314.04V215.416H318.408V217ZM325.57 211.464V215.112C325.58 215.347 325.639 215.523 325.746 215.64C325.863 215.747 326.039 215.816 326.274 215.848L326.226 217.176C325.308 217.176 324.599 216.979 324.098 216.584C323.244 216.979 322.386 217.176 321.522 217.176C319.932 217.176 319.138 216.328 319.138 214.632C319.138 213.821 319.351 213.235 319.778 212.872C320.215 212.509 320.882 212.291 321.778 212.216L323.842 212.04V211.464C323.842 211.037 323.746 210.739 323.554 210.568C323.372 210.397 323.1 210.312 322.738 210.312C322.055 210.312 321.202 210.355 320.178 210.44L319.666 210.472L319.602 209.24C320.764 208.963 321.831 208.824 322.802 208.824C323.783 208.824 324.487 209.037 324.914 209.464C325.351 209.88 325.57 210.547 325.57 211.464ZM321.986 213.448C321.25 213.512 320.882 213.912 320.882 214.648C320.882 215.384 321.207 215.752 321.858 215.752C322.391 215.752 322.956 215.667 323.554 215.496L323.842 215.4V213.272L321.986 213.448ZM331.487 208.824C332.586 208.824 333.375 209.133 333.855 209.752C334.346 210.36 334.591 211.443 334.591 213C334.591 214.557 334.303 215.645 333.727 216.264C333.151 216.872 332.138 217.176 330.687 217.176C330.186 217.176 329.391 217.128 328.303 217.032L327.759 216.984V205.672H329.487V209.304C330.223 208.984 330.89 208.824 331.487 208.824ZM330.687 215.624C331.54 215.624 332.106 215.427 332.383 215.032C332.671 214.627 332.815 213.944 332.815 212.984C332.815 212.024 332.692 211.352 332.447 210.968C332.212 210.573 331.823 210.376 331.279 210.376C330.767 210.376 330.255 210.456 329.743 210.616L329.487 210.696V215.56C330.074 215.603 330.474 215.624 330.687 215.624ZM342.033 215.56L342.481 215.512L342.513 216.808C341.297 217.053 340.22 217.176 339.281 217.176C338.097 217.176 337.244 216.851 336.721 216.2C336.209 215.549 335.953 214.509 335.953 213.08C335.953 210.243 337.111 208.824 339.425 208.824C341.665 208.824 342.785 210.045 342.785 212.488L342.673 213.736H337.713C337.724 214.397 337.868 214.883 338.145 215.192C338.423 215.501 338.94 215.656 339.697 215.656C340.455 215.656 341.233 215.624 342.033 215.56ZM341.073 212.392C341.073 211.603 340.945 211.053 340.689 210.744C340.444 210.424 340.023 210.264 339.425 210.264C338.828 210.264 338.391 210.429 338.113 210.76C337.847 211.091 337.708 211.635 337.697 212.392H341.073ZM344.558 217V205.672H346.302V217H344.558ZM356.329 210.488H354.121V214.008C354.121 214.659 354.169 215.091 354.265 215.304C354.361 215.517 354.606 215.624 355.001 215.624L356.313 215.576L356.393 216.968C355.678 217.107 355.134 217.176 354.761 217.176C353.854 217.176 353.23 216.968 352.889 216.552C352.558 216.136 352.393 215.352 352.393 214.2V210.488H351.369V209H352.393V206.68H354.121V209H356.329V210.488ZM363.455 215.56L363.903 215.512L363.935 216.808C362.719 217.053 361.642 217.176 360.703 217.176C359.519 217.176 358.666 216.851 358.143 216.2C357.631 215.549 357.375 214.509 357.375 213.08C357.375 210.243 358.532 208.824 360.847 208.824C363.087 208.824 364.207 210.045 364.207 212.488L364.095 213.736H359.135C359.146 214.397 359.29 214.883 359.567 215.192C359.844 215.501 360.362 215.656 361.119 215.656C361.876 215.656 362.655 215.624 363.455 215.56ZM362.495 212.392C362.495 211.603 362.367 211.053 362.111 210.744C361.866 210.424 361.444 210.264 360.847 210.264C360.25 210.264 359.812 210.429 359.535 210.76C359.268 211.091 359.13 211.635 359.119 212.392H362.495ZM365.116 209H366.972L368.54 211.768L370.124 209H371.98L369.596 212.936L371.98 217H370.124L368.54 214.264L366.972 217H365.116L367.436 212.984L365.116 209ZM377.61 210.488H375.402V214.008C375.402 214.659 375.45 215.091 375.546 215.304C375.642 215.517 375.887 215.624 376.282 215.624L377.594 215.576L377.674 216.968C376.959 217.107 376.415 217.176 376.042 217.176C375.135 217.176 374.511 216.968 374.17 216.552C373.839 216.136 373.674 215.352 373.674 214.2V210.488H372.65V209H373.674V206.68H375.402V209H377.61V210.488Z" fill="#003366"/>
<path d="M404.917 208.035L399.223 213.482C398.55 214.125 397.45 214.125 396.777 213.482L391.083 208.035" stroke="#003366" stroke-width="1.4823" stroke-miterlimit="10" stroke-linecap="round" stroke-linejoin="round"/>
<path d="M424 193C424 190.791 425.791 189 428 189H533C535.209 189 537 190.791 537 193V229C537 231.209 535.209 233 533 233H428C425.791 233 424 231.209 424 229V193Z" fill="white"/>
<path d="M439.408 217H433.264V206.04H435.04V215.416H439.408V217ZM446.57 211.464V215.112C446.58 215.347 446.639 215.523 446.746 215.64C446.863 215.747 447.039 215.816 447.274 215.848L447.226 217.176C446.308 217.176 445.599 216.979 445.098 216.584C444.244 216.979 443.386 217.176 442.522 217.176C440.932 217.176 440.138 216.328 440.138 214.632C440.138 213.821 440.351 213.235 440.778 212.872C441.215 212.509 441.882 212.291 442.778 212.216L444.842 212.04V211.464C444.842 211.037 444.746 210.739 444.554 210.568C444.372 210.397 444.1 210.312 443.738 210.312C443.055 210.312 442.202 210.355 441.178 210.44L440.666 210.472L440.602 209.24C441.764 208.963 442.831 208.824 443.802 208.824C444.783 208.824 445.487 209.037 445.914 209.464C446.351 209.88 446.57 210.547 446.57 211.464ZM442.986 213.448C442.25 213.512 441.882 213.912 441.882 214.648C441.882 215.384 442.207 215.752 442.858 215.752C443.391 215.752 443.956 215.667 444.554 215.496L444.842 215.4V213.272L442.986 213.448ZM452.487 208.824C453.586 208.824 454.375 209.133 454.855 209.752C455.346 210.36 455.591 211.443 455.591 213C455.591 214.557 455.303 215.645 454.727 216.264C454.151 216.872 453.138 217.176 451.687 217.176C451.186 217.176 450.391 217.128 449.303 217.032L448.759 216.984V205.672H450.487V209.304C451.223 208.984 451.89 208.824 452.487 208.824ZM451.687 215.624C452.54 215.624 453.106 215.427 453.383 215.032C453.671 214.627 453.815 213.944 453.815 212.984C453.815 212.024 453.692 211.352 453.447 210.968C453.212 210.573 452.823 210.376 452.279 210.376C451.767 210.376 451.255 210.456 450.743 210.616L450.487 210.696V215.56C451.074 215.603 451.474 215.624 451.687 215.624ZM463.033 215.56L463.481 215.512L463.513 216.808C462.297 217.053 461.22 217.176 460.281 217.176C459.097 217.176 458.244 216.851 457.721 216.2C457.209 215.549 456.953 214.509 456.953 213.08C456.953 210.243 458.111 208.824 460.425 208.824C462.665 208.824 463.785 210.045 463.785 212.488L463.673 213.736H458.713C458.724 214.397 458.868 214.883 459.145 215.192C459.423 215.501 459.94 215.656 460.697 215.656C461.455 215.656 462.233 215.624 463.033 215.56ZM462.073 212.392C462.073 211.603 461.945 211.053 461.689 210.744C461.444 210.424 461.023 210.264 460.425 210.264C459.828 210.264 459.391 210.429 459.113 210.76C458.847 211.091 458.708 211.635 458.697 212.392H462.073ZM465.558 217V205.672H467.302V217H465.558ZM477.329 210.488H475.121V214.008C475.121 214.659 475.169 215.091 475.265 215.304C475.361 215.517 475.606 215.624 476.001 215.624L477.313 215.576L477.393 216.968C476.678 217.107 476.134 217.176 475.761 217.176C474.854 217.176 474.23 216.968 473.889 216.552C473.558 216.136 473.393 215.352 473.393 214.2V210.488H472.369V209H473.393V206.68H475.121V209H477.329V210.488ZM484.455 215.56L484.903 215.512L484.935 216.808C483.719 217.053 482.642 217.176 481.703 217.176C480.519 217.176 479.666 216.851 479.143 216.2C478.631 215.549 478.375 214.509 478.375 213.08C478.375 210.243 479.532 208.824 481.847 208.824C484.087 208.824 485.207 210.045 485.207 212.488L485.095 213.736H480.135C480.146 214.397 480.29 214.883 480.567 215.192C480.844 215.501 481.362 215.656 482.119 215.656C482.876 215.656 483.655 215.624 484.455 215.56ZM483.495 212.392C483.495 211.603 483.367 211.053 483.111 210.744C482.866 210.424 482.444 210.264 481.847 210.264C481.25 210.264 480.812 210.429 480.535 210.76C480.268 211.091 480.13 211.635 480.119 212.392H483.495ZM486.116 209H487.972L489.54 211.768L491.124 209H492.98L490.596 212.936L492.98 217H491.124L489.54 214.264L487.972 217H486.116L488.436 212.984L486.116 209ZM498.61 210.488H496.402V214.008C496.402 214.659 496.45 215.091 496.546 215.304C496.642 215.517 496.887 215.624 497.282 215.624L498.594 215.576L498.674 216.968C497.959 217.107 497.415 217.176 497.042 217.176C496.135 217.176 495.511 216.968 495.17 216.552C494.839 216.136 494.674 215.352 494.674 214.2V210.488H493.65V209H494.674V206.68H496.402V209H498.61V210.488Z" fill="#003366"/>
<path d="M525.917 208.035L520.223 213.482C519.55 214.125 518.45 214.125 517.777 213.482L512.083 208.035" stroke="#003366" stroke-width="1.4823" stroke-miterlimit="10" stroke-linecap="round" stroke-linejoin="round"/>
<path d="M545 193C545 190.791 546.791 189 549 189H654C656.209 189 658 190.791 658 193V229C658 231.209 656.209 233 654 233H549C546.791 233 545 231.209 545 229V193Z" fill="white"/>
<path d="M560.408 217H554.264V206.04H556.04V215.416H560.408V217ZM567.57 211.464V215.112C567.58 215.347 567.639 215.523 567.746 215.64C567.863 215.747 568.039 215.816 568.274 215.848L568.226 217.176C567.308 217.176 566.599 216.979 566.098 216.584C565.244 216.979 564.386 217.176 563.522 217.176C561.932 217.176 561.138 216.328 561.138 214.632C561.138 213.821 561.351 213.235 561.778 212.872C562.215 212.509 562.882 212.291 563.778 212.216L565.842 212.04V211.464C565.842 211.037 565.746 210.739 565.554 210.568C565.372 210.397 565.1 210.312 564.738 210.312C564.055 210.312 563.202 210.355 562.178 210.44L561.666 210.472L561.602 209.24C562.764 208.963 563.831 208.824 564.802 208.824C565.783 208.824 566.487 209.037 566.914 209.464C567.351 209.88 567.57 210.547 567.57 211.464ZM563.986 213.448C563.25 213.512 562.882 213.912 562.882 214.648C562.882 215.384 563.207 215.752 563.858 215.752C564.391 215.752 564.956 215.667 565.554 215.496L565.842 215.4V213.272L563.986 213.448ZM573.487 208.824C574.586 208.824 575.375 209.133 575.855 209.752C576.346 210.36 576.591 211.443 576.591 213C576.591 214.557 576.303 215.645 575.727 216.264C575.151 216.872 574.138 217.176 572.687 217.176C572.186 217.176 571.391 217.128 570.303 217.032L569.759 216.984V205.672H571.487V209.304C572.223 208.984 572.89 208.824 573.487 208.824ZM572.687 215.624C573.54 215.624 574.106 215.427 574.383 215.032C574.671 214.627 574.815 213.944 574.815 212.984C574.815 212.024 574.692 211.352 574.447 210.968C574.212 210.573 573.823 210.376 573.279 210.376C572.767 210.376 572.255 210.456 571.743 210.616L571.487 210.696V215.56C572.074 215.603 572.474 215.624 572.687 215.624ZM584.033 215.56L584.481 215.512L584.513 216.808C583.297 217.053 582.22 217.176 581.281 217.176C580.097 217.176 579.244 216.851 578.721 216.2C578.209 215.549 577.953 214.509 577.953 213.08C577.953 210.243 579.111 208.824 581.425 208.824C583.665 208.824 584.785 210.045 584.785 212.488L584.673 213.736H579.713C579.724 214.397 579.868 214.883 580.145 215.192C580.423 215.501 580.94 215.656 581.697 215.656C582.455 215.656 583.233 215.624 584.033 215.56ZM583.073 212.392C583.073 211.603 582.945 211.053 582.689 210.744C582.444 210.424 582.023 210.264 581.425 210.264C580.828 210.264 580.391 210.429 580.113 210.76C579.847 211.091 579.708 211.635 579.697 212.392H583.073ZM586.558 217V205.672H588.302V217H586.558ZM598.329 210.488H596.121V214.008C596.121 214.659 596.169 215.091 596.265 215.304C596.361 215.517 596.606 215.624 597.001 215.624L598.313 215.576L598.393 216.968C597.678 217.107 597.134 217.176 596.761 217.176C595.854 217.176 595.23 216.968 594.889 216.552C594.558 216.136 594.393 215.352 594.393 214.2V210.488H593.369V209H594.393V206.68H596.121V209H598.329V210.488ZM605.455 215.56L605.903 215.512L605.935 216.808C604.719 217.053 603.642 217.176 602.703 217.176C601.519 217.176 600.666 216.851 600.143 216.2C599.631 215.549 599.375 214.509 599.375 213.08C599.375 210.243 600.532 208.824 602.847 208.824C605.087 208.824 606.207 210.045 606.207 212.488L606.095 213.736H601.135C601.146 214.397 601.29 214.883 601.567 215.192C601.844 215.501 602.362 215.656 603.119 215.656C603.876 215.656 604.655 215.624 605.455 215.56ZM604.495 212.392C604.495 211.603 604.367 211.053 604.111 210.744C603.866 210.424 603.444 210.264 602.847 210.264C602.25 210.264 601.812 210.429 601.535 210.76C601.268 211.091 601.13 211.635 601.119 212.392H604.495ZM607.116 209H608.972L610.54 211.768L612.124 209H613.98L611.596 212.936L613.98 217H612.124L610.54 214.264L608.972 217H607.116L609.436 212.984L607.116 209ZM619.61 210.488H617.402V214.008C617.402 214.659 617.45 215.091 617.546 215.304C617.642 215.517 617.887 215.624 618.282 215.624L619.594 215.576L619.674 216.968C618.959 217.107 618.415 217.176 618.042 217.176C617.135 217.176 616.511 216.968 616.17 216.552C615.839 216.136 615.674 215.352 615.674 214.2V210.488H614.65V209H615.674V206.68H617.402V209H619.61V210.488Z" fill="#003366"/>
<path d="M646.917 208.035L641.223 213.482C640.55 214.125 639.45 214.125 638.777 213.482L633.083 208.035" stroke="#003366" stroke-width="1.4823" stroke-miterlimit="10" stroke-linecap="round" stroke-linejoin="round"/>
</g>
<defs>
<filter id="filter0_b_888_42011" x="-9" y="166" width="1340" height="93" filterUnits="userSpaceOnUse" color-interpolation-filters="sRGB">
<feFlood flood-opacity="0" result="BackgroundImageFix"/>
<feGaussianBlur in="BackgroundImageFix" stdDeviation="5"/>
<feComposite in2="SourceAlpha" operator="in" result="effect1_backgroundBlur_888_42011"/>
<feBlend mode="normal" in="SourceGraphic" in2="effect1_backgroundBlur_888_42011" result="shape"/>
</filter>
</defs>
</svg>
