<?xml version="1.0" encoding="utf-8"?>
<!DOCTYPE svg PUBLIC "-//W3C//DTD SVG 1.1//EN" "http://www.w3.org/Graphics/SVG/1.1/DTD/svg11.dtd">
<svg version="1.1" xmlns="http://www.w3.org/2000/svg" xmlns:xlink="http://www.w3.org/1999/xlink" 
 x="0px" y="0px" viewBox="0 0 64 64">
  <defs>
    <!-- 
    	COLOR
    	fill lime -> #b3b3b3;
    -->
    <style>
      g        { display: none;   }
      g:target { display: inline; }
    </style>

<svg viewBox="0 0 64 64" id="radio"><use xlink:href="#radio-bg" x="0" y="0"/></svg>
<svg viewBox="0 0 64 64" id="it-example"><use xlink:href="#it-example-bg" x="0" y="0"/></svg>
<svg viewBox="0 0 64 64" id="it-close-circle"><use xlink:href="#it-close-circle-bg" x="0" y="0"/></svg>
<svg viewBox="0 0 64 64" id="it-arrow-right"><use xlink:href="#it-arrow-right-bg" x="0" y="0"/></svg>
<svg viewBox="0 0 64 64" id="it-help-circle"><use xlink:href="#it-help-circle-bg" x="0" y="0"/></svg>
<svg viewBox="0 0 64 64" id="radio-check"><use xlink:href="#radio-check-bg" x="0" y="0"/></svg>
<svg viewBox="0 0 64 64" id="it-minus-circle"><use xlink:href="#it-minus-circle-bg" x="0" y="0"/></svg>
<svg viewBox="0 0 64 64" id="it-arrow-up"><use xlink:href="#it-arrow-up-bg" x="0" y="0"/></svg>
<svg viewBox="0 0 64 64" id="it-user"><use xlink:href="#it-user-bg" x="0" y="0"/></svg>
<svg viewBox="0 0 64 64" id="it-check-circle"><use xlink:href="#it-check-circle-bg" x="0" y="0"/></svg>
<svg viewBox="0 0 64 64" id="radio-check-disabled"><use xlink:href="#radio-check-disabled-bg" x="0" y="0"/></svg>
<svg viewBox="0 0 64 64" id="it-document-text"><use xlink:href="#it-document-text-bg" x="0" y="0"/></svg>
<svg viewBox="0 0 64 64" id="it-plus-circle"><use xlink:href="#it-plus-circle-bg" x="0" y="0"/></svg>
<svg viewBox="0 0 64 64" id="it-arrow-down"><use xlink:href="#it-arrow-down-bg" x="0" y="0"/></svg>
<svg viewBox="0 0 64 64" id="it-error-circle"><use xlink:href="#it-error-circle-bg" x="0" y="0"/></svg>
<svg viewBox="0 0 64 64" id="radio-check-invalid"><use xlink:href="#radio-check-invalid-bg" x="0" y="0"/></svg>
<svg viewBox="0 0 64 64" id="it-arrow-left"><use xlink:href="#it-arrow-left-bg" x="0" y="0"/></svg>
<svg viewBox="0 0 64 64" id="it-close-big"><use xlink:href="#it-close-big-bg" x="0" y="0"/></svg>
<svg viewBox="0 0 64 64" id="it-info-circle"><use xlink:href="#it-info-circle-bg" x="0" y="0"/></svg>
<svg viewBox="0 0 64 64" id="radio-disabled"><use xlink:href="#radio-disabled-bg" x="0" y="0"/></svg>
<svg viewBox="0 0 64 64" id="it-skip-next"><use xlink:href="#it-skip-next-bg" x="0" y="0"/></svg>
<svg viewBox="0 0 64 64" id="it-close"><use xlink:href="#it-close-bg" x="0" y="0"/></svg>
<svg viewBox="0 0 64 64" id="it-warning"><use xlink:href="#it-warning-bg" x="0" y="0"/></svg>
<svg viewBox="0 0 64 64" id="radio-invalid"><use xlink:href="#radio-invalid-bg" x="0" y="0"/></svg>
<svg viewBox="0 0 64 64" id="it-streamline"><use xlink:href="#it-streamline-bg" x="0" y="0"/></svg>
<svg viewBox="0 0 64 64" id="it-skip-prev"><use xlink:href="#it-skip-prev-bg" x="0" y="0"/></svg>
<svg viewBox="0 0 64 64" id="it-download-doc"><use xlink:href="#it-download-doc-bg" x="0" y="0"/></svg>
<svg viewBox="0 0 64 64" id="checkbox"><use xlink:href="#checkbox-bg" x="0" y="0"/></svg>
<svg viewBox="0 0 64 64" id="it-error"><use xlink:href="#it-error-bg" x="0" y="0"/></svg>
<svg viewBox="0 0 64 64" id="it-pencil"><use xlink:href="#it-pencil-bg" x="0" y="0"/></svg>
<svg viewBox="0 0 64 64" id="checkbox-check"><use xlink:href="#checkbox-check-bg" x="0" y="0"/></svg>
<svg viewBox="0 0 64 64" id="it-check"><use xlink:href="#it-check-bg" x="0" y="0"/></svg>
<svg viewBox="0 0 64 64" id="it-search"><use xlink:href="#it-search-bg" x="0" y="0"/></svg>
<svg viewBox="0 0 64 64" id="checkbox-check-disabled"><use xlink:href="#checkbox-check-disabled-bg" x="0" y="0"/></svg>
<svg viewBox="0 0 64 64" id="it-upload-doc"><use xlink:href="#it-upload-doc-bg" x="0" y="0"/></svg>
<svg viewBox="0 0 64 64" id="checkbox-check-invalid"><use xlink:href="#checkbox-check-invalid-bg" x="0" y="0"/></svg>
<svg viewBox="0 0 64 64" id="it-clip"><use xlink:href="#it-clip-bg" x="0" y="0"/></svg>
<svg viewBox="0 0 64 64" id="checkbox-disabled"><use xlink:href="#checkbox-disabled-bg" x="0" y="0"/></svg>
<svg viewBox="0 0 64 64" id="it-delete"><use xlink:href="#it-delete-bg" x="0" y="0"/></svg>
<svg viewBox="0 0 64 64" id="checkbox-invalid"><use xlink:href="#checkbox-invalid-bg" x="0" y="0"/></svg>
<svg viewBox="0 0 64 64" id="it-password-hide"><use xlink:href="#it-password-hide-bg" x="0" y="0"/></svg>
<svg viewBox="0 0 64 64" id="checkbox-minus"><use xlink:href="#checkbox-minus-bg" x="0" y="0"/></svg>
<svg viewBox="0 0 64 64" id="it-password-show"><use xlink:href="#it-password-show-bg" x="0" y="0"/></svg>
<svg viewBox="0 0 64 64" id="checkbox-minus-disabled"><use xlink:href="#checkbox-minus-disabled-bg" x="0" y="0"/></svg>
<svg viewBox="0 0 64 64" id="it-more"><use xlink:href="#it-more-bg" x="0" y="0"/></svg>
<svg viewBox="0 0 64 64" id="it-calendar"><use xlink:href="#it-calendar-bg" x="0" y="0"/></svg>
<svg viewBox="0 0 64 64" id="it-upload"><use xlink:href="#it-upload-bg" x="0" y="0"/></svg>
<svg viewBox="0 0 64 64" id="it-clock"><use xlink:href="#it-clock-bg" x="0" y="0"/></svg>

  </defs>

<!-- radio -->
<g viewBox="0 0 64 64" id="radio-bg">
<circle cx="32" cy="32" r="25.67" style="fill:#fff;"/><path d="m32,60c-15.44,0-28-12.56-28-28S16.56,4,32,4s28,12.56,28,28-12.56,28-28,28Zm0-51.33c-12.87,0-23.33,10.47-23.33,23.33s10.47,23.33,23.33,23.33,23.33-10.47,23.33-23.33-10.47-23.33-23.33-23.33Z" style="fill:#2156ab;"/>
</g>
<!-- it-example -->
<g viewBox="0 0 64 64" id="it-example-bg">
<path d="m32.01,60c-2.91,0-5.82-1.1-8.04-3.31L7.31,40.04c-4.42-4.42-4.42-11.63,0-16.07L23.96,7.31c4.42-4.42,11.63-4.42,16.07,0l16.65,16.65c4.42,4.45,4.42,11.66,0,16.08l-16.65,16.65c-2.21,2.21-5.12,3.31-8.03,3.31Zm-.02-52.1c-1.91,0-3.82.72-5.27,2.17L10.08,26.73c-2.9,2.92-2.9,7.65,0,10.55l16.65,16.65c2.92,2.9,7.65,2.9,10.55,0l16.65-16.65c2.9-2.9,2.9-7.63,0-10.55l-16.64-16.64c-1.46-1.45-3.37-2.17-5.28-2.17Z" style="stroke-width:0px;"/>
</g>
<!-- it-close-circle -->
<g viewBox="0 0 64 64" id="it-close-circle-bg">
<path d="m32,4c-15.42,0-28,12.58-28,28s12.58,28,28,28,28-12.55,28-28S47.45,4,32,4Zm0,52.09c-13.28,0-24.09-10.81-24.09-24.09S18.72,7.91,32,7.91s24.09,10.81,24.09,24.09-10.81,24.09-24.09,24.09Z" style="stroke-width:0px;"/><path d="m40.75,37.99c.78.78.78,2.01,0,2.76-.36.39-.86.57-1.38.57s-.99-.18-1.38-.57l-5.99-5.99-5.99,5.99c-.36.39-.86.57-1.38.57s-.99-.18-1.38-.57c-.76-.76-.76-1.98,0-2.76l5.99-5.99-5.99-5.99c-.76-.76-.76-1.98,0-2.76.78-.76,2.01-.76,2.76,0l5.99,5.99,5.99-5.99c.78-.76,2.01-.76,2.76,0,.78.78.78,2.01,0,2.76l-5.99,5.99,5.99,5.99Z" style="stroke-width:0px;"/>
</g>
<!-- it-arrow-right -->
<g viewBox="0 0 64 64" id="it-arrow-right-bg">
<path id="t" d="m42.95,32c0,1.92-.74,3.72-2.09,5.07l-15.73,15.73c-.93.93-2.44.93-3.38,0s-.93-2.44,0-3.38l15.73-15.73c.9-.9.9-2.48,0-3.38l-15.73-15.73c-.93-.93-.93-2.44,0-3.38s2.44-.93,3.38,0l15.73,15.73c1.35,1.35,2.09,3.15,2.09,5.07Z" style="stroke-width:0px;"/>
</g>
<!-- it-help-circle -->
<g viewBox="0 0 64 64" id="it-help-circle-bg">
<path d="m32,60c-15.44,0-28-12.56-28-28S16.56,4,32,4s28,12.56,28,28-12.56,28-28,28Zm0-52c-13.23,0-24,10.76-24,24s10.76,24,24,24,24-10.76,24-24-10.76-24-24-24Z" style="stroke-width:0px;"/><path d="m32.01,38.67c-1.11,0-2-.9-2-2v-4.67c0-1.11.9-2,2-2,.99,0,1.96-.29,2.78-.84.82-.55,1.46-1.33,1.84-2.24.38-.91.48-1.91.28-2.89-.19-.97-.67-1.85-1.37-2.56-.7-.7-1.59-1.18-2.56-1.37-.97-.19-1.98-.09-2.89.28-.92.38-1.69,1.02-2.24,1.84s-.84,1.78-.84,2.78c0,1.11-.9,2-2,2s-2-.9-2-2c0-1.79.53-3.52,1.52-5,.99-1.48,2.39-2.63,4.04-3.32,1.65-.68,3.45-.86,5.2-.51,1.76.35,3.35,1.2,4.61,2.46,1.26,1.26,2.11,2.86,2.47,4.61.35,1.75.17,3.55-.51,5.2-.69,1.65-1.83,3.05-3.32,4.04-.93.62-1.94,1.05-3,1.29v2.89c0,1.11-.9,2-2,2Z" style="stroke-width:0px;"/><path d="m32,47.83c-1.65,0-3-1.35-3-3s1.35-3,3-3c1.11,0,2,.9,2,2,0,.36-.1.71-.27,1,.17.29.27.64.27,1,0,1.11-.9,2-2,2Z" style="stroke-width:0px;"/><path d="m32,47.83c-1.11,0-2-.9-2-2,0-.36.1-.71.27-1-.17-.29-.27-.64-.27-1,0-1.11.9-2,2-2,1.65,0,3,1.35,3,3s-1.35,3-3,3Z" style="stroke-width:0px;"/>
</g>
<!-- radio-check -->
<g viewBox="0 0 64 64" id="radio-check-bg">
<circle cx="32" cy="32" r="25.67" style="fill:#fff;"/><path d="m32,60c-15.44,0-28-12.56-28-28S16.56,4,32,4s28,12.56,28,28-12.56,28-28,28Zm0-51.33c-12.87,0-23.33,10.47-23.33,23.33s10.47,23.33,23.33,23.33,23.33-10.47,23.33-23.33-10.47-23.33-23.33-23.33Z" style="fill:#2156ab;"/><circle cx="32" cy="32" r="16.33" style="fill:#2156ab;"/>
</g>
<!-- it-minus-circle -->
<g viewBox="0 0 64 64" id="it-minus-circle-bg">
<path d="m32,60c-15.44,0-28-12.56-28-28S16.56,4,32,4s28,12.56,28,28-12.56,28-28,28Zm0-52.09c-13.29,0-24.09,10.81-24.09,24.09s10.81,24.09,24.09,24.09,24.09-10.81,24.09-24.09S45.29,7.91,32,7.91Z" style="stroke-width:0px;"/><path d="m42.42,33.95h-20.84c-1.08,0-1.95-.88-1.95-1.95s.88-1.95,1.95-1.95h20.84c1.08,0,1.95.88,1.95,1.95s-.88,1.95-1.95,1.95Z" style="stroke-width:0px;"/>
</g>
<!-- it-arrow-up -->
<g viewBox="0 0 64 64" id="it-arrow-up-bg">
<path id="t" d="m32,21.05c1.92,0,3.72.74,5.07,2.09l15.73,15.73c.93.93.93,2.44,0,3.38s-2.44.93-3.38,0l-15.73-15.73c-.9-.9-2.48-.9-3.38,0l-15.73,15.73c-.93.93-2.44.93-3.38,0s-.93-2.44,0-3.38l15.73-15.73c1.35-1.35,3.15-2.09,5.07-2.09Z" style="stroke-width:0px;"/>
</g>
<!-- it-user -->
<g viewBox="0 0 64 64" id="it-user-bg">
<path d="m32.33,33.95c-8.26,0-14.98-6.72-14.98-14.98s6.72-14.98,14.98-14.98,14.98,6.72,14.98,14.98-6.72,14.98-14.98,14.98Zm0-26.05c-6.1,0-11.07,4.97-11.07,11.07s4.97,11.07,11.07,11.07,11.07-4.97,11.07-11.07-4.97-11.07-11.07-11.07Z" style="stroke-width:0px;"/><path d="m54.7,60c-1.08,0-1.95-.88-1.95-1.95,0-8.98-9.16-16.28-20.42-16.28s-20.42,7.3-20.42,16.28c0,1.08-.88,1.95-1.95,1.95s-1.95-.88-1.95-1.95c0-11.13,10.91-20.19,24.33-20.19s24.33,9.06,24.33,20.19c0,1.08-.88,1.95-1.95,1.95Z" style="stroke-width:0px;"/>
</g>
<!-- it-check-circle -->
<g viewBox="0 0 64 64" id="it-check-circle-bg">
<path d="m32,60c-15.44,0-28-12.56-28-28S16.56,4,32,4s28,12.56,28,28-12.56,28-28,28Zm0-52.09c-13.29,0-24.09,10.81-24.09,24.09s10.81,24.09,24.09,24.09,24.09-10.81,24.09-24.09S45.29,7.91,32,7.91Z" style="stroke-width:0px;"/><path d="m28.3,41.32c-.5,0-1-.19-1.38-.57l-7.37-7.37c-.76-.76-.76-2,0-2.76s2-.76,2.76,0l5.99,5.99,13.39-13.36c.76-.76,2-.76,2.76,0,.76.77.76,2,0,2.76l-14.77,14.74c-.38.38-.88.57-1.38.57Z" style="stroke-width:0px;"/>
</g>
<!-- radio-check-disabled -->
<g viewBox="0 0 64 64" id="radio-check-disabled-bg">
<circle cx="32" cy="33" r="25.67" style="fill:#fff;"/><path d="m32,61c-15.44,0-28-12.56-28-28S16.56,5,32,5s28,12.56,28,28-12.56,28-28,28Zm0-51.33c-12.87,0-23.33,10.47-23.33,23.33s10.47,23.33,23.33,23.33,23.33-10.47,23.33-23.33-10.47-23.33-23.33-23.33Z" style="fill:#94a3b8;"/><circle cx="32" cy="33" r="16.33" style="fill:#94a3b8;"/>
</g>
<!-- it-document-text -->
<g viewBox="0 0 64 64" id="it-document-text-bg">
<path d="m42.19,59.38h-20.84c-9.52,0-14.98-5.46-14.98-14.98v-26.05c0-9.52,5.46-14.98,14.98-14.98h20.84c9.52,0,14.98,5.46,14.98,14.98v26.05c0,9.52-5.46,14.98-14.98,14.98ZM21.35,7.28c-7.45,0-11.07,3.62-11.07,11.07v26.05c0,7.45,3.62,11.07,11.07,11.07h20.84c7.45,0,11.07-3.62,11.07-11.07v-26.05c0-7.45-3.62-11.07-11.07-11.07h-20.84Z"/><path d="m48.7,24.21h-5.21c-3.95,0-7.16-3.21-7.16-7.16v-5.21c0-1.08.88-1.95,1.95-1.95s1.95.87,1.95,1.95v5.21c0,1.79,1.46,3.26,3.26,3.26h5.21c1.08,0,1.95.87,1.95,1.95s-.88,1.95-1.95,1.95Z"/><path d="m31.77,35.93h-10.42c-1.08,0-1.95-.87-1.95-1.95s.88-1.95,1.95-1.95h10.42c1.08,0,1.95.87,1.95,1.95s-.88,1.95-1.95,1.95Z"/><path d="m42.19,46.35h-20.84c-1.08,0-1.95-.87-1.95-1.95s.88-1.95,1.95-1.95h20.84c1.08,0,1.95.87,1.95,1.95s-.88,1.95-1.95,1.95Z"/>
</g>
<!-- it-plus-circle -->
<g viewBox="0 0 64 64" id="it-plus-circle-bg">
<path d="m32,60c-15.44,0-28-12.56-28-28S16.56,4,32,4s28,12.56,28,28-12.56,28-28,28Zm0-52.09c-13.29,0-24.09,10.81-24.09,24.09s10.81,24.09,24.09,24.09,24.09-10.81,24.09-24.09S45.29,7.91,32,7.91Z" style="stroke-width:0px;"/><path d="m33.96,42.42c0,1.11-.87,1.97-1.95,1.95-.53.02-1.01-.2-1.38-.57s-.57-.83-.57-1.38v-8.47h-8.47c-.53.02-1.01-.2-1.38-.57s-.57-.83-.57-1.38c0-1.07.87-1.93,1.95-1.95h8.47v-8.47c0-1.07.87-1.93,1.95-1.95,1.09.02,1.95.88,1.95,1.95v8.47h8.47c1.09.02,1.95.88,1.95,1.95,0,1.11-.87,1.97-1.95,1.95h-8.47v8.47Z" style="stroke-width:0px;"/>
</g>
<!-- it-arrow-down -->
<g viewBox="0 0 64 64" id="it-arrow-down-bg">
<path id="t" d="m32.19,43.15c-1.93,0-3.75-.75-5.11-2.11l-15.87-15.87c-.94-.94-.94-2.47,0-3.41s2.47-.94,3.41,0l15.87,15.87c.9.9,2.51.9,3.41,0l15.88-15.87c.94-.94,2.47-.94,3.41,0s.94,2.47,0,3.41l-15.87,15.87c-1.36,1.36-3.18,2.11-5.11,2.11Z" style="stroke-width:0px;"/>
</g>
<!-- it-error-circle -->
<g viewBox="0 0 64 64" id="it-error-circle-bg">
<path d="m32,60c-15.44,0-28-12.56-28-28S16.56,4,32,4s28,12.56,28,28-12.56,28-28,28Zm0-52.09c-13.29,0-24.09,10.81-24.09,24.09s10.81,24.09,24.09,24.09,24.09-10.81,24.09-24.09S45.29,7.91,32,7.91Z" style="stroke-width:0px;"/><path d="m32,36.56c-1.08,0-1.95-.88-1.95-1.95v-13.02c0-1.08.88-1.95,1.95-1.95s1.95.88,1.95,1.95v13.02c0,1.08-.88,1.95-1.95,1.95Z" style="stroke-width:0px;"/><path d="m32.01,44.37c-1.08,0-1.96-.88-1.96-1.95s.86-1.95,1.94-1.95h.02c1.08,0,1.95.88,1.95,1.95s-.88,1.95-1.95,1.95Z" style="stroke-width:0px;"/>
</g>
<!-- radio-check-invalid -->
<g viewBox="0 0 64 64" id="radio-check-invalid-bg">
<circle cx="32" cy="32" r="25.67" style="fill:#fff;"/><path d="m32,60c-15.44,0-28-12.56-28-28S16.56,4,32,4s28,12.56,28,28-12.56,28-28,28Zm0-51.33c-12.87,0-23.33,10.47-23.33,23.33s10.47,23.33,23.33,23.33,23.33-10.47,23.33-23.33-10.47-23.33-23.33-23.33Z" style="fill:#e32941;"/><circle cx="32" cy="32" r="16.33" style="fill:#e32941;"/>
</g>
<!-- it-arrow-left -->
<g viewBox="0 0 64 64" id="it-arrow-left-bg">
<path id="t" d="m21.05,32c0-1.92.74-3.72,2.09-5.07l15.73-15.73c.93-.93,2.44-.93,3.38,0s.93,2.44,0,3.38l-15.73,15.73c-.9.9-.9,2.48,0,3.38l15.73,15.73c.93.93.93,2.44,0,3.38s-2.44.93-3.38,0l-15.73-15.73c-1.35-1.35-2.09-3.15-2.09-5.07Z" style="stroke-width:0px;"/>
</g>
<!-- it-close-big -->
<g viewBox="0 0 64 64" id="it-close-big-bg">
<path d="m50.28,47.33c.82.81.82,2.15,0,2.96-.42.4-.95.62-1.48.62s-1.06-.22-1.48-.62l-15.32-15.31-15.32,15.31c-.42.4-.95.62-1.48.62s-1.06-.22-1.48-.62c-.82-.81-.82-2.15,0-2.96l15.31-15.32-15.31-15.32c-.82-.81-.82-2.15,0-2.96.81-.84,2.15-.84,2.96,0l15.32,15.31,15.32-15.31c.81-.84,2.15-.84,2.96,0,.82.81.82,2.15,0,2.96l-15.31,15.32,15.31,15.32Z" style="stroke-width:0px;"/>
</g>
<!-- it-info-circle -->
<g viewBox="0 0 64 64" id="it-info-circle-bg">
<path d="m32,4c-15.45,0-28,12.58-28,28s12.55,28,28,28,28-12.55,28-28S47.42,4,32,4Zm0,52.01c-13.23,0-24.01-10.76-24.01-24.01s10.78-23.99,24.01-23.99,23.99,10.76,23.99,23.99-10.76,24.01-23.99,24.01Z" style="stroke-width:0px;"/><path d="m40,44.02c0,1.1-.91,1.98-2.01,1.98h-11.99c-1.12,0-2.01-.89-2.01-1.98s.89-2.01,2.01-2.01h3.99v-10.01h-2.01c-1.1,0-1.98-.89-1.98-1.98s.89-2.01,1.98-2.01h4.01c1.1,0,1.98.89,1.98,2.01v11.99h4.01c1.1,0,2.01.89,2.01,2.01Z" style="stroke-width:0px;"/><path d="m34.99,20.01c0,1.52-1.12,2.78-2.59,2.96-.12.05-.26.05-.4.05s-.28-.02-.4-.05c-1.47-.19-2.61-1.45-2.61-2.96s1.14-2.78,2.61-2.96c.12-.02.26-.05.4-.05s.28,0,.4.05c1.47.19,2.59,1.45,2.59,2.96Z" style="stroke-width:0px;"/>
</g>
<!-- radio-disabled -->
<g viewBox="0 0 64 64" id="radio-disabled-bg">
<circle cx="32" cy="32" r="25.67" style="fill:#fff;"/><path d="m32,60c-15.44,0-28-12.56-28-28S16.56,4,32,4s28,12.56,28,28-12.56,28-28,28Zm0-51.33c-12.87,0-23.33,10.47-23.33,23.33s10.47,23.33,23.33,23.33,23.33-10.47,23.33-23.33-10.47-23.33-23.33-23.33Z" style="fill:#94a3b8;"/>
</g>
<!-- it-skip-next -->
<g viewBox="0 0 64 64" id="it-skip-next-bg">
<path d="m9.67,59.25c-.62,0-1.24-.24-1.71-.71-.95-.95-.95-2.48,0-3.43l21.06-21.06c1.55-1.55,1.55-4.07,0-5.62L7.96,7.38c-.95-.95-.95-2.48,0-3.43s2.48-.95,3.43,0l21.06,21.06c3.44,3.44,3.44,9.03,0,12.47l-21.06,21.06c-.47.47-1.09.71-1.71.71Z" style="stroke-width:0px;"/><path d="m32.28,59.25c-.62,0-1.24-.24-1.71-.71-.95-.95-.95-2.48,0-3.43l21.06-21.06c1.55-1.55,1.55-4.07,0-5.62L30.57,7.38c-.95-.95-.95-2.48,0-3.43s2.48-.95,3.43,0l21.06,21.06c3.44,3.44,3.44,9.03,0,12.47l-21.06,21.06c-.47.47-1.09.71-1.71.71Z" style="stroke-width:0px;"/>
</g>
<!-- it-close -->
<g viewBox="0 0 64 64" id="it-close-bg">
<path d="m39.81,4h-15.62c-14.15,0-20.19,6.04-20.19,20.19v15.62c0,14.15,6.04,20.19,20.19,20.19h15.62c14.15,0,20.19-6.04,20.19-20.19v-15.62c0-14.15-6.04-20.19-20.19-20.19Zm16.28,35.81c0,12.02-4.26,16.28-16.28,16.28h-15.62c-12.02,0-16.28-4.26-16.28-16.28v-15.62c0-12.02,4.26-16.28,16.28-16.28h15.62c12.02,0,16.28,4.26,16.28,16.28v15.62Z" style="stroke-width:0px;"/><path d="m40.75,37.99c.77.76.77,2,0,2.76-.38.38-.88.57-1.38.57s-1-.19-1.38-.57l-5.99-5.99-5.99,5.99c-.38.38-.88.57-1.38.57s-1-.19-1.38-.57c-.77-.76-.77-2,0-2.76l5.99-5.99-5.99-5.99c-.77-.76-.77-2,0-2.76.76-.77,2-.77,2.76,0l5.99,5.99,5.99-5.99c.76-.77,2-.77,2.76,0,.77.76.77,2,0,2.76l-5.99,5.99,5.99,5.99Z" style="stroke-width:0px;"/>
</g>
<!-- it-warning -->
<g viewBox="0 0 64 64" id="it-warning-bg">
<path d="m32,37.61c-1.08,0-1.95-.87-1.95-1.95v-13.02c0-1.08.87-1.95,1.95-1.95s1.95.87,1.95,1.95v13.02c0,1.08-.87,1.95-1.95,1.95Z" style="stroke-width:0px;"/><path d="m47.78,56.93h-15.78c-.11,0-.21,0-.32-.03h-15.47c-5.08,0-8.96-1.83-10.92-5.17-1.97-3.34-1.69-7.63.78-12.08l15.78-28.39c2.6-4.69,6.2-7.27,10.14-7.27h0c3.94,0,7.54,2.58,10.14,7.27l15.78,28.41c2.47,4.45,2.74,8.74.77,12.07-1.96,3.34-5.84,5.17-10.92,5.17Zm-15.47-3.91h15.47c3.64,0,6.32-1.15,7.55-3.25,1.24-2.1.94-5.01-.82-8.2l-15.78-28.41c-1.88-3.39-4.27-5.26-6.73-5.26-2.46,0-4.85,1.87-6.73,5.26l-15.78,28.38c-1.77,3.19-2.06,6.11-.83,8.2,1.23,2.09,3.92,3.24,7.56,3.24h15.78c.11,0,.21,0,.32.03Z" style="stroke-width:0px;"/><path d="m32.01,45.42c-1.08,0-1.97-.87-1.97-1.95s.86-1.95,1.94-1.95h.02c1.08,0,1.95.87,1.95,1.95s-.87,1.95-1.95,1.95Z" style="stroke-width:0px;"/>
</g>
<!-- radio-invalid -->
<g viewBox="0 0 64 64" id="radio-invalid-bg">
<circle cx="32" cy="32" r="25.67" style="fill:#fff;"/><path d="m32,60c-15.44,0-28-12.56-28-28S16.56,4,32,4s28,12.56,28,28-12.56,28-28,28Zm0-51.33c-12.87,0-23.33,10.47-23.33,23.33s10.47,23.33,23.33,23.33,23.33-10.47,23.33-23.33-10.47-23.33-23.33-23.33Z" style="fill:#e32941;"/>
</g>
<!-- it-streamline -->
<g viewBox="0 0 64 64" id="it-streamline-bg">
<path d="m12.1,34.14h-5.97c-1.18,0-2.14-.96-2.14-2.14s.96-2.14,2.14-2.14h5.97c1.18,0,2.14.96,2.14,2.14s-.96,2.14-2.14,2.14Z" style="fill:#231f20;"/><path d="m17.91,20.05c-.55,0-1.09-.21-1.51-.62l-4.22-4.22c-.83-.84-.83-2.19,0-3.02.84-.83,2.19-.83,3.02,0l4.22,4.22c.83.84.83,2.19,0,3.02-.42.42-.96.62-1.51.62Z" style="fill:#231f20;"/><path d="m13.69,52.44c-.55,0-1.09-.21-1.51-.62-.83-.84-.83-2.19,0-3.02l4.22-4.22c.84-.83,2.19-.83,3.02,0,.83.84.83,2.19,0,3.02l-4.22,4.22c-.42.42-.96.62-1.51.62Z" style="fill:#231f20;"/><path d="m57.86,34.14h-5.97c-1.18,0-2.14-.96-2.14-2.14s.96-2.14,2.14-2.14h5.97c1.18,0,2.14.96,2.14,2.14s-.96,2.14-2.14,2.14Z" style="fill:#231f20;"/><path d="m50.31,52.44c-.55,0-1.09-.21-1.51-.62l-4.22-4.22c-.83-.84-.83-2.19,0-3.02.84-.83,2.19-.83,3.02,0l4.22,4.22c.83.84.83,2.19,0,3.02-.42.42-.96.62-1.51.62Z" style="fill:#231f20;"/><path d="m32,60c-1.18,0-2.14-.96-2.14-2.14v-5.97c0-1.18.96-2.14,2.14-2.14s2.14.96,2.14,2.14v5.97c0,1.18-.96,2.14-2.14,2.14Z" style="fill:#231f20;"/><path d="m46.09,20.05c-.55,0-1.09-.21-1.51-.62-.83-.84-.83-2.19,0-3.02l4.22-4.22c.84-.83,2.19-.83,3.02,0,.83.84.83,2.19,0,3.02l-4.22,4.22c-.42.42-.96.62-1.51.62Z" style="fill:#231f20;"/><path d="m32,14.24c-1.18,0-2.14-.96-2.14-2.14v-5.97c0-1.18.96-2.14,2.14-2.14s2.14.96,2.14,2.14v5.97c0,1.18-.96,2.14-2.14,2.14Z" style="fill:#231f20;"/>
</g>
<!-- it-skip-prev -->
<g viewBox="0 0 64 64" id="it-skip-prev-bg">
<path d="m53.95,4c.62,0,1.24.24,1.71.71.95.95.95,2.48,0,3.43l-21.06,21.06c-1.55,1.55-1.55,4.07,0,5.62l21.06,21.06c.95.95.95,2.48,0,3.43s-2.48.95-3.43,0l-21.06-21.06c-3.44-3.44-3.44-9.03,0-12.47L52.24,4.71c.47-.47,1.09-.71,1.71-.71Z" style="stroke-width:0px;"/><path d="m31.35,4c.62,0,1.24.24,1.71.71.95.95.95,2.48,0,3.43L12,29.19c-1.55,1.55-1.55,4.07,0,5.62l21.06,21.06c.95.95.95,2.48,0,3.43s-2.48.95-3.43,0l-21.06-21.06c-3.44-3.44-3.44-9.03,0-12.47L29.63,4.71c.47-.47,1.09-.71,1.71-.71Z" style="stroke-width:0px;"/>
</g>
<!-- it-download-doc -->
<g viewBox="0 0 64 64" id="it-download-doc-bg">
<path d="m59.84,26.04c-.1-.23-.23-.44-.42-.63L38.59,4.57c-.26-.26-.6-.44-.99-.52-.13-.03-.26-.05-.39-.05h-13.02c-14.14,0-20.19,6.04-20.19,20.19v15.63c0,14.14,6.04,20.19,20.19,20.19h15.63c14.14,0,20.19-6.04,20.19-20.19v-13.02c0-.26-.05-.52-.16-.76Zm-20.68-15.37l14.17,14.17h-5.7c-6.72,0-8.47-1.75-8.47-8.47v-5.7Zm16.93,29.15c0,12.03-4.25,16.28-16.28,16.28h-15.63c-12.01,0-16.28-4.25-16.28-16.28v-15.63c0-12.01,4.27-16.28,16.28-16.28h11.07v8.47c0,8.91,3.46,12.37,12.37,12.37h8.47v11.07Z" style="stroke-width:0px;"/><path d="m30.78,41.19l-5.21,5.21c-.36.39-.89.57-1.38.57s-.99-.18-1.38-.57l-5.21-5.21c-.76-.76-.76-2.01,0-2.76.76-.76,2.01-.76,2.76,0l1.88,1.88v-10.91c0-1.07.89-1.95,1.95-1.95s1.95.89,1.95,1.95v10.91l1.88-1.88c.76-.76,2.01-.76,2.76,0s.76,2.01,0,2.76Z" style="stroke-width:0px;"/>
</g>
<!-- checkbox -->
<g viewBox="0 0 64 64" id="checkbox-bg">
<path id="ap" d="m6.33,13.33c0-3.87,3.13-7,7-7h37.33c3.87,0,7,3.13,7,7v37.33c0,3.87-3.13,7-7,7H13.33c-3.87,0-7-3.13-7-7V13.33Z" style="fill:#fff;"/><path d="m50.67,60H13.33c-5.15,0-9.33-4.19-9.33-9.33V13.33c0-5.15,4.19-9.33,9.33-9.33h37.33c5.15,0,9.33,4.19,9.33,9.33v37.33c0,5.15-4.19,9.33-9.33,9.33ZM13.33,8.67c-2.57,0-4.67,2.09-4.67,4.67v37.33c0,2.57,2.09,4.67,4.67,4.67h37.33c2.57,0,4.67-2.09,4.67-4.67V13.33c0-2.57-2.09-4.67-4.67-4.67H13.33Z" style="fill:#2156ab;"/>
</g>
<!-- it-error -->
<g viewBox="0 0 64 64" id="it-error-bg">
<path d="m31.84,38.63c-1.57,0-2.84-1.27-2.84-2.84v-18.95c0-1.57,1.27-2.84,2.84-2.84s2.84,1.27,2.84,2.84v18.95c0,1.57-1.27,2.84-2.84,2.84Z"/><path d="m31.86,50c-1.57,0-2.86-1.27-2.86-2.84s1.25-2.84,2.82-2.84h.04c1.57,0,2.84,1.27,2.84,2.84s-1.27,2.84-2.84,2.84Z"/>
</g>
<!-- it-pencil -->
<g viewBox="0 0 64 64" id="it-pencil-bg">
<path d="m39.4,59.99h-15.45c-13.98,0-19.95-5.97-19.95-19.95v-15.45c0-13.98,5.97-19.95,19.95-19.95h5.15c1.07,0,1.93.86,1.93,1.93s-.86,1.93-1.93,1.93h-5.15c-11.88,0-16.09,4.21-16.09,16.09v15.45c0,11.88,4.21,16.09,16.09,16.09h15.45c11.88,0,16.09-4.21,16.09-16.09v-5.15c0-1.07.86-1.93,1.93-1.93s1.93.86,1.93,1.93v5.15c0,13.98-5.97,19.95-19.95,19.95Z" style="stroke-width:0px;"/><path d="m56.16,7.84c-2.81-2.8-5.67-4.08-8.53-3.8-2.33.23-4.59,1.47-6.92,3.8l-2.93,2.93-17.36,17.35c-1.09,1.09-2.03,2.99-2.24,4.49l-1.11,7.74c-.28,1.94.27,3.76,1.51,5.01,1.04,1.06,2.5,1.63,4.1,1.63.31,0,.63-.02.95-.07l7.75-1.1c1.48-.22,3.36-1.15,4.49-2.25l17.32-17.32s.09-.08.13-.13l2.84-2.84c5.12-5.12,5.12-10.32,0-15.44Zm-23,32.98c-.51.5-1.67,1.08-2.33,1.17l-7.73,1.11c-.76.11-1.39-.06-1.78-.45-.38-.39-.54-1-.43-1.74l1.11-7.76c.1-.67.67-1.81,1.15-2.3l15.26-15.25c2.02,4.39,5.59,7.96,9.98,9.99l-15.23,15.23Zm22.95-24.83c-.13,1.4-1.01,2.89-2.68,4.56l-2.08,2.08c-4.7-1.67-8.33-5.29-9.99-9.98l2.08-2.08c1.67-1.67,3.16-2.55,4.56-2.69.14-.01.27-.02.4-.02,1.56,0,3.21.89,5.03,2.71,1.97,1.97,2.85,3.74,2.68,5.42Z" style="stroke-width:0px;"/>
</g>
<!-- checkbox-check -->
<g viewBox="0 0 64 64" id="checkbox-check-bg">
<rect x="4" y="4" width="56" height="56" rx="9.33" ry="9.33" style="fill:#2156ab;"/><path d="m27.33,43.81c-.63,0-1.27-.24-1.75-.72l-9.33-9.33c-.97-.97-.97-2.53,0-3.5s2.53-.97,3.5,0l7.59,7.59,16.95-16.92c.97-.96,2.53-.96,3.5,0,.97.97.96,2.53,0,3.5l-18.7,18.67c-.48.48-1.12.72-1.75.72Z" style="fill:#fff;"/>
</g>
<!-- it-check -->
<g viewBox="0 0 64 64" id="it-check-bg">
<path d="m27,45c-.75,0-1.5-.29-2.07-.86l-11.07-11.07c-1.15-1.15-1.15-3,0-4.15,1.15-1.15,3-1.15,4.15,0l9,8.99,20.1-20.07c1.15-1.14,3-1.14,4.15,0,1.14,1.15,1.14,3.01,0,4.15l-22.17,22.13c-.57.57-1.32.86-2.07.86Z"/>
</g>
<!-- it-search -->
<g viewBox="0 0 64 64" id="it-search-bg">
<path d="m30.7,57.4c-14.72,0-26.7-11.98-26.7-26.7S15.98,4,30.7,4s26.7,11.98,26.7,26.7-11.98,26.7-26.7,26.7Zm0-49.49c-12.57,0-22.79,10.22-22.79,22.79s10.22,22.79,22.79,22.79,22.79-10.22,22.79-22.79S43.26,7.91,30.7,7.91Z" style="stroke-width:0px;"/><path d="m58.05,60c-.5,0-1-.19-1.38-.57l-5.21-5.21c-.76-.76-.76-2,0-2.76s2-.76,2.76,0l5.21,5.21c.76.76.76,2,0,2.76-.38.38-.88.57-1.38.57Z" style="stroke-width:0px;"/>
</g>
<!-- checkbox-check-disabled -->
<g viewBox="0 0 64 64" id="checkbox-check-disabled-bg">
<rect x="4" y="4" width="56" height="56" rx="9.33" ry="9.33" style="fill:#94a3b8;"/><path d="m27.33,43.81c-.63,0-1.27-.24-1.75-.72l-9.33-9.33c-.97-.97-.97-2.53,0-3.5s2.53-.97,3.5,0l7.59,7.59,16.95-16.92c.97-.96,2.53-.96,3.5,0,.97.97.96,2.53,0,3.5l-18.7,18.67c-.48.48-1.12.72-1.75.72Z" style="fill:#fff;"/>
</g>
<!-- it-upload-doc -->
<g viewBox="0 0 64 64" id="it-upload-doc-bg">
<path d="m60.84,26.04c-.1-.23-.23-.44-.42-.63L39.59,4.57c-.26-.26-.6-.44-.99-.52-.13-.03-.26-.05-.39-.05h-13.02c-14.14,0-20.19,6.04-20.19,20.19v15.63c0,14.14,6.04,20.19,20.19,20.19h15.63c14.14,0,20.19-6.04,20.19-20.19v-13.02c0-.26-.05-.52-.16-.76Zm-20.68-15.37l14.17,14.17h-5.7c-6.72,0-8.47-1.75-8.47-8.47v-5.7Zm16.93,29.15c0,12.03-4.25,16.28-16.28,16.28h-15.63c-12.01,0-16.28-4.25-16.28-16.28v-15.63c0-12.01,4.27-16.28,16.28-16.28h11.07v8.47c0,8.91,3.46,12.37,12.37,12.37h8.47v11.07Z" style="stroke-width:0px;"/><path d="m18.6,33.22l5.21-5.21c.36-.39.89-.57,1.38-.57s.99.18,1.38.57l5.21,5.21c.76.76.76,2.01,0,2.76-.76.76-2.01.76-2.76,0l-1.88-1.88v10.91c0,1.07-.89,1.95-1.95,1.95s-1.95-.89-1.95-1.95v-10.91l-1.88,1.88c-.76.76-2.01.76-2.76,0s-.76-2.01,0-2.76Z" style="stroke-width:0px;"/>
</g>
<!-- checkbox-check-invalid -->
<g viewBox="0 0 64 64" id="checkbox-check-invalid-bg">
<rect x="4" y="4" width="56" height="56" rx="9.33" ry="9.33" style="fill:#e32941;"/><path d="m27.33,43.81c-.63,0-1.27-.24-1.75-.72l-9.33-9.33c-.97-.97-.97-2.53,0-3.5s2.53-.97,3.5,0l7.59,7.59,16.95-16.92c.97-.96,2.53-.96,3.5,0,.97.97.96,2.53,0,3.5l-18.7,18.67c-.48.48-1.12.72-1.75.72Z" style="fill:#fff;"/>
</g>
<!-- it-clip -->
<g viewBox="0 0 64 64" id="it-clip-bg">
<path d="m25.02,60c-1.59,0-3.13-.31-4.59-.93s-2.76-1.5-3.87-2.63l-7.1-7.22c-2.23-2.27-3.46-5.27-3.46-8.46s1.23-6.18,3.46-8.46L34.77,6.93c.93-.94,2.02-1.67,3.23-2.17,2.43-1.01,5.2-1.01,7.64,0,1.22.5,2.3,1.24,3.24,2.18l2.83,2.83c.93.92,1.67,2.01,2.17,3.23.51,1.21.76,2.5.76,3.82s-.26,2.6-.76,3.82c-.51,1.21-1.24,2.3-2.17,3.23l-22.42,22.5c-.55.56-1.2,1-1.93,1.3-1.44.6-3.12.61-4.57,0-.72-.3-1.37-.73-1.93-1.3l-1.41-1.45c-.53-.53-.97-1.18-1.27-1.9-.31-.74-.46-1.5-.46-2.29s.15-1.55.45-2.28c.31-.74.75-1.39,1.31-1.94l15.04-14.92c.77-.76,2-.76,2.76.01s.76,2-.01,2.76l-15.04,14.93c-.19.19-.35.42-.45.67-.1.24-.15.51-.15.78s.05.54.16.79c.1.24.25.47.45.66l1.42,1.46c.18.18.4.33.64.43.51.21,1.07.21,1.57,0,.25-.1.48-.26.66-.44l22.44-22.51c.58-.57,1.02-1.23,1.33-1.97.31-.74.46-1.52.46-2.32s-.16-1.58-.46-2.32c-.31-.74-.75-1.4-1.32-1.96l-2.84-2.84c-.57-.57-1.23-1.02-1.96-1.33-1.48-.62-3.17-.61-4.64,0-.74.31-1.39.75-1.96,1.32l-25.3,25.38c-1.5,1.53-2.33,3.56-2.33,5.71s.83,4.18,2.34,5.71l7.1,7.22c.74.76,1.62,1.35,2.59,1.76,1.96.82,4.19.82,6.15,0,.98-.41,1.85-1,2.6-1.76l23.75-23.95c.76-.76,1.99-.77,2.76-.01.77.76.77,2,.01,2.76l-23.74,23.94c-1.1,1.12-2.4,2-3.86,2.62-1.46.61-3,.93-4.59.93Z" style="stroke-width:0px;"/>
</g>
<!-- checkbox-disabled -->
<g viewBox="0 0 64 64" id="checkbox-disabled-bg">
<path id="an" d="m6.33,13.33c0-3.87,3.13-7,7-7h37.33c3.87,0,7,3.13,7,7v37.33c0,3.87-3.13,7-7,7H13.33c-3.87,0-7-3.13-7-7V13.33Z" style="fill:#fff;"/><path d="m50.67,60H13.33c-5.15,0-9.33-4.19-9.33-9.33V13.33c0-5.15,4.19-9.33,9.33-9.33h37.33c5.15,0,9.33,4.19,9.33,9.33v37.33c0,5.15-4.19,9.33-9.33,9.33ZM13.33,8.67c-2.57,0-4.67,2.09-4.67,4.67v37.33c0,2.57,2.09,4.67,4.67,4.67h37.33c2.57,0,4.67-2.09,4.67-4.67V13.33c0-2.57-2.09-4.67-4.67-4.67H13.33Z" style="fill:#94a3b8;"/>
</g>
<!-- it-delete -->
<g viewBox="0 0 64 64" id="it-delete-bg">
<path d="m56.02,14.39c-4.19-.42-8.39-.76-12.58-.99v-.03l-.57-3.39c-.39-2.37-.96-5.99-7.06-5.99h-6.82c-6.04,0-6.64,3.44-7.06,5.96l-.57,3.36c-2.42.1-4.84.31-7.27.55l-5.31.52c-1.07.1-1.88,1.04-1.77,2.11.1,1.09,1.07,1.9,2.14,1.77l5.34-.52c13.54-1.38,27.37-.86,41.18.52h.18c.99,0,1.85-.76,1.95-1.74.1-1.09-.68-2.03-1.77-2.14Zm-30.65-1.25l.42-2.53c.39-2.34.44-2.71,3.2-2.71h6.82c2.76,0,2.84.47,3.2,2.73l.44,2.58c-4.71-.21-9.4-.23-14.09-.08Z" style="stroke-width:0px;"/><path d="m40.76,60h-16.72c-9.1,0-9.45-5.04-9.74-9.08l-1.69-26.24c-.07-1.08.75-2,1.82-2.07,1.08-.07,2,.75,2.08,1.82l1.69,26.23c.28,3.95.38,5.44,5.84,5.44h16.72c5.46,0,5.56-1.48,5.84-5.45l1.69-26.21c.07-1.08,1.01-1.89,2.08-1.82,1.08.07,1.89,1,1.82,2.07l-1.69,26.23c-.28,4.06-.64,9.09-9.74,9.09Z" style="stroke-width:0px;"/><path d="m36.73,45.68h-8.67c-1.08,0-1.95-.87-1.95-1.95s.87-1.95,1.95-1.95h8.67c1.08,0,1.95.87,1.95,1.95s-.87,1.95-1.95,1.95Z" style="stroke-width:0px;"/><path d="m38.91,35.26h-13.02c-1.08,0-1.95-.87-1.95-1.95s.87-1.95,1.95-1.95h13.02c1.08,0,1.95.87,1.95,1.95s-.87,1.95-1.95,1.95Z" style="stroke-width:0px;"/>
</g>
<!-- checkbox-invalid -->
<g viewBox="0 0 64 64" id="checkbox-invalid-bg">
<path id="aw" d="m6.33,13.33c0-3.87,3.13-7,7-7h37.33c3.87,0,7,3.13,7,7v37.33c0,3.87-3.13,7-7,7H13.33c-3.87,0-7-3.13-7-7V13.33Z" style="fill:#fff;"/><path d="m50.67,60H13.33c-5.15,0-9.33-4.19-9.33-9.33V13.33c0-5.15,4.19-9.33,9.33-9.33h37.33c5.15,0,9.33,4.19,9.33,9.33v37.33c0,5.15-4.19,9.33-9.33,9.33ZM13.33,8.67c-2.57,0-4.67,2.09-4.67,4.67v37.33c0,2.57,2.09,4.67,4.67,4.67h37.33c2.57,0,4.67-2.09,4.67-4.67V13.33c0-2.57-2.09-4.67-4.67-4.67H13.33Z" style="fill:#e32941;"/>
</g>
<!-- it-password-hide -->
<g viewBox="0 0 64 64" id="it-password-hide-bg">
<path d="m59.43,4.59c-.78-.78-2.01-.78-2.76,0l-9.12,9.09c-4.77-3.41-10.1-5.16-15.55-5.16-9.79,0-19.04,5.7-25.39,15.68-2.73,4.32-2.73,11.33,0,15.63,1.98,3.07,4.25,5.81,6.75,8.07l-8.78,8.78c-.78.76-.78,1.98,0,2.76.36.36.86.57,1.38.57s.99-.21,1.38-.57l19.45-19.45,13.18-13.18L59.43,7.35c.76-.78.76-2.01,0-2.76Zm-33.83,31.07c-.65-1.12-.96-2.37-.96-3.65,0-4.06,3.31-7.37,7.37-7.37,1.28,0,2.53.34,3.62.96l-10.03,10.05Zm12.87-12.87c-1.88-1.35-4.11-2.06-6.46-2.06-6.22,0-11.28,5.05-11.28,11.28,0,2.34.7,4.58,2.06,6.46l-6.67,6.67c-2.29-2.06-4.4-4.56-6.2-7.42-1.95-3.02-1.95-8.36,0-11.41,5.6-8.83,13.65-13.88,22.08-13.88,4.4,0,8.78,1.38,12.74,4.06l-6.28,6.3Z"/><path d="m32,55.49c-3.41,0-6.8-.7-10.08-2.08-.99-.42-1.46-1.56-1.04-2.56.42-1,1.58-1.46,2.56-1.04,2.8,1.18,5.68,1.77,8.57,1.77,8.42,0,16.46-5.06,22.08-13.89,1.94-3.04,1.94-8.38,0-11.42-.76-1.2-1.65-2.43-2.63-3.65-.68-.84-.54-2.07.3-2.74.83-.68,2.07-.55,2.74.3,1.08,1.34,2.05,2.69,2.89,4,2.75,4.3,2.75,11.31,0,15.62-6.34,9.97-15.59,15.69-25.37,15.69Z"/><path d="m33.79,43.12c-.92,0-1.74-.66-1.92-1.6-.2-1.06.51-2.08,1.57-2.27,2.87-.53,5.25-2.9,5.78-5.78.19-1.06,1.21-1.78,2.27-1.57,1.06.2,1.76,1.21,1.57,2.27-.83,4.5-4.41,8.08-8.91,8.91-.12.02-.24.03-.36.03Z"/>
</g>
<!-- checkbox-minus -->
<g viewBox="0 0 64 64" id="checkbox-minus-bg">
<rect x="4" y="4" width="56" height="56" rx="9.33" ry="9.33" style="fill:#2156ab;"/><path d="m46.77,34.46h-29.55c-1.36,0-2.46-1.1-2.46-2.46s1.1-2.46,2.46-2.46h29.55c1.36,0,2.46,1.1,2.46,2.46s-1.1,2.46-2.46,2.46Z" style="fill:#fff;"/>
</g>
<!-- it-password-show -->
<g viewBox="0 0 64 64" id="it-password-show-bg">
<path d="m32,43.52c-6.35,0-11.51-5.16-11.51-11.51s5.16-11.51,11.51-11.51,11.51,5.16,11.51,11.51-5.16,11.51-11.51,11.51Zm0-19.03c-4.15,0-7.52,3.37-7.52,7.52s3.37,7.52,7.52,7.52,7.52-3.37,7.52-7.52-3.37-7.52-7.52-7.52Z"/><path d="m32,55.98c-9.98,0-19.42-5.84-25.9-16.02-2.8-4.39-2.8-11.54,0-15.94,6.48-10.18,15.92-16.02,25.9-16.02s19.42,5.84,25.9,16.02c2.8,4.39,2.8,11.54,0,15.94-6.47,10.18-15.91,16.02-25.89,16.02Zm0-43.99c-8.59,0-16.8,5.17-22.54,14.17-1.98,3.11-1.98,8.55,0,11.66,5.73,9.01,13.95,14.18,22.54,14.18s16.8-5.17,22.53-14.17c1.98-3.11,1.98-8.55,0-11.66-5.73-9.01-13.95-14.18-22.54-14.18Z"/>
</g>
<!-- checkbox-minus-disabled -->
<g viewBox="0 0 64 64" id="checkbox-minus-disabled-bg">
<rect x="4" y="4" width="56" height="56" rx="9.33" ry="9.33" style="fill:#94a3b8;"/><path d="m46.77,34.46h-29.55c-1.36,0-2.46-1.1-2.46-2.46s1.1-2.46,2.46-2.46h29.55c1.36,0,2.46,1.1,2.46,2.46s-1.1,2.46-2.46,2.46Z" style="fill:#fff;"/>
</g>
<!-- it-more -->
<g viewBox="0 0 64 64" id="it-more-bg">
<path d="m20.81,31.4c0,2.99-2.41,5.4-5.4,5.4s-5.4-2.41-5.4-5.4,2.41-5.4,5.4-5.4,5.4,2.41,5.4,5.4Z" style="stroke-width:0px;"/><path d="m56,31.4c0,2.99-2.41,5.4-5.4,5.4s-5.4-2.41-5.4-5.4,2.41-5.4,5.4-5.4,5.4,2.41,5.4,5.4Z" style="stroke-width:0px;"/><path d="m38.4,31.4c0,2.99-2.41,5.4-5.4,5.4s-5.4-2.41-5.4-5.4,2.41-5.4,5.4-5.4,5.4,2.41,5.4,5.4Z" style="stroke-width:0px;"/>
</g>
<!-- it-calendar -->
<g viewBox="0 0 64 64" id="it-calendar-bg">
<path d="m45.11,10.23v-4.21c0-1.11-.92-2.02-2.02-2.02s-2.02.92-2.02,2.02v4.05h-17.54v-4.05c0-1.11-.92-2.02-2.02-2.02s-2.02.92-2.02,2.02v4.21c-7.29.67-10.82,5.02-11.36,11.47-.05.78.59,1.43,1.35,1.43h45.66c.78,0,1.43-.67,1.35-1.43-.54-6.45-4.08-10.8-11.36-11.47Z"/><path d="m53.88,27.18H10.7c-1.48,0-2.7,1.21-2.7,2.7v16.62c0,8.1,4.05,13.49,13.49,13.49h21.59c9.45,0,13.49-5.4,13.49-13.49v-16.62c0-1.48-1.21-2.7-2.7-2.7Zm-29.12,22.59c-.13.11-.27.24-.4.32-.16.11-.32.19-.49.24-.16.08-.32.13-.49.16-.19.03-.35.05-.54.05-.35,0-.7-.08-1.03-.22-.35-.13-.62-.32-.89-.57-.49-.51-.78-1.21-.78-1.92s.3-1.4.78-1.92c.27-.24.54-.43.89-.57.49-.22,1.03-.27,1.57-.16.16.03.32.08.49.16.16.05.32.13.49.24.13.11.27.22.4.32.49.51.78,1.21.78,1.92s-.3,1.4-.78,1.92Zm0-9.45c-.51.49-1.21.78-1.92.78s-1.4-.3-1.92-.78c-.49-.51-.78-1.21-.78-1.92s.3-1.4.78-1.92c.76-.76,1.94-1,2.94-.57.35.13.65.32.89.57.49.51.78,1.21.78,1.92s-.3,1.4-.78,1.92Zm9.45,9.45c-.51.49-1.21.78-1.92.78s-1.4-.3-1.92-.78c-.49-.51-.78-1.21-.78-1.92s.3-1.4.78-1.92c1-1,2.83-1,3.83,0,.49.51.78,1.21.78,1.92s-.3,1.4-.78,1.92Zm0-9.45c-.13.11-.27.22-.4.32-.16.11-.32.19-.49.24-.16.08-.32.13-.49.16-.19.03-.35.05-.54.05-.7,0-1.4-.3-1.92-.78-.49-.51-.78-1.21-.78-1.92s.3-1.4.78-1.92c.24-.24.54-.43.89-.57,1-.43,2.19-.19,2.94.57.49.51.78,1.21.78,1.92s-.3,1.4-.78,1.92Zm9.45,9.45c-.51.49-1.21.78-1.92.78s-1.4-.3-1.92-.78c-.49-.51-.78-1.21-.78-1.92s.3-1.4.78-1.92c1-1,2.83-1,3.83,0,.49.51.78,1.21.78,1.92s-.3,1.4-.78,1.92Zm0-9.45c-.13.11-.27.22-.4.32-.16.11-.32.19-.49.24-.16.08-.32.13-.49.16-.19.03-.38.05-.54.05-.7,0-1.4-.3-1.92-.78-.49-.51-.78-1.21-.78-1.92s.3-1.4.78-1.92c.27-.24.54-.43.89-.57.49-.22,1.03-.27,1.57-.16.16.03.32.08.49.16.16.05.32.13.49.24.13.11.27.22.4.32.49.51.78,1.21.78,1.92s-.3,1.4-.78,1.92Z"/>
</g>
<!-- it-upload -->
<g viewBox="0 0 64 64" id="it-upload-bg">
<path d="m41.66,16.88c-.53.57-1.25.83-2,.83s-1.43-.26-2-.83l-3.21-3.21v25.37c0,1.59-1.28,2.83-2.83,2.83s-2.83-1.25-2.83-2.83V13.67l-3.21,3.21c-1.13,1.13-2.91,1.09-4,0-1.13-1.09-1.13-2.91,0-4l8.04-8.04c1.09-1.13,2.91-1.09,4,0l8.04,8.04c1.13,1.09,1.13,2.91,0,4Z"/><path d="m32,60.18c-16.49,0-28-11.51-28-28,0-1.56,1.27-2.83,2.83-2.83s2.83,1.27,2.83,2.83c0,13.36,8.98,22.33,22.34,22.33s22.34-8.98,22.34-22.33c0-1.56,1.27-2.83,2.83-2.83s2.83,1.27,2.83,2.83c0,16.48-11.51,28-28,28Z"/>
</g>
<!-- it-clock -->
<g viewBox="0 0 64 64" id="it-clock-bg">
<path d="m32,60c-15.44,0-28-12.56-28-28S16.56,4,32,4s28,12.56,28,28-12.56,28-28,28Zm0-52.09c-13.29,0-24.09,10.81-24.09,24.09s10.81,24.09,24.09,24.09,24.09-10.81,24.09-24.09S45.29,7.91,32,7.91Z"/><path d="m41.66,42.24c-.34,0-.69-.09-1-.28l-8.07-4.82c-2-1.18-3.51-3.83-3.51-6.16v-10.68c0-1.08.88-1.95,1.95-1.95s1.95.88,1.95,1.95v10.68c0,.95.78,2.31,1.59,2.8l8.08,4.82c.93.55,1.23,1.75.68,2.68-.37.61-1.01.95-1.68.95Z"/>
</g>

</svg>
