<?xml version="1.0" encoding="utf-8"?>
<!DOCTYPE svg PUBLIC "-//W3C//DTD SVG 1.1//EN" "http://www.w3.org/Graphics/SVG/1.1/DTD/svg11.dtd">
<svg version="1.1" xmlns="http://www.w3.org/2000/svg" xmlns:xlink="http://www.w3.org/1999/xlink" 
 x="0px" y="0px" viewBox="0 0 64 64">
  <defs>
    <!-- 
    	COLOR
    	fill lime -> #b3b3b3;
    -->
    <style>
      g        { display: none;   }
      g:target { display: inline; }
    </style>

<svg viewBox="0 0 64 64" id="it-example"><use xlink:href="#it-example-bg" x="0" y="0"/></svg>
<svg viewBox="0 0 64 64" id="it-close-circle"><use xlink:href="#it-close-circle-bg" x="0" y="0"/></svg>
<svg viewBox="0 0 64 64" id="it-arrow-up-circle"><use xlink:href="#it-arrow-up-circle-bg" x="0" y="0"/></svg>
<svg viewBox="0 0 64 64" id="cookie"><use xlink:href="#cookie-bg" x="0" y="0"/></svg>
<svg viewBox="0 0 64 64" id="it-check-circle"><use xlink:href="#it-check-circle-bg" x="0" y="0"/></svg>
<svg viewBox="0 0 64 64" id="it-minus-circle"><use xlink:href="#it-minus-circle-bg" x="0" y="0"/></svg>
<svg viewBox="0 0 64 64" id="it-arrow-down-circle"><use xlink:href="#it-arrow-down-circle-bg" x="0" y="0"/></svg>
<svg viewBox="0 0 64 64" id="it-user"><use xlink:href="#it-user-bg" x="0" y="0"/></svg>
<svg viewBox="0 0 64 64" id="it-help-circle"><use xlink:href="#it-help-circle-bg" x="0" y="0"/></svg>
<svg viewBox="0 0 64 64" id="it-clock"><use xlink:href="#it-clock-bg" x="0" y="0"/></svg>
<svg viewBox="0 0 64 64" id="it-plus-circle"><use xlink:href="#it-plus-circle-bg" x="0" y="0"/></svg>
<svg viewBox="0 0 64 64" id="it-arrow-left-circle"><use xlink:href="#it-arrow-left-circle-bg" x="0" y="0"/></svg>
<svg viewBox="0 0 64 64" id="it-error"><use xlink:href="#it-error-bg" x="0" y="0"/></svg>
<svg viewBox="0 0 64 64" id="it-locked"><use xlink:href="#it-locked-bg" x="0" y="0"/></svg>
<svg viewBox="0 0 64 64" id="it-arrow-right-circle"><use xlink:href="#it-arrow-right-circle-bg" x="0" y="0"/></svg>
<svg viewBox="0 0 64 64" id="it-close"><use xlink:href="#it-close-bg" x="0" y="0"/></svg>
<svg viewBox="0 0 64 64" id="it-info-circle"><use xlink:href="#it-info-circle-bg" x="0" y="0"/></svg>
<svg viewBox="0 0 64 64" id="it-unlocked"><use xlink:href="#it-unlocked-bg" x="0" y="0"/></svg>
<svg viewBox="0 0 64 64" id="it-close-big"><use xlink:href="#it-close-big-bg" x="0" y="0"/></svg>
<svg viewBox="0 0 64 64" id="it-warning"><use xlink:href="#it-warning-bg" x="0" y="0"/></svg>
<svg viewBox="0 0 64 64" id="it-document-text"><use xlink:href="#it-document-text-bg" x="0" y="0"/></svg>
<svg viewBox="0 0 64 64" id="it-download-doc"><use xlink:href="#it-download-doc-bg" x="0" y="0"/></svg>
<svg viewBox="0 0 64 64" id="it-warning-circle"><use xlink:href="#it-warning-circle-bg" x="0" y="0"/></svg>
<svg viewBox="0 0 64 64" id="it-pencil"><use xlink:href="#it-pencil-bg" x="0" y="0"/></svg>
<svg viewBox="0 0 64 64" id="it-refresh"><use xlink:href="#it-refresh-bg" x="0" y="0"/></svg>
<svg viewBox="0 0 64 64" id="it-search"><use xlink:href="#it-search-bg" x="0" y="0"/></svg>
<svg viewBox="0 0 64 64" id="it-upload-doc"><use xlink:href="#it-upload-doc-bg" x="0" y="0"/></svg>
<svg viewBox="0 0 64 64" id="it-delete"><use xlink:href="#it-delete-bg" x="0" y="0"/></svg>
<svg viewBox="0 0 64 64" id="it-maximize"><use xlink:href="#it-maximize-bg" x="0" y="0"/></svg>
<svg viewBox="0 0 64 64" id="it-password-visible"><use xlink:href="#it-password-visible-bg" x="0" y="0"/></svg>

  </defs>

<!-- it-example -->
<g viewBox="0 0 64 64" id="it-example-bg">
<path d="m57.06,39.16l-17.9,17.9c-3.92,3.92-10.37,3.92-14.32,0L6.94,39.16c-3.92-3.92-3.92-10.37,0-14.32L24.84,6.94c3.92-3.92,10.37-3.92,14.32,0l17.9,17.9c3.92,3.95,3.92,10.39,0,14.32Z" style="stroke-width:0px;"/>
</g>
<!-- it-close-circle -->
<g viewBox="0 0 64 64" id="it-close-circle-bg">
<path d="m32,4c-15.42,0-28,12.58-28,28s12.58,28,28,28,28-12.55,28-28S47.45,4,32,4Zm8.75,33.99c.78.78.78,2.01,0,2.76-.36.39-.86.57-1.38.57-.49,0-.99-.18-1.38-.57l-5.99-5.99-5.99,5.99c-.37.39-.86.57-1.38.57s-.99-.18-1.38-.57c-.76-.75-.76-1.98,0-2.76l5.99-5.99-5.99-5.99c-.76-.76-.76-1.98,0-2.76.78-.76,2-.76,2.76,0l5.99,5.99,5.99-5.99c.78-.76,2.01-.76,2.76,0,.78.78.78,2,0,2.76l-5.99,5.99,5.99,5.99Z" style="stroke-width:0px;"/>
</g>
<!-- it-arrow-up-circle -->
<g viewBox="0 0 64 64" id="it-arrow-up-circle-bg">
<path id="m" d="m4,32c0,15.43,12.57,28,28,28s28-12.57,28-28S47.43,4,32,4,4,16.57,4,32Zm29.48-7.81l9.88,9.88c.42.42.62.95.62,1.48s-.2,1.06-.62,1.48c-.81.81-2.16.81-2.97,0l-8.4-8.4-8.4,8.4c-.81.81-2.16.81-2.97,0-.81-.81-.81-2.16,0-2.97l9.88-9.88c.81-.84,2.16-.84,2.97,0Z" style="stroke-width:0px;"/>
</g>
<!-- cookie -->
<g viewBox="0 0 64 64" id="cookie-bg">
<path d="m56.42,23.92l-.34-1.11c-3.37-.66-4.58-3.02-4.58-3.02-4.46,0-5.25-4.11-5.25-4.11-4.09-1.31-3.53-5.97-3.53-5.97-.9-1.4-2.02-2.81-3.56-3.15l-1.68,8.12c0,.44,0,.88,0,1.32-.02,1.15-.01,2.42.09,3.68l13.36,6.04,5.49-1.8h0Z" style="fill:#ea973d;"/><path d="m57.86,23.56c-.09.01-.19.02-.28.01-.32-.02-.58-.07-.87-.17-.05-.02-.09-.04-.14-.05-.23-.03-.46-.1-.63-.22-.21-.15-.39-.3-.53-.48-.05,0-.1,0-.15,0-1.48-.07-3.27-1.22-4.52-1.92-1.73-.97-3.23-2.18-4.42-3.77-1.27-1.7-2.43-3.49-3.55-5.29-1.13-1.83-1.94-3.85-3.13-5.64-.05-.07-.09-.14-.12-.2-.48-.13-.97-.25-1.47-.36-1.94-.44-3.93-1.12-6-1.12s-4.06.72-5.99,1.17c-2,.45-4,.89-5.8,1.76-1.84.89-3.52,2.05-5.1,3.31-1.58,1.27-3.2,2.57-4.46,4.15-1.26,1.58-2.41,3.33-3.29,5.16-.87,1.81-1.57,3.78-2.03,5.78-.44,1.94-.77,4.02-.77,6.09s.48,4.12.92,6.06c.45,2,.97,4.03,1.84,5.83.89,1.84,2.49,3.23,3.75,4.81,1.27,1.58,2.62,3.02,4.2,4.29,1.58,1.26,3.09,2.64,4.93,3.53,1.81.87,3.7,1.76,5.7,2.22,1.94.44,4.03.22,6.1.22s4.1-.04,6.04-.48c2-.45,3.75-1.51,5.56-2.38,1.84-.89,3.86-1.47,5.43-2.73,1.58-1.27,2.58-3.13,3.84-4.71,1.26-1.58,2.48-3.14,3.36-4.98.87-1.81,1.84-3.62,2.29-5.62.44-1.94.93-3.99.93-6.06s-.45-4.13-.89-6.07c-.17-.74-.44-1.45-.76-2.13h0Z" style="fill:#ea973d;"/><path d="m55.54,23.98c-1.08.12-2.22-.34-3.18-1.02-.72-.44-1.41-.93-2.17-1.09-.95-.19-1.69-.07-2.62-.57-.7-.38-1.28-.98-1.75-1.62-.51-.7-.86-1.5-.95-2.32-2.92-.08-4.48-2.46-4.51-5.17-.13-.81.22-1.61-.07-2.38-.23-.61-.76-1.25-1.24-1.68-1.01-.91-2.34-1.39-3.64-1.71-1.1-.27-2.23-.51-3.37-.51-1.86,0-3.64.65-5.38,1.05-1.8.41-3.59.8-5.21,1.58-1.65.8-3.16,1.84-4.57,2.97-1.42,1.14-2.87,2.3-4,3.73-1.13,1.41-2.16,2.98-2.95,4.63-.78,1.62-1.41,3.39-1.82,5.19-.39,1.74-.69,3.6-.69,5.46,0,1.37.08,6.23,2.07,6.41.21.02.42,0,.61.07.18.07.31.22.44.37.97,1.14,1.87,2.34,2.71,3.58.18.27.37.56.43.89.06.33-.03.7-.3.89-.16.11-.36.14-.53.22-.49.24-.37,1.05-.24,1.58.41,1.67,2.62,3.33,3.96,4.26.67.47,1.31.97,2.11,1.16.74.18,1.55,0,2.23.42.53.33.82.93,1.26,1.37.37.37.85.62,1.32.85,1.43.73,2.86,1.45,4.29,2.18,1.8.91,5.43.2,6.96-1.07.39-.32.83-.72,1.33-.62.35.08.59.39.86.61.39.32,1.65.36,2.15.31,1.21-.12,1.98-1.32,2.57-2.4.46.39,1.29.18,1.5-.39.09-.23.08-.49.18-.71.08-.17.26-.31.43-.31.02-.06.07-.12.12-.16,1.12-1.07,2.99-.61,4.4-1.25,1.48-.66,2.09-2.28,2.83-3.6.82-1.46,1.95-2.69,2.69-4.21.56-1.17,1.24-2.26,1.15-3.62-.06-.96-.73-1.71-.71-2.62.02-1.13.05-2.33.64-3.3.24-.39.55-.72.79-1.11.06-.09.11-.19.16-.28.78-1.54.44-3.38.08-4.99-.09-.38-.2-.74-.34-1.1h0Z" style="fill:#f7b657;"/><path d="m37.43,7.71c.04-.09.06-.18.06-.28-.03-1.19-4.57-1.5-5.44-1.5-1.86,0-3.64.65-5.38,1.05-1.8.41-3.59.8-5.21,1.58-1.65.8-3.16,1.84-4.57,2.97-1.42,1.14-2.87,2.3-4,3.73-1.89,2.37-3.73,5.18-4.42,8.18-.02.09-.04.19-.06.28-.12.59.34.54.69.21.57-.55.88-1.9,1.28-2.61,1.06-1.89,2.02-3.74,3.64-5.2.73-.65,1.5-1.27,2.27-1.88,1.55-1.24,3.22-2.39,5.03-3.26,1.78-.86,3.75-1.29,5.72-1.73,1.91-.44,3.87-1.15,5.91-1.15,1.09,0,2.16.3,3.24.25.29-.01.6-.05.85-.2.17-.1.32-.25.39-.43h0Z" style="fill:#ffd880;"/><path d="m40.02,7.28s-.03-.02-.08-.07c-.06-.05-.13-.1-.21-.17-.2-.14-.52-.34-.97-.55-.23-.1-.49-.21-.78-.31-.15-.05-.3-.09-.44-.13-.18-.04-.36-.08-.55-.12-.76-.17-1.63-.38-2.59-.54-.97-.16-2.02-.28-3.19-.22-1.15.05-2.4.28-3.75.6-1.36.33-2.82.62-4.29,1.04-.73.21-1.48.45-2.2.77-.18.08-.36.16-.54.25-.19.09-.37.18-.55.28-.36.19-.72.39-1.08.61-1.44.86-2.84,1.93-4.25,3.11-.7.58-1.38,1.2-2,1.88-.31.34-.62.69-.91,1.06l-.24.29-.27.3c-.18.19-.36.37-.54.54-.72.7-1.41,1.35-1.95,2.11-.27.38-.51.79-.71,1.22-.1.21-.18.44-.27.66-.09.24-.17.48-.26.72-.66,1.93-1.21,3.96-1.64,6.03-.21,1.03-.38,2.09-.49,3.14-.05.53-.09,1.06-.09,1.6v.39s0,.41,0,.41c0,.26.02.52.04.79.09,1.06.28,2.14.51,3.22.24,1.08.48,2.18.75,3.26.28,1.08.6,2.14,1.01,3.16.1.26.21.5.33.75l.04.08.05.09.1.19.19.34c.28.46.6.9.95,1.32.7.86,1.5,1.67,2.25,2.59.72.9,1.44,1.74,2.23,2.54.39.4.8.79,1.22,1.16.42.37.85.72,1.31,1.08.89.73,1.75,1.45,2.67,2.08.45.31.92.6,1.4.85.48.25,1.01.49,1.52.73,1.02.47,2.04.91,3.08,1.24.52.17,1.04.31,1.58.41.5.09,1.05.15,1.59.17,1.08.05,2.18,0,3.3-.02,1.12-.01,2.2,0,3.28-.05,1.07-.05,2.13-.15,3.14-.36,2.03-.43,3.96-1.27,5.81-2.14,1.87-.9,3.72-1.68,5.19-2.87,1.46-1.16,2.4-2.83,3.54-4.33.58-.75,1.14-1.44,1.67-2.15.52-.71,1-1.42,1.41-2.15.21-.36.39-.72.57-1.1.19-.38.36-.75.55-1.12.36-.73.69-1.45.97-2.16.28-.71.51-1.41.66-2.11.17-.72.32-1.42.46-2.1.27-1.35.44-2.62.44-3.78,0-1.17-.17-2.2-.43-3.16-.12-.49-.24-.95-.35-1.38-.03-.11-.05-.22-.08-.33-.02-.1-.05-.2-.08-.3-.05-.18-.1-.36-.17-.54-.24-.69-.53-1.25-.8-1.65-.28-.41-.53-.67-.71-.82-.09-.08-.16-.13-.21-.17-.05-.04-.07-.05-.07-.05l-.04-.03c-.24-.18-.29-.52-.11-.76.18-.24.52-.29.76-.11,0,0,.03.02.1.07.07.05.17.12.28.23.24.21.56.55.88,1.04.32.49.64,1.12.91,1.9.07.19.13.4.19.62.03.1.05.21.08.32.02.1.05.21.07.32.1.43.22.89.34,1.38.12.49.24,1.03.32,1.6.04.29.07.58.09.88,0,.15.01.31.02.46,0,.15,0,.3,0,.46,0,1.26-.19,2.59-.47,3.98-.14.69-.3,1.4-.47,2.12-.17.75-.42,1.51-.71,2.25-.3.75-.64,1.48-1,2.23-.18.37-.36.74-.55,1.12-.18.38-.38.78-.6,1.16-.87,1.54-2.02,2.97-3.16,4.4-.55.72-1.07,1.5-1.65,2.28-.58.78-1.25,1.57-2.07,2.21-.8.63-1.69,1.17-2.6,1.64-.91.48-1.84.9-2.77,1.35-1.88.89-3.85,1.77-6.03,2.24-2.17.46-4.42.44-6.61.46-1.09.02-2.22.08-3.37.03-.58-.03-1.15-.08-1.75-.19-.57-.11-1.13-.26-1.69-.43-1.11-.35-2.17-.8-3.21-1.28-.53-.25-1.03-.48-1.56-.74-.53-.27-1.04-.58-1.52-.91-.97-.66-1.86-1.41-2.74-2.13-.44-.35-.9-.72-1.34-1.1-.44-.38-.87-.79-1.28-1.2-.82-.82-1.59-1.72-2.31-2.61-.7-.86-1.51-1.67-2.26-2.58-.37-.45-.73-.93-1.05-1.45l-.23-.4-.1-.19-.05-.09-.05-.11c-.13-.27-.25-.54-.36-.81-.45-1.08-.79-2.19-1.08-3.3-.29-1.11-.53-2.2-.78-3.3-.24-1.1-.45-2.22-.54-3.36-.02-.28-.04-.57-.05-.86v-.42s0-.43,0-.43c.01-.56.05-1.13.1-1.68.1-1.11.28-2.2.49-3.27.44-2.13,1-4.19,1.66-6.18.09-.25.17-.49.26-.74.1-.25.19-.51.31-.76.22-.5.5-.98.82-1.42.63-.89,1.41-1.6,2.1-2.27.17-.17.34-.34.5-.5l.22-.25.23-.27c.31-.39.63-.77.97-1.13.67-.72,1.4-1.38,2.12-1.98,1.44-1.19,2.89-2.3,4.4-3.2.38-.23.76-.44,1.14-.64.2-.1.39-.2.57-.29.2-.09.39-.19.59-.27.79-.34,1.58-.6,2.35-.82,1.54-.43,2.99-.72,4.35-1.04,1.38-.31,2.71-.57,3.98-.61,1.25-.05,2.42.08,3.42.26,1.01.18,1.89.4,2.64.57.19.04.37.09.55.13.2.05.38.1.55.16.33.11.63.24.89.36.52.24.9.48,1.15.66.14.1.23.18.28.22.05.05.08.07.08.07.23.19.25.54.06.76-.19.23-.54.25-.76.06h0Z" style="fill:#aa5900;"/><path d="m7.88,26.21c-.5,1.21-.71,2.85-.4,4.42.26,1.34,1.17.56,1.11-.1-.11-1.39.11-2.81.14-4.19,0-.37-.54-.89-.86-.12Z" style="fill:#ffd880;"/><path d="m24.94,34.56c-.35.26-.71.26-1.14.2-.35-.04-.6.45-.34.7.56.54,1.14.55,1.87.31,1.37-.44,1.96-2.98-.39-1.22Z" style="fill:#ffd880;"/><path d="m38.51,40.07c.67.38,1.39.57,2.07.57,1.08,0,2.14-.33,2.69-1.18.9-1.38-.18-3.06-.91-4.22-.07-.11-.14-.22-.2-.32-.13-.2-.77-.52-.99-.69-.37-.28-.35-.22-.67-.21-1.86.05-3.43,1.12-3.8,2.62-.33,1.31.35,2.59,1.81,3.43Z" style="fill:#e08c38;"/><path d="m13.92,37.93c-.15-.15-.3-.29-.45-.44-.09-.09-.18-.19-.27-.29-.57-.61-1.22-1.31-2.13-1.41-1.25-.14-2.29,1-2.54,2.12v.05c-.36,1.68.26,3.45,1.57,4.51.56.45,1.35.68,2.16.68s1.71-.25,2.36-.73c.9-.68,1.15-1.69.68-2.77-.3-.7-.85-1.23-1.37-1.73h0Z" style="fill:#ea973d;"/><path d="m15.58,22.61c-.11-.69-.63-1.33-1.35-1.64-.28-.12-.55-.18-.81-.17-1,.04-1.53,1.09-1.88,1.99-.15.39-.32.97-.05,1.47.21.38.62.62,1.15.68.12.01.25.01.39,0,.72-.04,1.41-.33,1.96-.8.47-.41.68-.96.6-1.54h0Z" style="fill:#e08c38;"/><path d="m38.63,50.1c-2.53.51-3.94,2.67-3.66,4.37.16,1,.75,1.4,1.22,1.57,1.37.48,3.4-.43,4.62-1.53.93-.84,1.34-1.71,1.17-2.45-.37-1.55-1.65-2.3-3.35-1.96Z" style="fill:#ea973d;"/><path d="m46.14,48.24c-.57-.31-1.29-.34-1.88-.09-.85.36-1.42,1.02-1.56,1.8-.14.79.31,1.71,1.07,2.17.34.21.7.31,1.07.31.49,0,.98-.18,1.44-.53.72-.55.87-1.71.71-2.56-.09-.46-.39-.85-.85-1.1h0Z" style="fill:#ea973d;"/><path d="m57.24,30.58c-.58-.88-1.71-1.31-2.64-1-.89.3-1.03.96-1.19,1.72-.11.51-.24,1.09-.59,1.77-.25.47-.19,1.23-.03,1.74.1.32.3.74.66.93.33.17.66.25,1,.25.68,0,1.36-.34,1.95-1,1.04-1.15,1.65-3.16.83-4.42h0Z" style="fill:#ea973d;"/><path d="m25.63,29.99c-.4-.69-.98-1.17-1.62-1.37-.23-.07-.49-.11-.79-.12-1.37-.04-2.75.6-3.51,1.64-.6.82-.74,1.81-.39,2.78.33.92,1.11,1.67,2.05,1.94.36.1.72.14,1.07.14.4,0,2.26.18,3.43-.75.56-.44.72-1.21.46-2.35-.15-.64-.34-1.32-.69-1.91h0Z" style="fill:#e08c38;"/><path d="m42.83,38.53c-.75,1.3-2.66,1.6-4.27.68-3.31-1.9-1.53-5.46,1.86-5.54.35,0,.72.03,1,.24.18.14.31.34.43.54.73,1.19,1.83,2.66.99,4.09h0Z" style="fill:#683604;"/><path d="m9.16,37.48s0-.03,0-.05c.23-1.03,1.15-1.99,2.21-1.88.93.1,1.57.93,2.22,1.6.64.66,1.4,1.24,1.76,2.08,1.17,2.73-2.98,3.86-4.72,2.46-1.23-1-1.8-2.65-1.47-4.21Z" style="fill:#683604;"/><path d="m14.02,20.93c-.81.03-1.3.87-1.68,1.87-.16.41-.28.89-.07,1.27.24.44.82.58,1.32.55.67-.04,1.33-.31,1.84-.75,1.04-.91.43-2.3-.7-2.79-.26-.11-.49-.16-.7-.15h0Z" style="fill:#683604;"/><path d="m41.3,51.35c.53,2.24-5.85,5.72-6.41,2.29-.55-3.38,5.53-5.99,6.41-2.29Z" style="fill:#683604;"/><path d="m42.39,49.38c-.23,1.3,1.42,2.92,3.09,1.65.6-.46.74-1.51.59-2.25-.18-.94-1.43-1.34-2.31-.96-.84.36-1.27.97-1.37,1.57Z" style="fill:#683604;"/><path d="m23.9,51.88c.53.28,1.07.71,1.11,1.3.05.57-.41,1.09-.95,1.3-1.99.75-5.65-.87-5.34-3.33.12-.97,1.06-2.04,2.14-1.88,1.18.18,1.86,2,3.04,2.61Z" style="fill:#683604;"/><path d="m52.47,32.6c.92-1.76.39-2.94,1.61-3.34.83-.28,1.8.15,2.28.88,1.18,1.81-1.07,5.92-3.39,4.72-.58-.3-.8-1.69-.51-2.26Z" style="fill:#683604;"/><path d="m22.62,28.2c.24,0,.48.04.71.11.62.19,1.12.68,1.45,1.24.33.56.51,1.2.66,1.83.17.71.24,1.61-.35,2.04-.18.14-.41.2-.63.27-.5.14-1.01.25-1.53.33-.69.11-1.41.17-2.08-.03-.85-.25-1.56-.92-1.86-1.76-.82-2.31,1.47-4.09,3.62-4.03h0Z" style="fill:#683604;"/><path d="m32.03,56.46c-.08-.38-.86-.86-1.44-.63-.73.28-1.32.7-1.67,1.44-.15.31.17.57.46.5.31-.08.61-.25.9-.37.29-.12.6-.23.91-.29.41-.08.94-.21.84-.65h0Z" style="fill:#ea973d;"/><path d="m49.71,40.65c-.18-.39-1.08-.35-1.43-.16-.86.45-1.54,1.52-1.29,2.5.09.35.67.41.8.06.21-.58.6-.88,1.07-1.35.45-.45,1.03-.68.86-1.05Z" style="fill:#ea973d;"/><path d="m23.32,44.91c-.51-.31-1.56-.27-1.83.37-.09.21,0,.45.2.55.18.09.39.09.58.14.15.04.29.14.45.23.33.2.97.32,1.12,0,.23-.45-.2-1.1-.53-1.3h0Z" style="fill:#ea973d;"/><path d="m33.47,41.34c-.46-.78-1.77-.21-2.26.25-.27.25-.5.58-.57.95-.06.37.08.81.52.81.39,0,.72-.51,1.04-.69.34-.2.96-.11,1.24-.51.18-.26.19-.54.03-.81Z" style="fill:#ea973d;"/><path d="m26.79,13.06c.33.22.59,0,.82-.28.13-.16.45-.4.65-.5.2-.1.41-.11.63-.13.35-.03.41-.53.14-.7-.71-.46-1.8-.17-2.3.47-.22.29-.23.96.06,1.15Z" style="fill:#ffd880;"/><path d="m35.76,15.09c-.06.7.5.64,1.12.77.2.04.36.05.55.14.19.08.34.24.55.28.21.05.5-.05.5-.32,0-.67-.76-1.17-1.33-1.35-.37-.12-1.36.09-1.4.49h0Z" style="fill:#ffd880;"/><path d="m32.23,42.67c-.18.07-.33.17-.47.31-.08.08-.18.19-.24.24-.21.18-.49.28-.67.48-.18.21-.08.51.14.63.32.17.79.07,1.11-.07.42-.19.82-.45.89-.94.07-.42-.35-.81-.77-.65h0Z" style="fill:#ffd880;"/><path d="m19.44,20.52c.77-.32,1.4-.89,1.96-1.4.46-.42,1.09-.99,1.23-1.77.13-.68-.15-1.31-.4-1.73-1.11-1.82-3.1-2.32-5.08-1.27-1.99,1.05-2.45,3.28-1.74,4.83.33.73,1,1.42,1.99,1.61.57.11,1.26.05,2.04-.27Z" style="fill:#e08c38;"/><path d="m15.23,18.39c-.65-1.42-.23-3.49,1.61-4.46,1.73-.91,3.6-.63,4.7,1.17.28.46.46,1,.36,1.53-.12.66-.65,1.16-1.14,1.61-.57.52-1.16,1.05-1.88,1.35-1.82.74-3.11,0-3.66-1.2Z" style="fill:#683604;"/><path d="m17.52,15.2s.09-.02.14-.03c.37-.05.74.08,1.11.07.67-.01,1.39-.49,2.04-.19-.4-.5-.93-.89-1.57-1.01-.66-.13-1.4,0-2.13.39-1.53.81-1.89,2.5-1.37,3.69-.44-1,.79-2.66,1.78-2.93h0Z" style="fill:#c16d1a; isolation:isolate; opacity:.8;"/><path d="m37.74,36.92c.19-.57.73-.95,1.46-1.01.21-.02.43,0,.64-.01.24,0,.47-.05.7-.11.28-.08.56-.21.73-.45.23-.32.13-.77-.18-1-.12-.09-.31-.13-.58-.13h-.08c-1.5.04-2.75.86-3.04,2-.13.53-.03,1.06.29,1.53-.05-.3-.03-.57.05-.81h0Z" style="fill:#c16d1a; isolation:isolate; opacity:.8;"/><path d="m10.02,37.71c.09.03.19,0,.29-.01.3-.06.62-.08.91.03.27.1.49.3.74.45.39.25.86.39,1.33.4.08,0,.16,0,.23-.05.12-.09.09-.27.04-.41-.27-.71-1.46-1.87-2.24-1.95-.03,0-.07,0-.1,0-.5,0-1.26.56-1.4,1.05-.06.19.02.44.22.5Z" style="fill:#c16d1a; isolation:isolate; opacity:.8;"/><path d="m13.16,22.89c.14.02.3-.07.44-.13.24-.09.51-.06.76-.04,1.44.09.83-1.1-.22-1.2-.03,0-.07,0-.1,0-.43.02-.87.64-1.04,1-.05.11-.04.27.06.34.03.02.06.04.1.04h0Z" style="fill:#c16d1a; isolation:isolate; opacity:.8;"/><path d="m36.58,51.5s.04.03.07.04c.26.14.57.08.85-.03.27-.1.54-.25.83-.26.29-.01.56.11.84.19,1.22.37,1.5-1.01.25-1.26-.92-.18-2.24.16-2.87.88-.04.05-.08.09-.09.15-.02.1.04.2.12.27h0Z" style="fill:#c16d1a; isolation:isolate; opacity:.8;"/><path d="m44,48.38c-.23.1-.52.19-.67.41-.09.13-.11.33,0,.44.05.05.13.08.2.1.43.12.9.08,1.29-.11.19-.09.38-.24.41-.44.09-.57-.94-.52-1.24-.4h0Z" style="fill:#c16d1a; isolation:isolate; opacity:.8;"/><path d="m19.75,51.11c.16.03.34,0,.5-.06.21-.07.44-.16.66-.11.21.04.44.19.61.06.08-.06.11-.17.12-.27.02-.45-.45-.86-.86-.92-.07,0-.14-.01-.2,0-.37.03-1.66.88-.98,1.26.05.03.1.05.16.06h0Z" style="fill:#c16d1a;"/><path d="m53.33,33.68c.44-.84.44-2.7,1.6-2.78.17-.01.35,0,.51-.05.99-.32-.35-1.06-.82-1.06-.12,0-.23.02-.34.05-.36.12-.42.28-.58,1.04-.12.54-.26,1.21-.68,2-.07.14-.1.59.04,1.04.08.26.18.37.21.39,0,0,0,0,.01,0-.02-.29,0-.53.06-.63h0Z" style="fill:#c16d1a; isolation:isolate; opacity:.8;"/><path d="m20.05,30.76c.16-.14.33-.26.5-.31.29-.1.62-.05.91-.12.4-.09.72-.37,1.06-.61.44-.31,1.01-.55,1.5-.24-.25-.3-.55-.51-.86-.61-.16-.05-.34-.08-.56-.08h-.1c-1.06,0-2.14.53-2.7,1.31-.26.37-.51.95-.32,1.71.02-.35.26-.76.56-1.04h0Z" style="fill:#c16d1a; isolation:isolate; opacity:.8;"/><path d="m13.35,29.96c-.51,0-.95.34-.95.81,0-.16-.01.04-.01.06,0,.09,0,.19-.01.28,0,.11,0,.22.02.33.03.27.11.52.27.74.18.28.6.14.66-.16.04-.18.07-.38.12-.56,0,0,0,0,0-.01,0,0,0-.01,0-.02.02-.05.03-.09.06-.14.02-.04.03-.07.05-.11,0-.01,0-.02.01-.03,0,0,.02,0,.03-.03.51-.93.19-1.18-.26-1.17Z" style="fill:#ffd880;"/><path d="m36.27,25.54c.01-.24-.18-.47-.47-.37-.5.17-.98.42-1.45.67-.27.14-.35.54-.26.8.11.31.4.45.71.46.67.01,1.45-.35,1.62-1.05.05-.21-.02-.39-.15-.52h0Z" style="fill:#ea973d;"/><path d="m32.8,23.65c-.15-.03-.35-.03-.51-.02-.16,0-.38.06-.52.15-.22.16-.24.43-.11.65.08.15.28.27.43.35.15.08.31.15.48.18.34.08.73-.19.77-.54.05-.37-.18-.69-.54-.77h0Z" style="fill:#ea973d;"/><path d="m44.44,25.63h0c.99.14,2.03-.1,2.93-.67,1.45-.92,1.72-1.95,1.72-3.11-1.06.06-2.18-.62-2.97-1.52-.33-.37-.56-.78-.8-1.21-.1-.19-.34-.64-.35-.66-.13-.2-.07-.15-.26-.26-.34-.19-.75-.3-1.12-.42-.21.17-.36.38-.44.63-.08.24-.08.48-.07.71,0,.11,0,.21,0,.31-.04.48-.32.78-.64,1.12-.27.28-.54.57-.7.98-.34.9-.07,1.98.35,2.64.51.8,1.34,1.32,2.35,1.46h0Z" style="fill:#e08c38;"/><path d="m48.35,25.81c.93-.49,1.35-1.62,1.39-2.66.01-.41-.56-.6-.72-.18-.31.78-.78,1.4-1.49,1.83-1.36.83-.17,1.54.82,1.01Z" style="fill:#ffd880;"/><path d="m48.73,10.08c.81-.69,1.36-1.73,2.08-2.51-1.19-.86-2.72-1.52-3.01-1.35-.42.23-.8,1.19-.68,2.37.27.41,1.02,1.19,1.62,1.49Z" style="fill:#f7b657;"/><path d="m51.73,8.64c-.05-.34-.42-.72-.92-1.08-.71.79-1.26,1.82-2.08,2.51.73.36,1.42.6,1.42.6,0,0,1.76-.9,1.58-2.04h0Z" style="fill:#ea973d;"/><path d="m47.03,9.21c.61.59,1.84,1.48,2.51,1.75.11.04.22.07.33.09.35.05.7-.03,1-.23.99-.68,1.47-1.47,1.35-2.25-.17-1.03-1.83-1.94-2.54-2.28-1.58-.77-1.97-.55-2.1-.49-.55.31-1.09,1.24-.95,2.55.03.33.18.64.41.86Zm4.19-.81c.08.1.12.19.13.26.1.6-.71,1.22-1.05,1.46-.14.1-.32.12-.49.05,0,0,0,0-.01,0-.18-.08-.23-.31-.09-.45.33-.34.72-.78,1.05-1.31.11-.17.35-.17.46-.01h0Zm-3.57-1.41c.11-.26.41-.39.68-.3.37.12.91.35,1.5.69.08.05.16.09.24.14.19.12.25.37.13.56-.33.52-.73.96-1.03,1.26-.14.14-.36.16-.53.04-.39-.29-.68-.51-.93-.75-.07-.07-.21-.26-.22-.37-.06-.55.03-.98.16-1.27h0Z" style="fill:#aa5900;"/><path d="m56.48,16.41c.58-.04,1.08-.02,1.03-1.06-.06-1.32-.78-2.82-1.64-2.76-.52.18-1.13.86-1.21,1.39-.08.5.08.96.33,1.54.24.56.84.94,1.49.9h0Z" style="fill:#f7b657;"/><path d="m56.1,16.89c.14.02.27.02.42.01h.08c.52-.04,1.48-.1,1.41-1.57-.05-1.12-.52-2.28-1.14-2.84-.31-.28-.67-.42-1.03-.39-.04,0-.09.01-.13.03-.71.25-1.43,1.08-1.54,1.78-.1.64.1,1.19.36,1.81.27.64.88,1.09,1.57,1.18h0Zm-.38-3.89c.15-.11.35-.11.49,0,.46.42.85,1.43.89,2.35.02.36-.16.56-.53.58h-.09c-.46.04-.93-.24-1.1-.65-.26-.62-.38-1-.32-1.38.04-.28.35-.68.66-.92h0Z" style="fill:#aa5900;"/><path d="m57.98,8.19c.38-.6-.17-1.79-1.01-2.21-.38-.19-.49-.17-.74.24-.28.45-.32,1.29,0,1.61.69.68,1.44.66,1.75.35h0Z" style="fill:#f7b657;"/><path d="m55.9,8.17c.41.4.86.62,1.27.67.46.07.88-.06,1.14-.32.03-.03.05-.06.07-.09.21-.33.25-.78.11-1.25-.19-.68-.71-1.32-1.31-1.62-.61-.3-.98-.19-1.35.42-.38.61-.43,1.7.07,2.19Zm.67-1.79c.03-.05.13-.1.16-.08.42.21.8.69.94,1.18.04.15.06.28.05.39,0,.08-.07.15-.15.16-.24.04-.64-.05-1.07-.47-.13-.13-.16-.79.08-1.17Z" style="fill:#aa5900;"/><path d="m56.09,24.38c.89-.17,1.56-.62.82-1.65-.4-.55-1.27-.55-1.86-.77-.63-.23-1.23-.55-1.76-.97-.5-.39-1-.88-1.3-1.45-.09-.18-.28-.29-.48-.29-3.95,0-4.69-3.53-4.72-3.67-.04-.19-.18-.35-.37-.41-3.61-1.16-3.17-5.21-3.15-5.38.01-.12-.01-.25-.08-.36-.91-1.43-1.6-2.69-3.45-3.54-.54-.25-1.35-.72-1.45.11-.08.63.48,1.89.69,2.49.14.39,1.01,1.52.98,1.84-.36,4.09,1.31,6.01,2.35,6.8.76.58,1.64.92,2.56,1.01.29,1.68.83,3.32,2.95,4.1.93.35,1.95.44,2.97.28,0,0,0,0,.01,0,.02,0,.07,0,.05,0-.07,0,.86.95,1.51,1.32.64.36,1.37.55,2.1.61.43.04,1.07.04,1.63-.07h0Zm-15.74-15.1c-.33-.53-.59-1.17-.77-1.87-.04-.14.11-.26.24-.19.68.38,1.27.98,1.78,1.63.19.25.06.62-.25.68-.1.02-.2.04-.3.06-.27.05-.55-.07-.7-.31Zm4.76,7.16c-.21.27-.43.53-.61.71-.59-.13-1.15-.38-1.65-.76-1.88-1.42-2.08-4-2.02-5.53,0-.18.14-.33.32-.36.19-.04.38-.08.56-.11.23-.05.45.12.47.36.03.45.1,1.01.26,1.6.42,1.51,1.29,2.65,2.54,3.36.26.15.32.5.14.74h0Zm5.77,4.27c-.02.09-.04.17-.07.25-.11.41-.48.71-.91.71-.64,0-1.26-.09-1.84-.31-1.71-.64-2.21-1.86-2.53-3.9-.02-.12-.08-.22-.17-.29.03-.03.06-.07.09-.11.2-.24.58-.2.72.07.65,1.21,1.93,2.72,4.34,3.06h0c.25.03.41.27.35.52h0Zm4.76,2.93c-1.47.09-3.21-.46-4.15-1.61-.14-.18-.18-.41-.11-.63.01-.04.02-.07.03-.11.06-.19.3-.26.45-.11.77.76,2,1.63,3.81,2.08.07.02.12.07.14.13.04.12-.05.24-.17.25h0Z" style="fill:#aa5900;"/><path d="m46.78,24.12c1.59-1.06,2.15-2.02,1.08-3.5-.08-.12-.78-.85-.89-.95-.25-.21-.51-.43-.68-.71-.12-.2-.56-1.1-.62-1.33-.28-1.01-2.29-1.56-2.71.26-.07.31-.04.63-.07.95-.08,1.01-1.04,1.32-1.36,2.17-.29.75-.09,1.74.33,2.4.96,1.51,3.18,1.87,4.91.71h0Z" style="fill:#683604;"/><path d="m42.1,21.98c.11-.28.34-.52.58-.78.36-.37.64-.74.81-1.24.18-.49.71-1.11.75-1.7,0-.1,0-.19-.03-.28-.24-.85-.77.11-.76.53,0,.12,0,.24,0,.37-.06.77-.51,1.24-.87,1.62-.22.23-.43.45-.53.71-.13.34-.12.75-.03,1.14.02-.13.05-.25.09-.37h0Z" style="fill:#c16d1a; isolation:isolate; opacity:.8;"/>
</g>
<!-- it-check-circle -->
<g viewBox="0 0 64 64" id="it-check-circle-bg">
<path id="n" d="m32,4c-15.43,0-28,12.57-28,28s12.57,28,28,28,28-12.57,28-28S47.43,4,32,4Zm13.38,21.56l-15.88,15.88c-.39.39-.92.62-1.48.62s-1.09-.22-1.48-.62l-7.92-7.92c-.81-.81-.81-2.16,0-2.97.81-.81,2.16-.81,2.97,0l6.44,6.44,14.39-14.39c.81-.81,2.16-.81,2.97,0s.81,2.13,0,2.97Z" style="stroke-width:0px;"/>
</g>
<!-- it-minus-circle -->
<g viewBox="0 0 64 64" id="it-minus-circle-bg">
<path d="m32,4c-15.44,0-28,12.56-28,28s12.56,28,28,28,28-12.56,28-28S47.44,4,32,4Zm10.42,29.95h-20.84c-1.08,0-1.95-.87-1.95-1.95s.87-1.95,1.95-1.95h20.84c1.08,0,1.95.87,1.95,1.95s-.87,1.95-1.95,1.95Z" style="stroke-width:0px;"/>
</g>
<!-- it-arrow-down-circle -->
<g viewBox="0 0 64 64" id="it-arrow-down-circle-bg">
<path id="m" d="m60,32c0-15.43-12.57-28-28-28S4,16.57,4,32s12.57,28,28,28,28-12.57,28-28Zm-29.48,7.81l-9.88-9.88c-.42-.42-.62-.95-.62-1.48s.2-1.06.62-1.48c.81-.81,2.16-.81,2.97,0l8.4,8.4,8.4-8.4c.81-.81,2.16-.81,2.97,0,.81.81.81,2.16,0,2.97l-9.88,9.88c-.81.84-2.16.84-2.97,0Z" style="stroke-width:0px;"/>
</g>
<!-- it-user -->
<g viewBox="0 0 64 64" id="it-user-bg">
<path d="m31.83,31.32c7.54,0,13.66-6.12,13.66-13.66s-6.12-13.66-13.66-13.66-13.66,6.12-13.66,13.66,6.12,13.66,13.66,13.66Z" style="stroke-width:0px;"/><path d="m31.83,38.15c-13.69,0-24.83,9.18-24.83,20.49,0,.76.6,1.37,1.37,1.37h46.93c.76,0,1.37-.6,1.37-1.37,0-11.31-11.15-20.49-24.83-20.49Z" style="stroke-width:0px;"/>
</g>
<!-- it-help-circle -->
<g viewBox="0 0 64 64" id="it-help-circle-bg">
<path id="n" d="m51.8,12.2c-5.25-5.25-12.37-8.2-19.8-8.2s-14.55,2.95-19.8,8.2-8.2,12.37-8.2,19.8,2.95,14.55,8.2,19.8,12.37,8.2,19.8,8.2,14.55-2.95,19.8-8.2,8.2-12.37,8.2-19.8-2.95-14.55-8.2-19.8Zm-16.97,36.63c-.75.75-1.77,1.17-2.83,1.17s-2.08-.42-2.83-1.17-1.17-1.77-1.17-2.83.42-2.08,1.17-2.83,1.77-1.17,2.83-1.17,2.08.42,2.83,1.17,1.17,1.77,1.17,2.83-.42,2.08-1.17,2.83Zm7.99-21.8c-.38,2.01-1.31,3.88-2.69,5.39s-3.16,2.61-5.13,3.16c0,.8-.32,1.56-.88,2.13-.56.56-1.32.87-2.12.87s-1.56-.31-2.12-.87c-.56-.57-.88-1.33-.88-2.13v-2.58c0-.8.32-1.56.88-2.12s1.32-.88,2.12-.88c.99,0,1.96-.29,2.78-.84.82-.55,1.46-1.33,1.84-2.25.38-.91.48-1.92.28-2.89-.19-.97-.67-1.86-1.36-2.56-.7-.69-1.59-1.17-2.56-1.36-.97-.2-1.98-.1-2.89.28-.92.38-1.7,1.02-2.25,1.84-.55.82-.84,1.79-.84,2.78,0,.8-.32,1.56-.88,2.12s-1.32.88-2.12.88-1.56-.32-2.12-.88-.88-1.32-.88-2.12c0-2.05.57-4.05,1.65-5.8,1.07-1.74,2.62-3.14,4.45-4.06,1.83-.91,3.88-1.29,5.92-1.1,2.04.19,3.99.94,5.62,2.18,1.63,1.23,2.89,2.9,3.63,4.81.74,1.91.93,3.99.55,6Z" style="fill-rule:evenodd; stroke-width:0px;"/>
</g>
<!-- it-clock -->
<g viewBox="0 0 64 64" id="it-clock-bg">
<path d="m32,4c-15.46,0-28,12.54-28,28s12.54,28,28,28,28-12.54,28-28S47.46,4,32,4Zm1.1,27.71l1.2,1.92,9.17,5.48c.48.29.82.77.96,1.3.14.53.05,1.1-.24,1.58-.58,1.01-1.83,1.44-2.98.72l-8.6-5.19c-2.16-1.25-3.75-4.08-3.75-6.58v-11.48c0-1.15.96-2.11,2.07-2.11s2.11.96,2.11,2.11v11.29l.05.96Z"/>
</g>
<!-- it-plus-circle -->
<g viewBox="0 0 64 64" id="it-plus-circle-bg">
<path d="m51.8,12.2C40.9,1.3,23.1,1.3,12.2,12.2c-10.92,10.92-10.9,28.69,0,39.6s28.67,10.92,39.6,0c10.9-10.9,10.92-28.67,0-39.6Zm-17.85,30.22c0,1.1-.87,1.97-1.95,1.95-.53.02-1.01-.21-1.38-.57-.35-.35-.57-.83-.57-1.38v-8.47h-8.47c-.54.01-1.01-.21-1.38-.57s-.57-.83-.57-1.38c0-1.07.86-1.94,1.95-1.95h8.47v-8.47c0-1.07.86-1.94,1.95-1.95,1.09.01,1.95.88,1.95,1.95v8.47h8.47c1.09.01,1.96.88,1.95,1.95,0,1.1-.86,1.97-1.95,1.95h-8.47v8.47Z" style="stroke-width:0px;"/>
</g>
<!-- it-arrow-left-circle -->
<g viewBox="0 0 64 64" id="it-arrow-left-circle-bg">
<path id="m" d="m32,60c15.43,0,28-12.57,28-28S47.43,4,32,4,4,16.57,4,32s12.57,28,28,28Zm-7.81-29.48l9.88-9.88c.42-.42.95-.62,1.48-.62s1.06.2,1.48.62c.81.81.81,2.16,0,2.97l-8.4,8.4,8.4,8.4c.81.81.81,2.16,0,2.97-.81.81-2.16.81-2.97,0l-9.88-9.88c-.84-.81-.84-2.16,0-2.97Z" style="stroke-width:0px;"/>
</g>
<!-- it-error -->
<g viewBox="0 0 64 64" id="it-error-bg">
<path id="n" d="m32,4c-15.43,0-28,12.57-28,28s12.57,28,28,28,28-12.57,28-28S47.43,4,32,4Zm-2.1,16.8c0-1.15.95-2.1,2.1-2.1s2.1.95,2.1,2.1v14c0,1.15-.95,2.1-2.1,2.1s-2.1-.95-2.1-2.1v-14Zm4.68,23.46c-.14.36-.34.64-.59.92-.28.25-.59.45-.92.59-.34.14-.7.22-1.06.22s-.73-.08-1.06-.22c-.34-.14-.64-.34-.92-.59-.25-.28-.45-.56-.59-.92-.14-.34-.22-.7-.22-1.06s.08-.73.22-1.06c.14-.34.34-.64.59-.92.28-.25.59-.45.92-.59.67-.28,1.46-.28,2.13,0,.34.14.64.34.92.59.25.28.45.59.59.92s.22.7.22,1.06-.08.73-.22,1.06Z" style="stroke-width:0px;"/>
</g>
<!-- it-locked -->
<g viewBox="0 0 64 64" id="it-locked-bg">
<path d="m49.58,25.08v-3.5c0-7.56-1.82-17.58-17.58-17.58S14.42,14.02,14.42,21.58v3.5c-7.84.98-10.42,4.96-10.42,14.73v5.21c0,11.48,3.5,14.98,14.98,14.98h26.04c11.48,0,14.98-3.5,14.98-14.98v-5.21c0-9.77-2.58-13.75-10.42-14.73Zm-17.58,25.79c-4.68,0-8.46-3.81-8.46-8.46s3.81-8.46,8.46-8.46,8.46,3.81,8.46,8.46-3.78,8.46-8.46,8.46Zm13.66-26.01h-26.68v-.03h-.64v-3.25c0-8.2,2.32-13.66,13.66-13.66s13.66,5.46,13.66,13.66v3.28Z" style="stroke-width:0px;"/><path d="m32,46.98c2.52,0,4.56-2.04,4.56-4.56s-2.04-4.56-4.56-4.56-4.56,2.04-4.56,4.56,2.04,4.56,4.56,4.56Z" style="stroke-width:0px;"/>
</g>
<!-- it-arrow-right-circle -->
<g viewBox="0 0 64 64" id="it-arrow-right-circle-bg">
<path id="m" d="m33,4c-15.43,0-28,12.57-28,28s12.57,28,28,28,28-12.57,28-28S48.43,4,33,4Zm7.81,29.48l-9.88,9.88c-.42.42-.95.62-1.48.62s-1.06-.2-1.48-.62c-.81-.81-.81-2.16,0-2.97l8.4-8.4-8.4-8.4c-.81-.81-.81-2.16,0-2.97.81-.81,2.16-.81,2.97,0l9.88,9.88c.84.81.84,2.16,0,2.97Z" style="stroke-width:0px;"/>
</g>
<!-- it-close -->
<g viewBox="0 0 64 64" id="it-close-bg">
<path id="j" d="m43.75,4h-23.48c-10.2,0-16.28,6.08-16.28,16.28v23.45c0,10.22,6.08,16.3,16.28,16.3h23.45c10.2,0,16.28-6.08,16.28-16.28v-23.48c.03-10.2-6.05-16.28-16.25-16.28Zm-2.33,34.46c.81.81.81,2.16,0,2.97-.42.42-.95.62-1.48.62s-1.06-.2-1.48-.62l-6.44-6.44-6.44,6.44c-.42.42-.95.62-1.48.62s-1.06-.2-1.48-.62c-.81-.81-.81-2.16,0-2.97l6.44-6.44-6.44-6.44c-.81-.81-.81-2.16,0-2.97.81-.81,2.16-.81,2.97,0l6.44,6.44,6.44-6.44c.81-.81,2.16-.81,2.97,0,.81.81.81,2.16,0,2.97l-6.44,6.44,6.44,6.44Z" style="stroke-width:0px;"/>
</g>
<!-- it-info-circle -->
<g viewBox="0 0 64 64" id="it-info-circle-bg">
<path d="m51.79,12.19c-5.25-5.25-12.37-8.19-19.79-8.19s-14.56,2.94-19.81,8.19-8.19,12.39-8.19,19.81,2.94,14.54,8.19,19.79,12.39,8.21,19.81,8.21,14.54-2.96,19.79-8.21,8.21-12.37,8.21-19.79-2.96-14.56-8.21-19.81Zm-22.61,4.97c.75-.75,1.75-1.17,2.82-1.17s2.08.42,2.82,1.17,1.17,1.77,1.17,2.85-.42,2.08-1.17,2.82c-.75.75-1.77,1.17-2.82,1.17s-2.08-.42-2.82-1.17c-.77-.75-1.19-1.77-1.19-2.82s.42-2.1,1.19-2.85Zm10.59,28.61c-.47.47-1.12.72-1.77.72h-11.99c-.68,0-1.31-.26-1.77-.72-.47-.47-.72-1.1-.72-1.77s.26-1.31.72-1.77c.47-.47,1.1-.72,1.77-.72h3.5v-9.01h-1.52c-.65,0-1.28-.26-1.75-.72s-.75-1.1-.75-1.77.28-1.31.75-1.77c.47-.47,1.1-.72,1.75-.72h4.01c.65,0,1.31.26,1.77.72.47.47.72,1.12.72,1.77v11.5h3.5c.65,0,1.31.26,1.77.72.47.47.72,1.12.72,1.77s-.26,1.31-.72,1.77Z" style="fill-rule:evenodd; stroke-width:0px;"/>
</g>
<!-- it-unlocked -->
<g viewBox="0 0 64 64" id="it-unlocked-bg">
<path d="m36.58,42.42c0,2.52-2.04,4.56-4.56,4.56-1.79,0-3.33-1.04-4.06-2.52l6.1-6.1c1.48.73,2.52,2.27,2.52,4.06Z" style="stroke-width:0px;"/><path d="m59.37,4.64c-.84-.84-2.21-.84-3.05,0l-7.87,7.87c-2.16-5.66-7.67-8.51-16.44-8.51-15.76,0-17.58,10.02-17.58,17.58v3.5h.08c-7.92.95-10.5,4.9-10.5,14.73v5.21c0,4.48.53,7.73,1.88,10.05l-1.26,1.26c-.84.84-.84,2.21,0,3.05.45.39.98.62,1.54.62s1.09-.22,1.51-.64L59.37,7.67c.87-.84.87-2.18,0-3.02ZM18.99,24.83h-.64v-3.25c0-8.2,2.32-13.66,13.66-13.66,9.52,0,12.52,3.64,13.36,7.7l-9.21,9.21h-17.16Z" style="stroke-width:0px;"/><path d="m60.02,39.81v5.21c0,11.48-3.5,14.98-14.98,14.98h-25.87c-2.49,0-3.72-3.02-1.96-4.79l7.9-7.9c.2.28.42.53.64.78,1.96,2.13,4.87,3.25,8.09,2.58.25-.06.5-.11.76-.22.25-.06.48-.14.7-.25.56-.2,1.09-.5,1.6-.87.2-.11.36-.25.5-.39.42-.34.81-.73,1.15-1.15.14-.14.28-.31.39-.5.36-.5.67-1.04.87-1.6.11-.22.2-.45.25-.7.11-.25.17-.5.22-.76.67-3.22-.45-6.13-2.58-8.09-.22-.22-.5-.45-.78-.64l8.74-8.74c.14-.14.25-.25.39-.36,1.12-.92,2.55-1.37,3.98-1.26.25.03.53.06.78.11.48.08.95.2,1.4.31s.87.25,1.29.39c.81.31,1.51.67,2.16,1.09s1.18.92,1.68,1.51c.25.31.5.64.7,1.01.2.31.36.64.53,1.01.17.36.31.76.45,1.15.17.48.31,1.01.42,1.57.11.39.17.81.25,1.26.06.42.11.87.17,1.34.11,1.18.17,2.49.17,3.92Z" style="stroke-width:0px;"/>
</g>
<!-- it-close-big -->
<g viewBox="0 0 64 64" id="it-close-big-bg">
<path id="j" d="m40.4,4h-16.8c-14,0-19.6,5.6-19.6,19.6v16.8c0,14,5.6,19.6,19.6,19.6h16.8c14,0,19.6-5.6,19.6-19.6v-16.8c0-14-5.6-19.6-19.6-19.6Zm9.88,43.32c.82.81.82,2.15,0,2.96-.42.4-.95.62-1.48.62s-1.06-.22-1.48-.62l-15.32-15.31-15.32,15.31c-.42.4-.95.62-1.48.62s-1.06-.22-1.48-.62c-.82-.81-.82-2.15,0-2.96l15.31-15.32-15.31-15.32c-.82-.81-.82-2.15,0-2.96.81-.84,2.15-.84,2.96,0l15.32,15.31,15.32-15.31c.81-.84,2.15-.84,2.96,0,.82.81.82,2.15,0,2.96l-15.31,15.32,15.31,15.32Z" style="stroke-width:0px;"/>
</g>
<!-- it-warning -->
<g viewBox="0 0 64 64" id="it-warning-bg">
<path id="o" d="m58.18,42.33l-17.16-30.9c-2.31-4.16-5.5-6.44-9.01-6.44s-6.71,2.28-9.01,6.44L5.82,42.33c-2.17,3.94-2.41,7.72-.67,10.7,1.74,2.98,5.18,4.61,9.68,4.61h34.33c4.51,0,7.94-1.64,9.68-4.61,1.74-2.98,1.5-6.79-.67-10.7Zm-28.19-18.56c0-1.1.91-2.01,2.01-2.01s2.01.91,2.01,2.01v13.41c0,1.1-.91,2.01-2.01,2.01s-2.01-.91-2.01-2.01v-13.41Zm3.92,23.36c-.13.11-.27.21-.4.32-.16.11-.32.19-.48.24-.16.08-.32.13-.51.16-.16.03-.35.05-.51.05s-.35-.03-.54-.05c-.16-.03-.32-.08-.48-.16-.16-.05-.32-.13-.48-.24-.13-.11-.27-.21-.4-.32-.48-.51-.78-1.21-.78-1.9s.3-1.39.78-1.9c.13-.11.27-.21.4-.32.16-.11.32-.19.48-.24.16-.08.32-.13.48-.16.35-.08.72-.08,1.05,0,.19.03.35.08.51.16.16.05.32.13.48.24.13.11.27.21.4.32.48.51.78,1.21.78,1.9s-.29,1.39-.78,1.9Z" style="stroke-width:0px;"/>
</g>
<!-- it-document-text -->
<g viewBox="0 0 64 64" id="it-document-text-bg">
<path id="u" d="m43.4,4h-22.4c-9.8,0-14,5.6-14,14v28c0,8.4,4.2,14,14,14h22.4c9.8,0,14-5.6,14-14v-28c0-8.4-4.2-14-14-14Zm-22.4,28.7h11.2c1.15,0,2.1.95,2.1,2.1s-.95,2.1-2.1,2.1h-11.2c-1.15,0-2.1-.95-2.1-2.1s.95-2.1,2.1-2.1Zm22.4,15.4h-22.4c-1.15,0-2.1-.95-2.1-2.1s.95-2.1,2.1-2.1h22.4c1.15,0,2.1.95,2.1,2.1s-.95,2.1-2.1,2.1Zm7-23.8h-5.6c-4.26,0-7.7-3.44-7.7-7.7v-5.6c0-1.15.95-2.1,2.1-2.1s2.1.95,2.1,2.1v5.6c0,1.93,1.57,3.5,3.5,3.5h5.6c1.15,0,2.1.95,2.1,2.1s-.95,2.1-2.1,2.1Z" style="stroke-width:0px;"/>
</g>
<!-- it-download-doc -->
<g viewBox="0 0 64 64" id="it-download-doc-bg">
<path d="m55.4,26.93h-8.09c-6.64,0-12.04-5.4-12.04-12.04V6.8c0-1.54-1.26-2.8-2.8-2.8h-11.87c-8.62,0-15.6,5.6-15.6,15.6v24.81c0,10,6.97,15.6,15.6,15.6h22.01c8.62,0,15.6-5.6,15.6-15.6v-14.67c0-1.54-1.26-2.8-2.8-2.8Zm-23.02,15.65l-5.6,5.6c-.2.2-.45.36-.7.45-.25.11-.5.17-.78.17s-.53-.06-.78-.17c-.22-.08-.45-.25-.62-.42-.03-.03-.06-.03-.06-.06l-5.6-5.6c-.81-.81-.81-2.16,0-2.97.81-.81,2.16-.81,2.97,0l1.99,2.04v-11.73c0-1.15.95-2.1,2.1-2.1s2.1.95,2.1,2.1v11.73l2.02-2.02c.81-.81,2.16-.81,2.97,0,.81.81.81,2.16,0,2.97Z" style="stroke-width:0px;"/><path d="m46.81,23.07c2.66.03,6.36.03,9.52.03,1.6,0,2.44-1.88,1.32-3-4.03-4.06-11.26-11.37-15.4-15.51-1.15-1.15-3.14-.36-3.14,1.23v9.77c0,4.09,3.47,7.48,7.7,7.48Z" style="stroke-width:0px;"/>
</g>
<!-- it-warning-circle -->
<g viewBox="0 0 64 64" id="it-warning-circle-bg">
<circle cx="32" cy="32" r="28" style="stroke-width:0px;"/><path d="m45.66,37.65l-8.96-16.13c-1.2-2.17-2.87-3.36-4.7-3.36s-3.5,1.19-4.7,3.36l-8.96,16.13c-1.13,2.06-1.26,4.03-.35,5.59.91,1.55,2.7,2.41,5.05,2.41h17.92c2.35,0,4.14-.85,5.05-2.41.91-1.55.78-3.54-.35-5.59Zm-14.71-9.69c0-.57.48-1.05,1.05-1.05s1.05.48,1.05,1.05v7c0,.57-.48,1.05-1.05,1.05s-1.05-.48-1.05-1.05v-7Zm2.04,12.19c-.07.06-.14.11-.21.17-.08.06-.17.1-.25.13-.08.04-.17.07-.27.08-.08.01-.18.03-.27.03s-.18-.01-.28-.03c-.08-.01-.17-.04-.25-.08-.08-.03-.17-.07-.25-.13-.07-.06-.14-.11-.21-.17-.25-.27-.41-.63-.41-.99s.15-.73.41-.99c.07-.06.14-.11.21-.17.08-.06.17-.1.25-.13.08-.04.17-.07.25-.08.18-.04.38-.04.55,0,.1.01.18.04.27.08.08.03.17.07.25.13.07.06.14.11.21.17.25.27.41.63.41.99s-.15.73-.41.99Z" style="fill:#fff; stroke-width:0px;"/>
</g>
<!-- it-pencil -->
<g viewBox="0 0 64 64" id="it-pencil-bg">
<path id="i" d="m43.73,4h-23.46c-10.19,0-16.27,6.08-16.27,16.27v23.44c0,10.22,6.08,16.3,16.27,16.3h23.44c10.19,0,16.27-6.08,16.27-16.27v-23.46c.03-10.19-6.05-16.27-16.24-16.27Zm-14.67,43.43c-.81.81-2.35,1.6-3.47,1.76l-6.89.98c-.25.03-.5.06-.76.06-1.15,0-2.21-.39-2.97-1.15-.92-.92-1.32-2.27-1.09-3.75l.98-6.89c.17-1.15.92-2.66,1.76-3.47l12.49-12.49c.22.59.45,1.18.76,1.85.28.59.59,1.2.92,1.76.28.48.59.92.84,1.26.31.48.67.92.9,1.18.14.2.25.34.31.39.7.84,1.51,1.62,2.21,2.21.2.2.31.31.36.34.42.34.84.67,1.2.92.45.34.9.64,1.37.9.56.34,1.18.64,1.79.95.64.28,1.23.53,1.82.73l-12.54,12.46Zm17.98-17.98l-2.58,2.6c-.17.17-.39.25-.62.25-.08,0-.2,0-.25-.03-5.68-1.62-10.22-6.16-11.84-11.84-.08-.31,0-.64.22-.84l2.6-2.6c4.26-4.26,8.32-4.17,12.49,0,2.13,2.13,3.16,4.17,3.16,6.3-.03,2.02-1.06,4.03-3.19,6.16Z" style="stroke-width:0px;"/>
</g>
<!-- it-refresh -->
<g viewBox="0 0 64 64" id="it-refresh-bg">
<path id="f" d="m43.75,4h-23.48c-10.2,0-16.28,6.08-16.28,16.28v23.45c0,10.22,6.08,16.3,16.28,16.3h23.45c10.2,0,16.28-6.08,16.28-16.28v-23.48c.03-10.2-6.05-16.28-16.25-16.28Zm-11.74,46.45c-8.88,0-16.11-7.23-16.11-16.11s6.95-15.8,15.58-16.11l-1.04-1.2c-.76-.87-.67-2.21.2-2.97.87-.76,2.21-.67,2.97.2l4.65,5.32c.06.06.08.11.14.17.11.17.22.36.28.56.03.11.06.22.08.34.06.25.03.53-.03.78-.06.22-.14.45-.25.67-.03.06-.08.11-.11.17-.11.17-.28.31-.45.42,0,0-.03,0-.03.03l-5.43,3.98c-.95.67-2.24.48-2.94-.45-.67-.92-.48-2.24.45-2.94l1.15-.84c-6.16.45-11.04,5.6-11.04,11.88s5.35,11.91,11.91,11.91,11.91-5.35,11.91-11.91c0-2.35-.7-4.65-1.99-6.61-.64-.95-.39-2.27.59-2.91.98-.64,2.27-.39,2.91.59,1.76,2.66,2.72,5.74,2.72,8.94,0,8.88-7.23,16.11-16.11,16.11Z" style="stroke-width:0px;"/>
</g>
<!-- it-search -->
<g viewBox="0 0 64 64" id="it-search-bg">
<path d="m30.7,57.4c-14.72,0-26.7-11.98-26.7-26.7S15.98,4,30.7,4s26.7,11.98,26.7,26.7-11.98,26.7-26.7,26.7Z" style="stroke-width:0px;"/><path d="m58.05,60c-.5,0-1-.19-1.38-.57l-5.21-5.21c-.76-.76-.76-2,0-2.76s2-.76,2.76,0l5.21,5.21c.76.76.76,2,0,2.76-.38.38-.88.57-1.38.57Z" style="stroke-width:0px;"/>
</g>
<!-- it-upload-doc -->
<g viewBox="0 0 64 64" id="it-upload-doc-bg">
<path d="m55.4,26.93h-8.09c-6.64,0-12.04-5.4-12.04-12.04V6.8c0-1.54-1.26-2.8-2.8-2.8h-11.87c-8.62,0-15.6,5.6-15.6,15.6v24.81c0,10,6.97,15.6,15.6,15.6h22.01c8.62,0,15.6-5.6,15.6-15.6v-14.67c0-1.54-1.26-2.8-2.8-2.8Zm-25.12,9.35c-.42.42-.95.62-1.48.62s-1.06-.2-1.48-.62l-2.02-2.02v11.73c0,1.15-.95,2.1-2.1,2.1s-2.1-.95-2.1-2.1v-11.73l-2.02,2.02c-.81.81-2.16.81-2.97,0-.81-.81-.81-2.16,0-2.97l5.6-5.6c.2-.17.39-.31.62-.42.06-.03.14-.06.2-.08.17-.06.34-.08.53-.11h.22c.22,0,.45.06.67.14h.06c.22.08.45.25.62.42.03.03.06.03.06.06l5.6,5.6c.81.81.81,2.16,0,2.97Z" style="stroke-width:0px;"/><path d="m46.81,23.07c2.66.03,6.36.03,9.52.03,1.6,0,2.44-1.88,1.32-3-4.03-4.06-11.26-11.37-15.4-15.51-1.15-1.15-3.14-.36-3.14,1.23v9.77c0,4.09,3.47,7.48,7.7,7.48Z" style="stroke-width:0px;"/>
</g>
<!-- it-delete -->
<g viewBox="0 0 64 64" id="it-delete-bg">
<path d="m56.01,14.36c-4.19-.42-8.38-.73-12.6-.96v-.03l-.57-3.38c-.39-2.4-.96-5.99-7.06-5.99h-6.82c-6.07,0-6.64,3.44-7.06,5.96l-.55,3.33c-2.42.16-4.84.31-7.26.55l-5.31.52c-1.09.1-1.87,1.07-1.77,2.13.1,1.07,1.04,1.85,2.13,1.74l5.31-.52c13.64-1.35,27.39-.83,41.19.55h.21c.99,0,1.85-.76,1.95-1.77.08-1.07-.7-2.03-1.8-2.13Z" style="stroke-width:0px;"/><path d="m51.22,21.94c-.62-.65-1.48-1.02-2.37-1.02H15.95c-.89,0-1.77.36-2.37,1.02-.6.65-.94,1.54-.89,2.45l1.61,26.71c.29,3.96.65,8.9,9.74,8.9h16.71c9.09,0,9.45-4.92,9.74-8.9l1.61-26.69c.05-.94-.29-1.82-.89-2.47Zm-14.5,25.02h-8.67c-1.07,0-1.95-.89-1.95-1.95s.89-1.95,1.95-1.95h8.67c1.07,0,1.95.89,1.95,1.95s-.89,1.95-1.95,1.95Zm2.19-10.41h-13.02c-1.07,0-1.95-.89-1.95-1.95s.89-1.95,1.95-1.95h13.02c1.07,0,1.95.89,1.95,1.95s-.89,1.95-1.95,1.95Z" style="stroke-width:0px;"/>
</g>
<!-- it-maximize -->
<g viewBox="0 0 64 64" id="it-maximize-bg">
<path d="m43.75,4h-23.48c-10.2,0-16.28,6.08-16.28,16.28v23.45c0,10.23,6.08,16.3,16.28,16.3h23.45c10.2,0,16.28-6.08,16.28-16.28v-23.48c.03-10.2-6.05-16.28-16.25-16.28Zm-13.05,32.3l-10.42,10.42h6.14c1.15,0,2.1.95,2.1,2.1s-.95,2.1-2.1,2.1h-11.21c-.28,0-.56-.06-.81-.17-.5-.22-.92-.62-1.15-1.15-.08-.25-.14-.5-.14-.78v-11.21c0-1.15.95-2.1,2.1-2.1s2.1.95,2.1,2.1v6.14l10.42-10.42c.81-.81,2.16-.81,2.97,0,.81.81.81,2.16,0,2.97Zm20.23-9.89c0,1.15-.95,2.1-2.1,2.1s-2.1-.95-2.1-2.1v-6.14l-10.42,10.42c-.42.42-.95.62-1.48.62s-1.06-.2-1.48-.62c-.81-.81-.81-2.16,0-2.97l10.42-10.42h-6.14c-1.15,0-2.1-.95-2.1-2.1s.95-2.1,2.1-2.1h11.21c.28,0,.53.06.81.17.5.22.92.62,1.15,1.15.08.25.14.5.14.78v11.21Z"/>
</g>
<!-- it-password-visible -->
<g viewBox="0 0 64 64" id="it-password-visible-bg">
<path d="m57.9,25.02c-6.47-10.16-15.93-16.02-25.9-16.02-4.98,0-9.83,1.46-14.25,4.17-4.42,2.74-8.4,6.75-11.65,11.84-2.8,4.4-2.8,11.54,0,15.93,6.47,10.19,15.93,16.02,25.9,16.02,4.98,0,9.83-1.46,14.25-4.17,4.42-2.74,8.4-6.75,11.65-11.84,2.8-4.37,2.8-11.54,0-15.93Zm-25.9,19.29c-6.27,0-11.31-5.07-11.31-11.31s5.04-11.31,11.31-11.31,11.31,5.07,11.31,11.31-5.04,11.31-11.31,11.31Z"/><path d="m32,24.99c-4.4,0-7.98,3.58-7.98,8.01s3.58,7.98,7.98,7.98,8.01-3.58,8.01-7.98-3.61-8.01-8.01-8.01Z"/>
</g>

</svg>
